<svg width="13" height="23" viewBox="0 0 13 23" fill="none" xmlns="http://www.w3.org/2000/svg">
<path d="M0.497118 1.18591C0.178813 1.49608 -9.39185e-07 1.91669 -9.33955e-07 2.35526C-9.28726e-07 2.79382 0.178813 3.21444 0.497118 3.5246L8.90166 11.7116L0.497118 19.8987C0.187835 20.2106 0.0166972 20.6284 0.0205653 21.0621C0.0244343 21.4957 0.202998 21.9106 0.517801 22.2172C0.832603 22.5239 1.25845 22.6978 1.70364 22.7016C2.14882 22.7054 2.57771 22.5387 2.89793 22.2374L12.5029 12.881C12.8212 12.5708 13 12.1502 13 11.7116C13 11.2731 12.8212 10.8525 12.5029 10.5423L2.89793 1.18591C2.57953 0.875847 2.14774 0.70166 1.69752 0.70166C1.24731 0.70166 0.815519 0.875847 0.497118 1.18591Z" fill="#F5EEDF"/>
</svg>
