<svg width="1561" height="174" viewBox="0 0 1561 174" fill="none" xmlns="http://www.w3.org/2000/svg">
<g clip-path="url(#clip0_150_798)">
<g opacity="0.9">
<mask id="path-1-outside-1_150_798" maskUnits="userSpaceOnUse" x="-3" y="3" width="1567" height="228" fill="black">
<rect fill="white" x="-3" y="3" width="1567" height="228"/>
<path d="M149.251 70.2781C154.591 92.7057 157.261 112.997 157.261 131.153C157.261 157.319 151.565 178.411 140.173 194.431C115.253 201.907 93.1816 205.645 73.9579 205.645C48.8603 205.645 30.2596 200.394 18.1557 189.892C6.05191 179.568 0 164.617 0 145.037C0 125.991 5.60692 102.496 16.8208 74.55L53.6662 86.5648C47.0803 104.899 43.7873 119.049 43.7873 129.017C43.7873 138.095 46.2793 144.948 51.2632 149.576C56.4252 154.026 64.346 156.251 75.0259 156.251C79.6538 156.251 85.3497 155.806 92.1136 154.916C99.0555 154.026 106.086 152.691 113.206 150.911C112.672 138.273 111.782 126.97 110.536 117.002C109.468 107.035 107.955 94.4857 105.997 79.3559L149.251 70.2781ZM84.1038 60.6662C80.3658 59.2422 75.4709 56.4833 69.419 52.3893C63.3671 48.1174 59.1841 44.4685 56.8702 41.4425C57.4042 39.1285 58.7391 36.0136 60.8751 32.0976C63.1891 28.0037 65.77 24.3547 68.618 21.1508C71.4659 17.7689 73.9579 15.8999 76.0939 15.5439C78.0518 15.1879 80.9888 16.0779 84.9047 18.2138C88.9987 20.3498 92.7366 23.0198 96.1186 26.2237C99.6785 29.2497 101.636 31.6526 101.992 33.4326C102.704 36.1026 100.658 40.8195 95.8516 47.5834C91.2236 54.1693 87.3077 58.5303 84.1038 60.6662Z"/>
<path d="M175.197 157.586C176.087 143.346 176.532 128.572 176.532 113.264C176.532 84.6069 175.464 49.9864 173.328 9.40297L216.582 7C218.896 41.1755 220.053 73.571 220.053 104.187C220.053 123.588 219.697 139.341 218.985 151.445C215.247 153.581 209.284 155.361 201.096 156.785C192.908 158.031 184.809 158.743 176.799 158.921L175.197 157.586Z"/>
<path d="M379.376 108.459C382.224 108.459 384.093 110.505 384.983 114.599C386.051 118.693 386.585 124.923 386.585 133.289C386.585 141.833 386.051 148.152 384.983 152.246C383.915 156.162 382.046 158.12 379.376 158.12C371.366 158.12 363.624 155.628 356.148 150.644C348.672 145.482 343.065 138.006 339.327 128.216C322.773 134.09 306.486 137.027 290.467 137.027C286.907 149.843 282.368 162.748 276.85 175.742C271.51 188.913 266.348 200.216 261.364 209.65C256.558 219.084 253.532 224.691 252.286 226.471C246.234 224.157 239.025 220.152 230.66 214.456C222.294 208.938 216.064 203.865 211.97 199.237C224.608 179.835 235.02 161.947 243.208 145.571C251.574 129.195 258.783 111.039 264.835 91.1038C270.175 91.4598 274.269 91.6377 277.117 91.6377C299.189 91.6377 322.595 87.2768 347.337 78.5549C350.363 87.9888 354.635 95.3757 360.153 100.716C365.671 105.878 372.078 108.459 379.376 108.459ZM345.201 157.732C348.049 157.732 352.499 159.868 358.551 164.14C364.781 168.589 368.163 172.06 368.697 174.552C369.053 177.222 367.095 181.583 362.823 187.635C358.551 193.687 354.902 197.781 351.876 199.917C348.494 198.493 344.222 196.001 339.06 192.441C333.898 189.059 330.071 185.944 327.579 183.096C325.799 186.3 323.485 189.593 320.637 192.975C317.789 196.357 315.475 198.671 313.695 199.917C310.135 198.315 305.596 195.556 300.079 191.64C294.561 187.902 290.645 184.698 288.331 182.028C289.399 178.29 292.069 173.306 296.341 167.076C300.613 160.847 304.172 157.732 307.02 157.732C309.868 157.732 314.14 159.69 319.836 163.606C325.532 167.699 329.003 171.081 330.249 173.751C332.741 169.301 335.322 165.475 337.992 162.271C340.662 159.245 343.065 157.732 345.201 157.732Z"/>
<path d="M455.479 51.8553C456.903 51.6773 458.949 51.5883 461.619 51.5883C476.037 51.5883 487.696 56.7503 496.596 67.0741C505.496 77.398 509.946 91.9937 509.946 110.861C509.946 114.777 508.7 120.562 506.208 128.216C503.716 135.87 500.69 142.278 497.13 147.44C483.958 151.712 469.451 154.56 453.61 155.984C437.946 157.408 420.591 158.12 401.545 158.12H379.385C376.715 158.12 374.846 156.162 373.778 152.246C372.71 148.152 372.176 141.833 372.176 133.289C372.176 124.923 372.71 118.693 373.778 114.599C374.668 110.505 376.537 108.459 379.385 108.459H388.196C390.332 102.763 391.844 95.3757 392.734 86.2978C393.624 77.22 394.069 65.2941 394.069 50.5204C394.069 44.8244 393.891 33.2546 393.535 15.8109V9.40297L436.522 7C436.522 29.7837 435.543 48.2064 433.585 62.2682C441.773 56.0383 449.071 52.5673 455.479 51.8553ZM414.895 111.662C421.481 112.196 429.224 112.463 438.124 112.463C448.804 112.463 458.06 112.018 465.891 111.128C473.901 110.238 478.44 108.815 479.508 106.857C478.44 104.009 476.037 101.784 472.299 100.182C468.561 98.4017 464.2 97.5117 459.217 97.5117C452.453 97.5117 445.155 98.7577 437.323 101.25C429.491 103.564 422.015 107.035 414.895 111.662Z"/>
<path d="M741.417 108.459C744.265 108.459 746.134 110.505 747.024 114.599C748.092 118.693 748.626 124.923 748.626 133.289C748.626 141.833 748.092 148.152 747.024 152.246C745.956 156.162 744.087 158.12 741.417 158.12C732.695 158.12 724.863 155.895 717.921 151.445C710.267 153.759 700.121 155.717 687.483 157.319C674.846 158.921 661.051 159.722 646.099 159.722C619.577 159.722 592.878 156.963 566 151.445C567.958 134.001 571.607 117.803 576.947 102.852C589.051 104.632 602.846 106.234 618.332 107.658C633.817 108.903 648.502 109.526 662.386 109.526C671.82 109.526 681.254 109.081 690.687 108.192C690.331 97.3337 689.442 84.5179 688.018 69.7441C686.772 54.7923 685.437 40.0185 684.013 25.4227L682.411 9.40297L725.397 7C727.711 41.1755 728.868 71.524 728.868 98.0457C729.046 99.1136 729.135 100.805 729.135 103.119C729.135 105.433 729.046 107.213 728.868 108.459H741.417ZM662.386 90.3028C655.8 90.1248 647.612 90.4808 637.822 91.3708C628.21 92.2607 619.578 93.4177 611.924 94.8417C611.212 93.5957 610.678 91.7268 610.322 89.2348C609.966 86.7428 609.788 84.1619 609.788 81.4919C609.788 77.576 610.144 74.906 610.856 73.482C615.84 71.702 620.556 70.2781 625.006 69.2101C620.734 63.8702 618.599 58.4412 618.599 52.9233C618.599 48.4734 620.022 44.2015 622.87 40.1075C625.896 36.0136 629.634 32.7206 634.084 30.2287C638.712 27.7367 643.162 26.4907 647.434 26.4907C651.172 26.4907 654.287 27.3807 656.779 29.1607C661.229 31.8306 663.454 36.0136 663.454 41.7095C663.454 46.1594 662.03 50.2534 659.182 53.9913C654.554 51.6773 650.282 50.5204 646.366 50.5204C643.874 50.5204 641.827 50.9654 640.225 51.8553C638.623 52.7453 637.733 54.0803 637.555 55.8603C637.199 58.8862 638.267 62.3572 640.759 66.2731C649.125 65.0271 656.245 64.4042 662.119 64.4042C664.433 64.4042 667.548 64.5822 671.464 64.9382L672.265 66.5401C671.731 69.5661 670.307 73.838 667.993 79.3559C665.679 84.8739 663.81 88.5228 662.386 90.3028Z"/>
<path d="M817.383 66.8071C820.765 77.487 822.456 89.0568 822.456 101.517C822.456 110.95 821.477 120.028 819.519 128.75C817.561 137.472 814.802 144.681 811.242 150.377C803.767 152.513 793.888 154.382 781.606 155.984C769.324 157.408 755.885 158.12 741.289 158.12C738.62 158.12 736.75 156.162 735.682 152.246C734.615 148.152 734.081 141.833 734.081 133.289C734.081 124.923 734.615 118.693 735.682 114.599C736.573 110.505 738.442 108.459 741.289 108.459C760.335 108.459 774.397 107.391 783.475 105.255C782.051 99.2026 780.271 93.2397 778.135 87.3658C776.177 81.4919 775.02 77.932 774.664 76.686L817.383 66.8071ZM816.582 181.63C816.938 184.3 814.98 188.661 810.708 194.713C806.437 200.765 802.788 204.859 799.762 206.995C796.38 205.571 792.108 203.079 786.946 199.519C781.784 196.137 777.957 193.022 775.465 190.174C773.685 193.378 771.371 196.671 768.523 200.053C765.675 203.435 763.361 205.749 761.581 206.995C758.021 205.393 753.482 202.634 747.964 198.718C742.446 194.98 738.53 191.776 736.216 189.106C737.284 185.368 739.954 180.384 744.226 174.154C748.498 167.924 752.058 164.809 754.906 164.809C757.754 164.809 762.026 166.767 767.722 170.683C773.418 174.777 776.889 178.159 778.135 180.829C780.627 176.379 783.208 172.552 785.878 169.348C788.548 166.322 790.951 164.809 793.087 164.809C795.935 164.809 800.385 166.945 806.437 171.217C812.666 175.667 816.048 179.138 816.582 181.63Z"/>
<path d="M895.609 108.459C898.457 108.459 900.326 110.505 901.216 114.599C902.284 118.693 902.818 124.923 902.818 133.289C902.818 141.833 902.284 148.152 901.216 152.246C900.148 156.162 898.279 158.12 895.609 158.12C885.819 158.12 876.296 157.497 867.04 156.251C857.963 155.005 850.309 153.047 844.079 150.377C842.477 143.969 841.142 115.044 840.074 63.6032L838.472 9.40297L881.458 7C883.06 33.5216 883.861 57.9073 883.861 80.1569C883.861 86.9208 883.683 95.9987 883.327 107.391C887.777 108.103 891.871 108.459 895.609 108.459Z"/>
<path d="M974.143 55.8603C989.095 65.4721 1000.4 72.592 1008.05 77.22C1015.71 81.6699 1021.13 83.8949 1024.34 83.8949C1023.8 94.0407 1022.65 102.674 1020.87 109.793C1019.27 116.735 1016.51 124.745 1012.59 133.823C1007.96 133.467 1004.58 133.289 1002.44 133.289C991.943 133.289 980.373 135.514 967.735 139.964C962.93 141.744 958.48 143.435 954.386 145.037C943.528 149.309 933.827 152.602 925.283 154.916C916.739 157.052 906.86 158.12 895.647 158.12C892.977 158.12 891.108 156.162 890.04 152.246C888.972 148.152 888.438 141.833 888.438 133.289C888.438 124.923 888.972 118.693 890.04 114.599C890.93 110.505 892.799 108.459 895.647 108.459C905.258 108.459 913.446 107.836 920.21 106.59C927.152 105.344 936.23 103.386 947.444 100.716L954.119 99.1136L970.672 95.3757C963.909 91.6378 958.213 88.8788 953.585 87.0988C948.601 85.1409 943.261 83.8059 937.565 83.0939C931.869 82.2039 924.482 81.4919 915.404 80.9579L909.53 80.6909L908.462 79.6229C909.174 72.859 910.509 65.3831 912.467 57.1953C914.603 48.8294 916.65 42.6885 918.608 38.7725C922.346 38.2385 925.817 37.9715 929.021 37.9715C935.607 37.9715 941.748 39.0395 947.444 41.1755C953.14 43.1335 958.925 45.9814 964.799 49.7194L974.143 55.8603ZM967.201 199.922C963.464 198.498 958.569 195.65 952.517 191.378C946.465 187.284 942.282 183.724 939.968 180.698C940.502 178.384 941.837 175.18 943.973 171.086C946.287 167.17 948.868 163.521 951.716 160.14C954.564 156.936 957.056 155.156 959.192 154.8C961.15 154.444 964.087 155.334 968.003 157.47C972.096 159.606 975.834 162.186 979.216 165.212C982.776 168.416 984.734 170.908 985.09 172.688C985.802 175.358 983.755 179.986 978.949 186.572C974.321 193.336 970.405 197.786 967.201 199.922Z"/>
<path d="M1227.04 60.9332C1223.48 59.3312 1218.94 56.6613 1213.42 52.9233C1207.9 49.0074 1203.99 45.7144 1201.67 43.0445C1202.74 39.3065 1205.41 34.3226 1209.68 28.0927C1213.95 21.8628 1217.51 18.7478 1220.36 18.7478C1223.21 18.7478 1227.48 20.7948 1233.18 24.8887C1238.87 28.8047 1242.34 32.0976 1243.59 34.7676C1246.08 30.3177 1248.66 26.5797 1251.33 23.5538C1254 20.3498 1256.41 18.7478 1258.54 18.7478C1261.39 18.7478 1265.84 20.9728 1271.89 25.4227C1278.12 29.6947 1281.5 33.0766 1282.04 35.5686C1282.39 38.2385 1280.44 42.5995 1276.16 48.6514C1271.89 54.7033 1268.24 58.7972 1265.22 60.9332C1261.84 59.5092 1257.56 57.1063 1252.4 53.7243C1247.24 50.1644 1243.41 46.9604 1240.92 44.1125C1239.14 47.3164 1236.83 50.6094 1233.98 53.9913C1231.13 57.3733 1228.82 59.6872 1227.04 60.9332ZM1159.75 79.6229C1156.02 78.199 1151.12 75.44 1145.07 71.3461C1139.02 67.0741 1134.83 63.4252 1132.52 60.3992C1133.05 58.0852 1134.39 54.9703 1136.53 51.0544C1138.84 46.9604 1141.42 43.3115 1144.27 40.1075C1147.12 36.7256 1149.61 34.8566 1151.74 34.5006C1153.7 34.1446 1156.64 35.0346 1160.55 37.1706C1164.65 39.3065 1168.39 41.9765 1171.77 45.1804C1175.33 48.2064 1177.29 50.6094 1177.64 52.3893C1178.35 55.0593 1176.31 59.7762 1171.5 66.5401C1166.87 73.126 1162.96 77.487 1159.75 79.6229ZM1331.17 108.459C1334.01 108.459 1335.88 110.505 1336.77 114.599C1337.84 118.693 1338.37 124.923 1338.37 133.289C1338.37 141.833 1337.84 148.152 1336.77 152.246C1335.7 156.162 1333.84 158.12 1331.17 158.12C1312.48 158.12 1299.48 147.885 1292.18 127.415C1285.78 129.551 1278.03 131.509 1268.95 133.289C1259.88 134.891 1250.62 136.048 1241.19 136.76C1241.37 139.074 1241.45 142.812 1241.45 147.974C1241.45 160.434 1240.12 172.271 1237.45 183.484C1234.96 194.876 1230.69 204.755 1224.63 213.121C1199.36 220.597 1177.29 224.335 1158.42 224.335C1132.79 224.335 1113.65 218.995 1101.01 208.315C1088.55 197.813 1082.32 182.861 1082.32 163.46C1082.32 144.058 1088.55 120.651 1101.01 93.2397L1138.13 105.255C1131.54 122.698 1128.25 136.849 1128.25 147.707C1128.25 157.141 1130.83 164.083 1135.99 168.533C1141.15 172.983 1148.9 175.208 1159.22 175.208C1169.72 175.208 1182.8 173.072 1198.47 168.8C1198.47 155.628 1197.04 134.357 1194.2 104.988C1193.84 102.852 1193.48 99.4696 1193.13 94.8417L1195.8 90.8368C1202.56 91.1928 1208.35 91.3708 1213.15 91.3708C1242.17 91.3708 1270.82 87.0988 1299.13 78.5549C1303.4 90.1248 1307.94 98.0457 1312.74 102.318C1317.55 106.412 1323.69 108.459 1331.17 108.459Z"/>
<path d="M1407.17 66.8071C1410.56 77.487 1412.25 89.0568 1412.25 101.517C1412.25 110.95 1411.27 120.028 1409.31 128.75C1407.35 137.472 1404.59 144.681 1401.03 150.377C1393.56 152.513 1383.68 154.382 1371.4 155.984C1359.11 157.408 1345.68 158.12 1331.08 158.12C1328.41 158.12 1326.54 156.162 1325.47 152.246C1324.4 148.152 1323.87 141.833 1323.87 133.289C1323.87 124.923 1324.4 118.693 1325.47 114.599C1326.36 110.505 1328.23 108.459 1331.08 108.459C1350.13 108.459 1364.19 107.391 1373.26 105.255C1371.84 99.2026 1370.06 93.2397 1367.92 87.3658C1365.97 81.4919 1364.81 77.932 1364.45 76.686L1407.17 66.8071ZM1406.37 182.63C1406.73 185.3 1404.77 189.661 1400.5 195.713C1396.23 201.765 1392.58 205.859 1389.55 207.995C1386.17 206.571 1381.9 204.079 1376.74 200.519C1371.57 197.137 1367.75 194.022 1365.25 191.174C1363.47 194.378 1361.16 197.671 1358.31 201.053C1355.47 204.435 1353.15 206.749 1351.37 207.995C1347.81 206.393 1343.27 203.634 1337.75 199.718C1332.24 195.98 1328.32 192.776 1326.01 190.106C1327.07 186.368 1329.74 181.384 1334.02 175.154C1338.29 168.924 1341.85 165.809 1344.7 165.809C1347.54 165.809 1351.82 167.767 1357.51 171.683C1363.21 175.777 1366.68 179.159 1367.92 181.829C1370.42 177.379 1373 173.552 1375.67 170.348C1378.34 167.322 1380.74 165.809 1382.88 165.809C1385.72 165.809 1390.17 167.945 1396.23 172.217C1402.46 176.667 1405.84 180.138 1406.37 182.63Z"/>
<path d="M1547.88 66.8071C1551.08 76.953 1552.68 88.6118 1552.68 101.784C1552.68 111.395 1551.7 120.473 1549.75 129.017C1547.97 137.561 1545.3 144.681 1541.74 150.377C1534.26 152.869 1525.63 154.827 1515.84 156.251C1506.05 157.497 1496.08 158.12 1485.93 158.12C1475.97 158.12 1466.35 157.497 1457.1 156.251C1448.02 154.827 1440.28 152.869 1433.87 150.377C1432.27 143.969 1430.93 115.044 1429.86 63.6032L1428.26 9.40297L1471.25 7C1472.85 33.3436 1473.65 57.5513 1473.65 79.6229C1473.65 86.3868 1473.47 95.4647 1473.12 106.857C1480.77 107.925 1488.43 108.459 1496.08 108.459C1503.2 108.459 1509.25 107.747 1514.23 106.323C1512.63 99.7366 1509.52 89.8578 1504.89 76.686L1547.88 66.8071ZM1505.96 59.0642C1502.4 57.4623 1497.86 54.7923 1492.34 51.0544C1486.82 47.1384 1482.91 43.8455 1480.59 41.1755C1481.66 37.4376 1484.33 32.4536 1488.6 26.2237C1492.88 19.9938 1496.43 16.8789 1499.28 16.8789C1502.13 16.8789 1506.4 18.9258 1512.1 23.0198C1517.79 26.9357 1521.27 30.2287 1522.51 32.8986C1525 28.4487 1527.58 24.7107 1530.25 21.6848C1532.92 18.4808 1535.33 16.8789 1537.46 16.8789C1540.31 16.8789 1544.76 19.1038 1550.81 23.5538C1557.04 27.8257 1560.42 31.2076 1560.96 33.6996C1561.31 36.3696 1559.36 40.7305 1555.09 46.7824C1550.81 52.8343 1547.16 56.9283 1544.14 59.0642C1540.76 57.6403 1536.48 55.2373 1531.32 51.8553C1526.16 48.2954 1522.33 45.0914 1519.84 42.2435C1518.06 45.4474 1515.75 48.7404 1512.9 52.1223C1510.05 55.5043 1507.74 57.8183 1505.96 59.0642Z"/>
</mask>
<path d="M149.251 70.2781C154.591 92.7057 157.261 112.997 157.261 131.153C157.261 157.319 151.565 178.411 140.173 194.431C115.253 201.907 93.1816 205.645 73.9579 205.645C48.8603 205.645 30.2596 200.394 18.1557 189.892C6.05191 179.568 0 164.617 0 145.037C0 125.991 5.60692 102.496 16.8208 74.55L53.6662 86.5648C47.0803 104.899 43.7873 119.049 43.7873 129.017C43.7873 138.095 46.2793 144.948 51.2632 149.576C56.4252 154.026 64.346 156.251 75.0259 156.251C79.6538 156.251 85.3497 155.806 92.1136 154.916C99.0555 154.026 106.086 152.691 113.206 150.911C112.672 138.273 111.782 126.97 110.536 117.002C109.468 107.035 107.955 94.4857 105.997 79.3559L149.251 70.2781ZM84.1038 60.6662C80.3658 59.2422 75.4709 56.4833 69.419 52.3893C63.3671 48.1174 59.1841 44.4685 56.8702 41.4425C57.4042 39.1285 58.7391 36.0136 60.8751 32.0976C63.1891 28.0037 65.77 24.3547 68.618 21.1508C71.4659 17.7689 73.9579 15.8999 76.0939 15.5439C78.0518 15.1879 80.9888 16.0779 84.9047 18.2138C88.9987 20.3498 92.7366 23.0198 96.1186 26.2237C99.6785 29.2497 101.636 31.6526 101.992 33.4326C102.704 36.1026 100.658 40.8195 95.8516 47.5834C91.2236 54.1693 87.3077 58.5303 84.1038 60.6662Z" fill="white"/>
<path d="M175.197 157.586C176.087 143.346 176.532 128.572 176.532 113.264C176.532 84.6069 175.464 49.9864 173.328 9.40297L216.582 7C218.896 41.1755 220.053 73.571 220.053 104.187C220.053 123.588 219.697 139.341 218.985 151.445C215.247 153.581 209.284 155.361 201.096 156.785C192.908 158.031 184.809 158.743 176.799 158.921L175.197 157.586Z" fill="white"/>
<path d="M379.376 108.459C382.224 108.459 384.093 110.505 384.983 114.599C386.051 118.693 386.585 124.923 386.585 133.289C386.585 141.833 386.051 148.152 384.983 152.246C383.915 156.162 382.046 158.12 379.376 158.12C371.366 158.12 363.624 155.628 356.148 150.644C348.672 145.482 343.065 138.006 339.327 128.216C322.773 134.09 306.486 137.027 290.467 137.027C286.907 149.843 282.368 162.748 276.85 175.742C271.51 188.913 266.348 200.216 261.364 209.65C256.558 219.084 253.532 224.691 252.286 226.471C246.234 224.157 239.025 220.152 230.66 214.456C222.294 208.938 216.064 203.865 211.97 199.237C224.608 179.835 235.02 161.947 243.208 145.571C251.574 129.195 258.783 111.039 264.835 91.1038C270.175 91.4598 274.269 91.6377 277.117 91.6377C299.189 91.6377 322.595 87.2768 347.337 78.5549C350.363 87.9888 354.635 95.3757 360.153 100.716C365.671 105.878 372.078 108.459 379.376 108.459ZM345.201 157.732C348.049 157.732 352.499 159.868 358.551 164.14C364.781 168.589 368.163 172.06 368.697 174.552C369.053 177.222 367.095 181.583 362.823 187.635C358.551 193.687 354.902 197.781 351.876 199.917C348.494 198.493 344.222 196.001 339.06 192.441C333.898 189.059 330.071 185.944 327.579 183.096C325.799 186.3 323.485 189.593 320.637 192.975C317.789 196.357 315.475 198.671 313.695 199.917C310.135 198.315 305.596 195.556 300.079 191.64C294.561 187.902 290.645 184.698 288.331 182.028C289.399 178.29 292.069 173.306 296.341 167.076C300.613 160.847 304.172 157.732 307.02 157.732C309.868 157.732 314.14 159.69 319.836 163.606C325.532 167.699 329.003 171.081 330.249 173.751C332.741 169.301 335.322 165.475 337.992 162.271C340.662 159.245 343.065 157.732 345.201 157.732Z" fill="white"/>
<path d="M455.479 51.8553C456.903 51.6773 458.949 51.5883 461.619 51.5883C476.037 51.5883 487.696 56.7503 496.596 67.0741C505.496 77.398 509.946 91.9937 509.946 110.861C509.946 114.777 508.7 120.562 506.208 128.216C503.716 135.87 500.69 142.278 497.13 147.44C483.958 151.712 469.451 154.56 453.61 155.984C437.946 157.408 420.591 158.12 401.545 158.12H379.385C376.715 158.12 374.846 156.162 373.778 152.246C372.71 148.152 372.176 141.833 372.176 133.289C372.176 124.923 372.71 118.693 373.778 114.599C374.668 110.505 376.537 108.459 379.385 108.459H388.196C390.332 102.763 391.844 95.3757 392.734 86.2978C393.624 77.22 394.069 65.2941 394.069 50.5204C394.069 44.8244 393.891 33.2546 393.535 15.8109V9.40297L436.522 7C436.522 29.7837 435.543 48.2064 433.585 62.2682C441.773 56.0383 449.071 52.5673 455.479 51.8553ZM414.895 111.662C421.481 112.196 429.224 112.463 438.124 112.463C448.804 112.463 458.06 112.018 465.891 111.128C473.901 110.238 478.44 108.815 479.508 106.857C478.44 104.009 476.037 101.784 472.299 100.182C468.561 98.4017 464.2 97.5117 459.217 97.5117C452.453 97.5117 445.155 98.7577 437.323 101.25C429.491 103.564 422.015 107.035 414.895 111.662Z" fill="white"/>
<path d="M741.417 108.459C744.265 108.459 746.134 110.505 747.024 114.599C748.092 118.693 748.626 124.923 748.626 133.289C748.626 141.833 748.092 148.152 747.024 152.246C745.956 156.162 744.087 158.12 741.417 158.12C732.695 158.12 724.863 155.895 717.921 151.445C710.267 153.759 700.121 155.717 687.483 157.319C674.846 158.921 661.051 159.722 646.099 159.722C619.577 159.722 592.878 156.963 566 151.445C567.958 134.001 571.607 117.803 576.947 102.852C589.051 104.632 602.846 106.234 618.332 107.658C633.817 108.903 648.502 109.526 662.386 109.526C671.82 109.526 681.254 109.081 690.687 108.192C690.331 97.3337 689.442 84.5179 688.018 69.7441C686.772 54.7923 685.437 40.0185 684.013 25.4227L682.411 9.40297L725.397 7C727.711 41.1755 728.868 71.524 728.868 98.0457C729.046 99.1136 729.135 100.805 729.135 103.119C729.135 105.433 729.046 107.213 728.868 108.459H741.417ZM662.386 90.3028C655.8 90.1248 647.612 90.4808 637.822 91.3708C628.21 92.2607 619.578 93.4177 611.924 94.8417C611.212 93.5957 610.678 91.7268 610.322 89.2348C609.966 86.7428 609.788 84.1619 609.788 81.4919C609.788 77.576 610.144 74.906 610.856 73.482C615.84 71.702 620.556 70.2781 625.006 69.2101C620.734 63.8702 618.599 58.4412 618.599 52.9233C618.599 48.4734 620.022 44.2015 622.87 40.1075C625.896 36.0136 629.634 32.7206 634.084 30.2287C638.712 27.7367 643.162 26.4907 647.434 26.4907C651.172 26.4907 654.287 27.3807 656.779 29.1607C661.229 31.8306 663.454 36.0136 663.454 41.7095C663.454 46.1594 662.03 50.2534 659.182 53.9913C654.554 51.6773 650.282 50.5204 646.366 50.5204C643.874 50.5204 641.827 50.9654 640.225 51.8553C638.623 52.7453 637.733 54.0803 637.555 55.8603C637.199 58.8862 638.267 62.3572 640.759 66.2731C649.125 65.0271 656.245 64.4042 662.119 64.4042C664.433 64.4042 667.548 64.5822 671.464 64.9382L672.265 66.5401C671.731 69.5661 670.307 73.838 667.993 79.3559C665.679 84.8739 663.81 88.5228 662.386 90.3028Z" fill="white"/>
<path d="M817.383 66.8071C820.765 77.487 822.456 89.0568 822.456 101.517C822.456 110.95 821.477 120.028 819.519 128.75C817.561 137.472 814.802 144.681 811.242 150.377C803.767 152.513 793.888 154.382 781.606 155.984C769.324 157.408 755.885 158.12 741.289 158.12C738.62 158.12 736.75 156.162 735.682 152.246C734.615 148.152 734.081 141.833 734.081 133.289C734.081 124.923 734.615 118.693 735.682 114.599C736.573 110.505 738.442 108.459 741.289 108.459C760.335 108.459 774.397 107.391 783.475 105.255C782.051 99.2026 780.271 93.2397 778.135 87.3658C776.177 81.4919 775.02 77.932 774.664 76.686L817.383 66.8071ZM816.582 181.63C816.938 184.3 814.98 188.661 810.708 194.713C806.437 200.765 802.788 204.859 799.762 206.995C796.38 205.571 792.108 203.079 786.946 199.519C781.784 196.137 777.957 193.022 775.465 190.174C773.685 193.378 771.371 196.671 768.523 200.053C765.675 203.435 763.361 205.749 761.581 206.995C758.021 205.393 753.482 202.634 747.964 198.718C742.446 194.98 738.53 191.776 736.216 189.106C737.284 185.368 739.954 180.384 744.226 174.154C748.498 167.924 752.058 164.809 754.906 164.809C757.754 164.809 762.026 166.767 767.722 170.683C773.418 174.777 776.889 178.159 778.135 180.829C780.627 176.379 783.208 172.552 785.878 169.348C788.548 166.322 790.951 164.809 793.087 164.809C795.935 164.809 800.385 166.945 806.437 171.217C812.666 175.667 816.048 179.138 816.582 181.63Z" fill="white"/>
<path d="M895.609 108.459C898.457 108.459 900.326 110.505 901.216 114.599C902.284 118.693 902.818 124.923 902.818 133.289C902.818 141.833 902.284 148.152 901.216 152.246C900.148 156.162 898.279 158.12 895.609 158.12C885.819 158.12 876.296 157.497 867.04 156.251C857.963 155.005 850.309 153.047 844.079 150.377C842.477 143.969 841.142 115.044 840.074 63.6032L838.472 9.40297L881.458 7C883.06 33.5216 883.861 57.9073 883.861 80.1569C883.861 86.9208 883.683 95.9987 883.327 107.391C887.777 108.103 891.871 108.459 895.609 108.459Z" fill="white"/>
<path d="M974.143 55.8603C989.095 65.4721 1000.4 72.592 1008.05 77.22C1015.71 81.6699 1021.13 83.8949 1024.34 83.8949C1023.8 94.0407 1022.65 102.674 1020.87 109.793C1019.27 116.735 1016.51 124.745 1012.59 133.823C1007.96 133.467 1004.58 133.289 1002.44 133.289C991.943 133.289 980.373 135.514 967.735 139.964C962.93 141.744 958.48 143.435 954.386 145.037C943.528 149.309 933.827 152.602 925.283 154.916C916.739 157.052 906.86 158.12 895.647 158.12C892.977 158.12 891.108 156.162 890.04 152.246C888.972 148.152 888.438 141.833 888.438 133.289C888.438 124.923 888.972 118.693 890.04 114.599C890.93 110.505 892.799 108.459 895.647 108.459C905.258 108.459 913.446 107.836 920.21 106.59C927.152 105.344 936.23 103.386 947.444 100.716L954.119 99.1136L970.672 95.3757C963.909 91.6378 958.213 88.8788 953.585 87.0988C948.601 85.1409 943.261 83.8059 937.565 83.0939C931.869 82.2039 924.482 81.4919 915.404 80.9579L909.53 80.6909L908.462 79.6229C909.174 72.859 910.509 65.3831 912.467 57.1953C914.603 48.8294 916.65 42.6885 918.608 38.7725C922.346 38.2385 925.817 37.9715 929.021 37.9715C935.607 37.9715 941.748 39.0395 947.444 41.1755C953.14 43.1335 958.925 45.9814 964.799 49.7194L974.143 55.8603ZM967.201 199.922C963.464 198.498 958.569 195.65 952.517 191.378C946.465 187.284 942.282 183.724 939.968 180.698C940.502 178.384 941.837 175.18 943.973 171.086C946.287 167.17 948.868 163.521 951.716 160.14C954.564 156.936 957.056 155.156 959.192 154.8C961.15 154.444 964.087 155.334 968.003 157.47C972.096 159.606 975.834 162.186 979.216 165.212C982.776 168.416 984.734 170.908 985.09 172.688C985.802 175.358 983.755 179.986 978.949 186.572C974.321 193.336 970.405 197.786 967.201 199.922Z" fill="white"/>
<path d="M1227.04 60.9332C1223.48 59.3312 1218.94 56.6613 1213.42 52.9233C1207.9 49.0074 1203.99 45.7144 1201.67 43.0445C1202.74 39.3065 1205.41 34.3226 1209.68 28.0927C1213.95 21.8628 1217.51 18.7478 1220.36 18.7478C1223.21 18.7478 1227.48 20.7948 1233.18 24.8887C1238.87 28.8047 1242.34 32.0976 1243.59 34.7676C1246.08 30.3177 1248.66 26.5797 1251.33 23.5538C1254 20.3498 1256.41 18.7478 1258.54 18.7478C1261.39 18.7478 1265.84 20.9728 1271.89 25.4227C1278.12 29.6947 1281.5 33.0766 1282.04 35.5686C1282.39 38.2385 1280.44 42.5995 1276.16 48.6514C1271.89 54.7033 1268.24 58.7972 1265.22 60.9332C1261.84 59.5092 1257.56 57.1063 1252.4 53.7243C1247.24 50.1644 1243.41 46.9604 1240.92 44.1125C1239.14 47.3164 1236.83 50.6094 1233.98 53.9913C1231.13 57.3733 1228.82 59.6872 1227.04 60.9332ZM1159.75 79.6229C1156.02 78.199 1151.12 75.44 1145.07 71.3461C1139.02 67.0741 1134.83 63.4252 1132.52 60.3992C1133.05 58.0852 1134.39 54.9703 1136.53 51.0544C1138.84 46.9604 1141.42 43.3115 1144.27 40.1075C1147.12 36.7256 1149.61 34.8566 1151.74 34.5006C1153.7 34.1446 1156.64 35.0346 1160.55 37.1706C1164.65 39.3065 1168.39 41.9765 1171.77 45.1804C1175.33 48.2064 1177.29 50.6094 1177.64 52.3893C1178.35 55.0593 1176.31 59.7762 1171.5 66.5401C1166.87 73.126 1162.96 77.487 1159.75 79.6229ZM1331.17 108.459C1334.01 108.459 1335.88 110.505 1336.77 114.599C1337.84 118.693 1338.37 124.923 1338.37 133.289C1338.37 141.833 1337.84 148.152 1336.77 152.246C1335.7 156.162 1333.84 158.12 1331.17 158.12C1312.48 158.12 1299.48 147.885 1292.18 127.415C1285.78 129.551 1278.03 131.509 1268.95 133.289C1259.88 134.891 1250.62 136.048 1241.19 136.76C1241.37 139.074 1241.45 142.812 1241.45 147.974C1241.45 160.434 1240.12 172.271 1237.45 183.484C1234.96 194.876 1230.69 204.755 1224.63 213.121C1199.36 220.597 1177.29 224.335 1158.42 224.335C1132.79 224.335 1113.65 218.995 1101.01 208.315C1088.55 197.813 1082.32 182.861 1082.32 163.46C1082.32 144.058 1088.55 120.651 1101.01 93.2397L1138.13 105.255C1131.54 122.698 1128.25 136.849 1128.25 147.707C1128.25 157.141 1130.83 164.083 1135.99 168.533C1141.15 172.983 1148.9 175.208 1159.22 175.208C1169.72 175.208 1182.8 173.072 1198.47 168.8C1198.47 155.628 1197.04 134.357 1194.2 104.988C1193.84 102.852 1193.48 99.4696 1193.13 94.8417L1195.8 90.8368C1202.56 91.1928 1208.35 91.3708 1213.15 91.3708C1242.17 91.3708 1270.82 87.0988 1299.13 78.5549C1303.4 90.1248 1307.94 98.0457 1312.74 102.318C1317.55 106.412 1323.69 108.459 1331.17 108.459Z" fill="white"/>
<path d="M1407.17 66.8071C1410.56 77.487 1412.25 89.0568 1412.25 101.517C1412.25 110.95 1411.27 120.028 1409.31 128.75C1407.35 137.472 1404.59 144.681 1401.03 150.377C1393.56 152.513 1383.68 154.382 1371.4 155.984C1359.11 157.408 1345.68 158.12 1331.08 158.12C1328.41 158.12 1326.54 156.162 1325.47 152.246C1324.4 148.152 1323.87 141.833 1323.87 133.289C1323.87 124.923 1324.4 118.693 1325.47 114.599C1326.36 110.505 1328.23 108.459 1331.08 108.459C1350.13 108.459 1364.19 107.391 1373.26 105.255C1371.84 99.2026 1370.06 93.2397 1367.92 87.3658C1365.97 81.4919 1364.81 77.932 1364.45 76.686L1407.17 66.8071ZM1406.37 182.63C1406.73 185.3 1404.77 189.661 1400.5 195.713C1396.23 201.765 1392.58 205.859 1389.55 207.995C1386.17 206.571 1381.9 204.079 1376.74 200.519C1371.57 197.137 1367.75 194.022 1365.25 191.174C1363.47 194.378 1361.16 197.671 1358.31 201.053C1355.47 204.435 1353.15 206.749 1351.37 207.995C1347.81 206.393 1343.27 203.634 1337.75 199.718C1332.24 195.98 1328.32 192.776 1326.01 190.106C1327.07 186.368 1329.74 181.384 1334.02 175.154C1338.29 168.924 1341.85 165.809 1344.7 165.809C1347.54 165.809 1351.82 167.767 1357.51 171.683C1363.21 175.777 1366.68 179.159 1367.92 181.829C1370.42 177.379 1373 173.552 1375.67 170.348C1378.34 167.322 1380.74 165.809 1382.88 165.809C1385.72 165.809 1390.17 167.945 1396.23 172.217C1402.46 176.667 1405.84 180.138 1406.37 182.63Z" fill="white"/>
<path d="M1547.88 66.8071C1551.08 76.953 1552.68 88.6118 1552.68 101.784C1552.68 111.395 1551.7 120.473 1549.75 129.017C1547.97 137.561 1545.3 144.681 1541.74 150.377C1534.26 152.869 1525.63 154.827 1515.84 156.251C1506.05 157.497 1496.08 158.12 1485.93 158.12C1475.97 158.12 1466.35 157.497 1457.1 156.251C1448.02 154.827 1440.28 152.869 1433.87 150.377C1432.27 143.969 1430.93 115.044 1429.86 63.6032L1428.26 9.40297L1471.25 7C1472.85 33.3436 1473.65 57.5513 1473.65 79.6229C1473.65 86.3868 1473.47 95.4647 1473.12 106.857C1480.77 107.925 1488.43 108.459 1496.08 108.459C1503.2 108.459 1509.25 107.747 1514.23 106.323C1512.63 99.7366 1509.52 89.8578 1504.89 76.686L1547.88 66.8071ZM1505.96 59.0642C1502.4 57.4623 1497.86 54.7923 1492.34 51.0544C1486.82 47.1384 1482.91 43.8455 1480.59 41.1755C1481.66 37.4376 1484.33 32.4536 1488.6 26.2237C1492.88 19.9938 1496.43 16.8789 1499.28 16.8789C1502.13 16.8789 1506.4 18.9258 1512.1 23.0198C1517.79 26.9357 1521.27 30.2287 1522.51 32.8986C1525 28.4487 1527.58 24.7107 1530.25 21.6848C1532.92 18.4808 1535.33 16.8789 1537.46 16.8789C1540.31 16.8789 1544.76 19.1038 1550.81 23.5538C1557.04 27.8257 1560.42 31.2076 1560.96 33.6996C1561.31 36.3696 1559.36 40.7305 1555.09 46.7824C1550.81 52.8343 1547.16 56.9283 1544.14 59.0642C1540.76 57.6403 1536.48 55.2373 1531.32 51.8553C1526.16 48.2954 1522.33 45.0914 1519.84 42.2435C1518.06 45.4474 1515.75 48.7404 1512.9 52.1223C1510.05 55.5043 1507.74 57.8183 1505.96 59.0642Z" fill="white"/>
<path d="M149.251 70.2781C154.591 92.7057 157.261 112.997 157.261 131.153C157.261 157.319 151.565 178.411 140.173 194.431C115.253 201.907 93.1816 205.645 73.9579 205.645C48.8603 205.645 30.2596 200.394 18.1557 189.892C6.05191 179.568 0 164.617 0 145.037C0 125.991 5.60692 102.496 16.8208 74.55L53.6662 86.5648C47.0803 104.899 43.7873 119.049 43.7873 129.017C43.7873 138.095 46.2793 144.948 51.2632 149.576C56.4252 154.026 64.346 156.251 75.0259 156.251C79.6538 156.251 85.3497 155.806 92.1136 154.916C99.0555 154.026 106.086 152.691 113.206 150.911C112.672 138.273 111.782 126.97 110.536 117.002C109.468 107.035 107.955 94.4857 105.997 79.3559L149.251 70.2781ZM84.1038 60.6662C80.3658 59.2422 75.4709 56.4833 69.419 52.3893C63.3671 48.1174 59.1841 44.4685 56.8702 41.4425C57.4042 39.1285 58.7391 36.0136 60.8751 32.0976C63.1891 28.0037 65.77 24.3547 68.618 21.1508C71.4659 17.7689 73.9579 15.8999 76.0939 15.5439C78.0518 15.1879 80.9888 16.0779 84.9047 18.2138C88.9987 20.3498 92.7366 23.0198 96.1186 26.2237C99.6785 29.2497 101.636 31.6526 101.992 33.4326C102.704 36.1026 100.658 40.8195 95.8516 47.5834C91.2236 54.1693 87.3077 58.5303 84.1038 60.6662Z" stroke="url(#paint0_linear_150_798)" stroke-width="6" mask="url(#path-1-outside-1_150_798)"/>
<path d="M175.197 157.586C176.087 143.346 176.532 128.572 176.532 113.264C176.532 84.6069 175.464 49.9864 173.328 9.40297L216.582 7C218.896 41.1755 220.053 73.571 220.053 104.187C220.053 123.588 219.697 139.341 218.985 151.445C215.247 153.581 209.284 155.361 201.096 156.785C192.908 158.031 184.809 158.743 176.799 158.921L175.197 157.586Z" stroke="url(#paint1_linear_150_798)" stroke-width="6" mask="url(#path-1-outside-1_150_798)"/>
<path d="M379.376 108.459C382.224 108.459 384.093 110.505 384.983 114.599C386.051 118.693 386.585 124.923 386.585 133.289C386.585 141.833 386.051 148.152 384.983 152.246C383.915 156.162 382.046 158.12 379.376 158.12C371.366 158.12 363.624 155.628 356.148 150.644C348.672 145.482 343.065 138.006 339.327 128.216C322.773 134.09 306.486 137.027 290.467 137.027C286.907 149.843 282.368 162.748 276.85 175.742C271.51 188.913 266.348 200.216 261.364 209.65C256.558 219.084 253.532 224.691 252.286 226.471C246.234 224.157 239.025 220.152 230.66 214.456C222.294 208.938 216.064 203.865 211.97 199.237C224.608 179.835 235.02 161.947 243.208 145.571C251.574 129.195 258.783 111.039 264.835 91.1038C270.175 91.4598 274.269 91.6377 277.117 91.6377C299.189 91.6377 322.595 87.2768 347.337 78.5549C350.363 87.9888 354.635 95.3757 360.153 100.716C365.671 105.878 372.078 108.459 379.376 108.459ZM345.201 157.732C348.049 157.732 352.499 159.868 358.551 164.14C364.781 168.589 368.163 172.06 368.697 174.552C369.053 177.222 367.095 181.583 362.823 187.635C358.551 193.687 354.902 197.781 351.876 199.917C348.494 198.493 344.222 196.001 339.06 192.441C333.898 189.059 330.071 185.944 327.579 183.096C325.799 186.3 323.485 189.593 320.637 192.975C317.789 196.357 315.475 198.671 313.695 199.917C310.135 198.315 305.596 195.556 300.079 191.64C294.561 187.902 290.645 184.698 288.331 182.028C289.399 178.29 292.069 173.306 296.341 167.076C300.613 160.847 304.172 157.732 307.02 157.732C309.868 157.732 314.14 159.69 319.836 163.606C325.532 167.699 329.003 171.081 330.249 173.751C332.741 169.301 335.322 165.475 337.992 162.271C340.662 159.245 343.065 157.732 345.201 157.732Z" stroke="url(#paint2_linear_150_798)" stroke-width="6" mask="url(#path-1-outside-1_150_798)"/>
<path d="M455.479 51.8553C456.903 51.6773 458.949 51.5883 461.619 51.5883C476.037 51.5883 487.696 56.7503 496.596 67.0741C505.496 77.398 509.946 91.9937 509.946 110.861C509.946 114.777 508.7 120.562 506.208 128.216C503.716 135.87 500.69 142.278 497.13 147.44C483.958 151.712 469.451 154.56 453.61 155.984C437.946 157.408 420.591 158.12 401.545 158.12H379.385C376.715 158.12 374.846 156.162 373.778 152.246C372.71 148.152 372.176 141.833 372.176 133.289C372.176 124.923 372.71 118.693 373.778 114.599C374.668 110.505 376.537 108.459 379.385 108.459H388.196C390.332 102.763 391.844 95.3757 392.734 86.2978C393.624 77.22 394.069 65.2941 394.069 50.5204C394.069 44.8244 393.891 33.2546 393.535 15.8109V9.40297L436.522 7C436.522 29.7837 435.543 48.2064 433.585 62.2682C441.773 56.0383 449.071 52.5673 455.479 51.8553ZM414.895 111.662C421.481 112.196 429.224 112.463 438.124 112.463C448.804 112.463 458.06 112.018 465.891 111.128C473.901 110.238 478.44 108.815 479.508 106.857C478.44 104.009 476.037 101.784 472.299 100.182C468.561 98.4017 464.2 97.5117 459.217 97.5117C452.453 97.5117 445.155 98.7577 437.323 101.25C429.491 103.564 422.015 107.035 414.895 111.662Z" stroke="url(#paint3_linear_150_798)" stroke-width="6" mask="url(#path-1-outside-1_150_798)"/>
<path d="M741.417 108.459C744.265 108.459 746.134 110.505 747.024 114.599C748.092 118.693 748.626 124.923 748.626 133.289C748.626 141.833 748.092 148.152 747.024 152.246C745.956 156.162 744.087 158.12 741.417 158.12C732.695 158.12 724.863 155.895 717.921 151.445C710.267 153.759 700.121 155.717 687.483 157.319C674.846 158.921 661.051 159.722 646.099 159.722C619.577 159.722 592.878 156.963 566 151.445C567.958 134.001 571.607 117.803 576.947 102.852C589.051 104.632 602.846 106.234 618.332 107.658C633.817 108.903 648.502 109.526 662.386 109.526C671.82 109.526 681.254 109.081 690.687 108.192C690.331 97.3337 689.442 84.5179 688.018 69.7441C686.772 54.7923 685.437 40.0185 684.013 25.4227L682.411 9.40297L725.397 7C727.711 41.1755 728.868 71.524 728.868 98.0457C729.046 99.1136 729.135 100.805 729.135 103.119C729.135 105.433 729.046 107.213 728.868 108.459H741.417ZM662.386 90.3028C655.8 90.1248 647.612 90.4808 637.822 91.3708C628.21 92.2607 619.578 93.4177 611.924 94.8417C611.212 93.5957 610.678 91.7268 610.322 89.2348C609.966 86.7428 609.788 84.1619 609.788 81.4919C609.788 77.576 610.144 74.906 610.856 73.482C615.84 71.702 620.556 70.2781 625.006 69.2101C620.734 63.8702 618.599 58.4412 618.599 52.9233C618.599 48.4734 620.022 44.2015 622.87 40.1075C625.896 36.0136 629.634 32.7206 634.084 30.2287C638.712 27.7367 643.162 26.4907 647.434 26.4907C651.172 26.4907 654.287 27.3807 656.779 29.1607C661.229 31.8306 663.454 36.0136 663.454 41.7095C663.454 46.1594 662.03 50.2534 659.182 53.9913C654.554 51.6773 650.282 50.5204 646.366 50.5204C643.874 50.5204 641.827 50.9654 640.225 51.8553C638.623 52.7453 637.733 54.0803 637.555 55.8603C637.199 58.8862 638.267 62.3572 640.759 66.2731C649.125 65.0271 656.245 64.4042 662.119 64.4042C664.433 64.4042 667.548 64.5822 671.464 64.9382L672.265 66.5401C671.731 69.5661 670.307 73.838 667.993 79.3559C665.679 84.8739 663.81 88.5228 662.386 90.3028Z" stroke="url(#paint4_linear_150_798)" stroke-width="6" mask="url(#path-1-outside-1_150_798)"/>
<path d="M817.383 66.8071C820.765 77.487 822.456 89.0568 822.456 101.517C822.456 110.95 821.477 120.028 819.519 128.75C817.561 137.472 814.802 144.681 811.242 150.377C803.767 152.513 793.888 154.382 781.606 155.984C769.324 157.408 755.885 158.12 741.289 158.12C738.62 158.12 736.75 156.162 735.682 152.246C734.615 148.152 734.081 141.833 734.081 133.289C734.081 124.923 734.615 118.693 735.682 114.599C736.573 110.505 738.442 108.459 741.289 108.459C760.335 108.459 774.397 107.391 783.475 105.255C782.051 99.2026 780.271 93.2397 778.135 87.3658C776.177 81.4919 775.02 77.932 774.664 76.686L817.383 66.8071ZM816.582 181.63C816.938 184.3 814.98 188.661 810.708 194.713C806.437 200.765 802.788 204.859 799.762 206.995C796.38 205.571 792.108 203.079 786.946 199.519C781.784 196.137 777.957 193.022 775.465 190.174C773.685 193.378 771.371 196.671 768.523 200.053C765.675 203.435 763.361 205.749 761.581 206.995C758.021 205.393 753.482 202.634 747.964 198.718C742.446 194.98 738.53 191.776 736.216 189.106C737.284 185.368 739.954 180.384 744.226 174.154C748.498 167.924 752.058 164.809 754.906 164.809C757.754 164.809 762.026 166.767 767.722 170.683C773.418 174.777 776.889 178.159 778.135 180.829C780.627 176.379 783.208 172.552 785.878 169.348C788.548 166.322 790.951 164.809 793.087 164.809C795.935 164.809 800.385 166.945 806.437 171.217C812.666 175.667 816.048 179.138 816.582 181.63Z" stroke="url(#paint5_linear_150_798)" stroke-width="6" mask="url(#path-1-outside-1_150_798)"/>
<path d="M895.609 108.459C898.457 108.459 900.326 110.505 901.216 114.599C902.284 118.693 902.818 124.923 902.818 133.289C902.818 141.833 902.284 148.152 901.216 152.246C900.148 156.162 898.279 158.12 895.609 158.12C885.819 158.12 876.296 157.497 867.04 156.251C857.963 155.005 850.309 153.047 844.079 150.377C842.477 143.969 841.142 115.044 840.074 63.6032L838.472 9.40297L881.458 7C883.06 33.5216 883.861 57.9073 883.861 80.1569C883.861 86.9208 883.683 95.9987 883.327 107.391C887.777 108.103 891.871 108.459 895.609 108.459Z" stroke="url(#paint6_linear_150_798)" stroke-width="6" mask="url(#path-1-outside-1_150_798)"/>
<path d="M974.143 55.8603C989.095 65.4721 1000.4 72.592 1008.05 77.22C1015.71 81.6699 1021.13 83.8949 1024.34 83.8949C1023.8 94.0407 1022.65 102.674 1020.87 109.793C1019.27 116.735 1016.51 124.745 1012.59 133.823C1007.96 133.467 1004.58 133.289 1002.44 133.289C991.943 133.289 980.373 135.514 967.735 139.964C962.93 141.744 958.48 143.435 954.386 145.037C943.528 149.309 933.827 152.602 925.283 154.916C916.739 157.052 906.86 158.12 895.647 158.12C892.977 158.12 891.108 156.162 890.04 152.246C888.972 148.152 888.438 141.833 888.438 133.289C888.438 124.923 888.972 118.693 890.04 114.599C890.93 110.505 892.799 108.459 895.647 108.459C905.258 108.459 913.446 107.836 920.21 106.59C927.152 105.344 936.23 103.386 947.444 100.716L954.119 99.1136L970.672 95.3757C963.909 91.6378 958.213 88.8788 953.585 87.0988C948.601 85.1409 943.261 83.8059 937.565 83.0939C931.869 82.2039 924.482 81.4919 915.404 80.9579L909.53 80.6909L908.462 79.6229C909.174 72.859 910.509 65.3831 912.467 57.1953C914.603 48.8294 916.65 42.6885 918.608 38.7725C922.346 38.2385 925.817 37.9715 929.021 37.9715C935.607 37.9715 941.748 39.0395 947.444 41.1755C953.14 43.1335 958.925 45.9814 964.799 49.7194L974.143 55.8603ZM967.201 199.922C963.464 198.498 958.569 195.65 952.517 191.378C946.465 187.284 942.282 183.724 939.968 180.698C940.502 178.384 941.837 175.18 943.973 171.086C946.287 167.17 948.868 163.521 951.716 160.14C954.564 156.936 957.056 155.156 959.192 154.8C961.15 154.444 964.087 155.334 968.003 157.47C972.096 159.606 975.834 162.186 979.216 165.212C982.776 168.416 984.734 170.908 985.09 172.688C985.802 175.358 983.755 179.986 978.949 186.572C974.321 193.336 970.405 197.786 967.201 199.922Z" stroke="url(#paint7_linear_150_798)" stroke-width="6" mask="url(#path-1-outside-1_150_798)"/>
<path d="M1227.04 60.9332C1223.48 59.3312 1218.94 56.6613 1213.42 52.9233C1207.9 49.0074 1203.99 45.7144 1201.67 43.0445C1202.74 39.3065 1205.41 34.3226 1209.68 28.0927C1213.95 21.8628 1217.51 18.7478 1220.36 18.7478C1223.21 18.7478 1227.48 20.7948 1233.18 24.8887C1238.87 28.8047 1242.34 32.0976 1243.59 34.7676C1246.08 30.3177 1248.66 26.5797 1251.33 23.5538C1254 20.3498 1256.41 18.7478 1258.54 18.7478C1261.39 18.7478 1265.84 20.9728 1271.89 25.4227C1278.12 29.6947 1281.5 33.0766 1282.04 35.5686C1282.39 38.2385 1280.44 42.5995 1276.16 48.6514C1271.89 54.7033 1268.24 58.7972 1265.22 60.9332C1261.84 59.5092 1257.56 57.1063 1252.4 53.7243C1247.24 50.1644 1243.41 46.9604 1240.92 44.1125C1239.14 47.3164 1236.83 50.6094 1233.98 53.9913C1231.13 57.3733 1228.82 59.6872 1227.04 60.9332ZM1159.75 79.6229C1156.02 78.199 1151.12 75.44 1145.07 71.3461C1139.02 67.0741 1134.83 63.4252 1132.52 60.3992C1133.05 58.0852 1134.39 54.9703 1136.53 51.0544C1138.84 46.9604 1141.42 43.3115 1144.27 40.1075C1147.12 36.7256 1149.61 34.8566 1151.74 34.5006C1153.7 34.1446 1156.64 35.0346 1160.55 37.1706C1164.65 39.3065 1168.39 41.9765 1171.77 45.1804C1175.33 48.2064 1177.29 50.6094 1177.64 52.3893C1178.35 55.0593 1176.31 59.7762 1171.5 66.5401C1166.87 73.126 1162.96 77.487 1159.75 79.6229ZM1331.17 108.459C1334.01 108.459 1335.88 110.505 1336.77 114.599C1337.84 118.693 1338.37 124.923 1338.37 133.289C1338.37 141.833 1337.84 148.152 1336.77 152.246C1335.7 156.162 1333.84 158.12 1331.17 158.12C1312.48 158.12 1299.48 147.885 1292.18 127.415C1285.78 129.551 1278.03 131.509 1268.95 133.289C1259.88 134.891 1250.62 136.048 1241.19 136.76C1241.37 139.074 1241.45 142.812 1241.45 147.974C1241.45 160.434 1240.12 172.271 1237.45 183.484C1234.96 194.876 1230.69 204.755 1224.63 213.121C1199.36 220.597 1177.29 224.335 1158.42 224.335C1132.79 224.335 1113.65 218.995 1101.01 208.315C1088.55 197.813 1082.32 182.861 1082.32 163.46C1082.32 144.058 1088.55 120.651 1101.01 93.2397L1138.13 105.255C1131.54 122.698 1128.25 136.849 1128.25 147.707C1128.25 157.141 1130.83 164.083 1135.99 168.533C1141.15 172.983 1148.9 175.208 1159.22 175.208C1169.72 175.208 1182.8 173.072 1198.47 168.8C1198.47 155.628 1197.04 134.357 1194.2 104.988C1193.84 102.852 1193.48 99.4696 1193.13 94.8417L1195.8 90.8368C1202.56 91.1928 1208.35 91.3708 1213.15 91.3708C1242.17 91.3708 1270.82 87.0988 1299.13 78.5549C1303.4 90.1248 1307.94 98.0457 1312.74 102.318C1317.55 106.412 1323.69 108.459 1331.17 108.459Z" stroke="url(#paint8_linear_150_798)" stroke-width="6" mask="url(#path-1-outside-1_150_798)"/>
<path d="M1407.17 66.8071C1410.56 77.487 1412.25 89.0568 1412.25 101.517C1412.25 110.95 1411.27 120.028 1409.31 128.75C1407.35 137.472 1404.59 144.681 1401.03 150.377C1393.56 152.513 1383.68 154.382 1371.4 155.984C1359.11 157.408 1345.68 158.12 1331.08 158.12C1328.41 158.12 1326.54 156.162 1325.47 152.246C1324.4 148.152 1323.87 141.833 1323.87 133.289C1323.87 124.923 1324.4 118.693 1325.47 114.599C1326.36 110.505 1328.23 108.459 1331.08 108.459C1350.13 108.459 1364.19 107.391 1373.26 105.255C1371.84 99.2026 1370.06 93.2397 1367.92 87.3658C1365.97 81.4919 1364.81 77.932 1364.45 76.686L1407.17 66.8071ZM1406.37 182.63C1406.73 185.3 1404.77 189.661 1400.5 195.713C1396.23 201.765 1392.58 205.859 1389.55 207.995C1386.17 206.571 1381.9 204.079 1376.74 200.519C1371.57 197.137 1367.75 194.022 1365.25 191.174C1363.47 194.378 1361.16 197.671 1358.31 201.053C1355.47 204.435 1353.15 206.749 1351.37 207.995C1347.81 206.393 1343.27 203.634 1337.75 199.718C1332.24 195.98 1328.32 192.776 1326.01 190.106C1327.07 186.368 1329.74 181.384 1334.02 175.154C1338.29 168.924 1341.85 165.809 1344.7 165.809C1347.54 165.809 1351.82 167.767 1357.51 171.683C1363.21 175.777 1366.68 179.159 1367.92 181.829C1370.42 177.379 1373 173.552 1375.67 170.348C1378.34 167.322 1380.74 165.809 1382.88 165.809C1385.72 165.809 1390.17 167.945 1396.23 172.217C1402.46 176.667 1405.84 180.138 1406.37 182.63Z" stroke="url(#paint9_linear_150_798)" stroke-width="6" mask="url(#path-1-outside-1_150_798)"/>
<path d="M1547.88 66.8071C1551.08 76.953 1552.68 88.6118 1552.68 101.784C1552.68 111.395 1551.7 120.473 1549.75 129.017C1547.97 137.561 1545.3 144.681 1541.74 150.377C1534.26 152.869 1525.63 154.827 1515.84 156.251C1506.05 157.497 1496.08 158.12 1485.93 158.12C1475.97 158.12 1466.35 157.497 1457.1 156.251C1448.02 154.827 1440.28 152.869 1433.87 150.377C1432.27 143.969 1430.93 115.044 1429.86 63.6032L1428.26 9.40297L1471.25 7C1472.85 33.3436 1473.65 57.5513 1473.65 79.6229C1473.65 86.3868 1473.47 95.4647 1473.12 106.857C1480.77 107.925 1488.43 108.459 1496.08 108.459C1503.2 108.459 1509.25 107.747 1514.23 106.323C1512.63 99.7366 1509.52 89.8578 1504.89 76.686L1547.88 66.8071ZM1505.96 59.0642C1502.4 57.4623 1497.86 54.7923 1492.34 51.0544C1486.82 47.1384 1482.91 43.8455 1480.59 41.1755C1481.66 37.4376 1484.33 32.4536 1488.6 26.2237C1492.88 19.9938 1496.43 16.8789 1499.28 16.8789C1502.13 16.8789 1506.4 18.9258 1512.1 23.0198C1517.79 26.9357 1521.27 30.2287 1522.51 32.8986C1525 28.4487 1527.58 24.7107 1530.25 21.6848C1532.92 18.4808 1535.33 16.8789 1537.46 16.8789C1540.31 16.8789 1544.76 19.1038 1550.81 23.5538C1557.04 27.8257 1560.42 31.2076 1560.96 33.6996C1561.31 36.3696 1559.36 40.7305 1555.09 46.7824C1550.81 52.8343 1547.16 56.9283 1544.14 59.0642C1540.76 57.6403 1536.48 55.2373 1531.32 51.8553C1526.16 48.2954 1522.33 45.0914 1519.84 42.2435C1518.06 45.4474 1515.75 48.7404 1512.9 52.1223C1510.05 55.5043 1507.74 57.8183 1505.96 59.0642Z" stroke="url(#paint10_linear_150_798)" stroke-width="6" mask="url(#path-1-outside-1_150_798)"/>
</g>
</g>
<defs>
<linearGradient id="paint0_linear_150_798" x1="781" y1="7" x2="781" y2="60" gradientUnits="userSpaceOnUse">
<stop stop-color="#EE5D33"/>
<stop offset="1" stop-color="#EE5D33" stop-opacity="0"/>
</linearGradient>
<linearGradient id="paint1_linear_150_798" x1="781" y1="7" x2="781" y2="60" gradientUnits="userSpaceOnUse">
<stop stop-color="#EE5D33"/>
<stop offset="1" stop-color="#EE5D33" stop-opacity="0"/>
</linearGradient>
<linearGradient id="paint2_linear_150_798" x1="781" y1="7" x2="781" y2="60" gradientUnits="userSpaceOnUse">
<stop stop-color="#EE5D33"/>
<stop offset="1" stop-color="#EE5D33" stop-opacity="0"/>
</linearGradient>
<linearGradient id="paint3_linear_150_798" x1="781" y1="7" x2="781" y2="60" gradientUnits="userSpaceOnUse">
<stop stop-color="#EE5D33"/>
<stop offset="1" stop-color="#EE5D33" stop-opacity="0"/>
</linearGradient>
<linearGradient id="paint4_linear_150_798" x1="781" y1="7" x2="781" y2="60" gradientUnits="userSpaceOnUse">
<stop stop-color="#EE5D33"/>
<stop offset="1" stop-color="#EE5D33" stop-opacity="0"/>
</linearGradient>
<linearGradient id="paint5_linear_150_798" x1="781" y1="7" x2="781" y2="60" gradientUnits="userSpaceOnUse">
<stop stop-color="#EE5D33"/>
<stop offset="1" stop-color="#EE5D33" stop-opacity="0"/>
</linearGradient>
<linearGradient id="paint6_linear_150_798" x1="781" y1="7" x2="781" y2="60" gradientUnits="userSpaceOnUse">
<stop stop-color="#EE5D33"/>
<stop offset="1" stop-color="#EE5D33" stop-opacity="0"/>
</linearGradient>
<linearGradient id="paint7_linear_150_798" x1="781" y1="7" x2="781" y2="60" gradientUnits="userSpaceOnUse">
<stop stop-color="#EE5D33"/>
<stop offset="1" stop-color="#EE5D33" stop-opacity="0"/>
</linearGradient>
<linearGradient id="paint8_linear_150_798" x1="781" y1="7" x2="781" y2="60" gradientUnits="userSpaceOnUse">
<stop stop-color="#EE5D33"/>
<stop offset="1" stop-color="#EE5D33" stop-opacity="0"/>
</linearGradient>
<linearGradient id="paint9_linear_150_798" x1="781" y1="7" x2="781" y2="60" gradientUnits="userSpaceOnUse">
<stop stop-color="#EE5D33"/>
<stop offset="1" stop-color="#EE5D33" stop-opacity="0"/>
</linearGradient>
<linearGradient id="paint10_linear_150_798" x1="781" y1="7" x2="781" y2="60" gradientUnits="userSpaceOnUse">
<stop stop-color="#EE5D33"/>
<stop offset="1" stop-color="#EE5D33" stop-opacity="0"/>
</linearGradient>
<clipPath id="clip0_150_798">
<rect width="1561" height="174" fill="white"/>
</clipPath>
</defs>
</svg>
