<svg width="1567" height="228" viewBox="0 0 1567 228" fill="none" xmlns="http://www.w3.org/2000/svg">
<g opacity="0.9">
<mask id="path-1-outside-1_150_799" maskUnits="userSpaceOnUse" x="0" y="0" width="1567" height="228" fill="black">
<rect fill="white" width="1567" height="228"/>
<path d="M152.251 67.2781C157.591 89.7057 160.261 109.997 160.261 128.153C160.261 154.319 154.565 175.411 143.173 191.431C118.253 198.907 96.1816 202.645 76.9579 202.645C51.8603 202.645 33.2596 197.394 21.1557 186.892C9.05191 176.568 3 161.617 3 142.037C3 122.991 8.60692 99.4956 19.8208 71.55L56.6662 83.5648C50.0803 101.899 46.7873 116.049 46.7873 126.017C46.7873 135.095 49.2793 141.948 54.2632 146.576C59.4252 151.026 67.346 153.251 78.0259 153.251C82.6538 153.251 88.3497 152.806 95.1136 151.916C102.056 151.026 109.086 149.691 116.206 147.911C115.672 135.273 114.782 123.97 113.536 114.002C112.468 104.035 110.955 91.4857 108.997 76.3559L152.251 67.2781ZM87.1038 57.6662C83.3658 56.2422 78.4709 53.4833 72.419 49.3893C66.3671 45.1174 62.1841 41.4685 59.8702 38.4425C60.4042 36.1285 61.7391 33.0136 63.8751 29.0976C66.1891 25.0037 68.77 21.3547 71.618 18.1508C74.4659 14.7689 76.9579 12.8999 79.0939 12.5439C81.0518 12.1879 83.9888 13.0779 87.9047 15.2138C91.9987 17.3498 95.7366 20.0198 99.1186 23.2237C102.679 26.2497 104.636 28.6526 104.992 30.4326C105.704 33.1026 103.658 37.8195 98.8516 44.5834C94.2236 51.1693 90.3077 55.5303 87.1038 57.6662Z"/>
<path d="M178.197 154.586C179.087 140.346 179.532 125.572 179.532 110.264C179.532 81.6069 178.464 46.9864 176.328 6.40297L219.582 4C221.896 38.1755 223.053 70.571 223.053 101.187C223.053 120.588 222.697 136.341 221.985 148.445C218.247 150.581 212.284 152.361 204.096 153.785C195.908 155.031 187.809 155.743 179.799 155.921L178.197 154.586Z"/>
<path d="M382.376 105.459C385.224 105.459 387.093 107.505 387.983 111.599C389.051 115.693 389.585 121.923 389.585 130.289C389.585 138.833 389.051 145.152 387.983 149.246C386.915 153.162 385.046 155.12 382.376 155.12C374.366 155.12 366.624 152.628 359.148 147.644C351.672 142.482 346.065 135.006 342.327 125.216C325.773 131.09 309.486 134.027 293.467 134.027C289.907 146.843 285.368 159.748 279.85 172.742C274.51 185.913 269.348 197.216 264.364 206.65C259.558 216.084 256.532 221.691 255.286 223.471C249.234 221.157 242.025 217.152 233.66 211.456C225.294 205.938 219.064 200.865 214.97 196.237C227.608 176.835 238.02 158.947 246.208 142.571C254.574 126.195 261.783 108.039 267.835 88.1038C273.175 88.4598 277.269 88.6377 280.117 88.6377C302.189 88.6377 325.595 84.2768 350.337 75.5549C353.363 84.9888 357.635 92.3757 363.153 97.7156C368.671 102.878 375.078 105.459 382.376 105.459ZM348.201 154.732C351.049 154.732 355.499 156.868 361.551 161.14C367.781 165.589 371.163 169.06 371.697 171.552C372.053 174.222 370.095 178.583 365.823 184.635C361.551 190.687 357.902 194.781 354.876 196.917C351.494 195.493 347.222 193.001 342.06 189.441C336.898 186.059 333.071 182.944 330.579 180.096C328.799 183.3 326.485 186.593 323.637 189.975C320.789 193.357 318.475 195.671 316.695 196.917C313.135 195.315 308.596 192.556 303.079 188.64C297.561 184.902 293.645 181.698 291.331 179.028C292.399 175.29 295.069 170.306 299.341 164.076C303.613 157.847 307.172 154.732 310.02 154.732C312.868 154.732 317.14 156.69 322.836 160.606C328.532 164.699 332.003 168.081 333.249 170.751C335.741 166.301 338.322 162.475 340.992 159.271C343.662 156.245 346.065 154.732 348.201 154.732Z"/>
<path d="M458.479 48.8553C459.903 48.6773 461.949 48.5883 464.619 48.5883C479.037 48.5883 490.696 53.7503 499.596 64.0741C508.496 74.398 512.946 88.9937 512.946 107.861C512.946 111.777 511.7 117.562 509.208 125.216C506.716 132.87 503.69 139.278 500.13 144.44C486.958 148.712 472.451 151.56 456.61 152.984C440.946 154.408 423.591 155.12 404.545 155.12H382.385C379.715 155.12 377.846 153.162 376.778 149.246C375.71 145.152 375.176 138.833 375.176 130.289C375.176 121.923 375.71 115.693 376.778 111.599C377.668 107.505 379.537 105.459 382.385 105.459H391.196C393.332 99.7626 394.844 92.3757 395.734 83.2978C396.624 74.22 397.069 62.2941 397.069 47.5204C397.069 41.8244 396.891 30.2546 396.535 12.8109V6.40297L439.522 4C439.522 26.7837 438.543 45.2064 436.585 59.2682C444.773 53.0383 452.071 49.5673 458.479 48.8553ZM417.895 108.662C424.481 109.196 432.224 109.463 441.124 109.463C451.804 109.463 461.06 109.018 468.891 108.128C476.901 107.238 481.44 105.815 482.508 103.857C481.44 101.009 479.037 98.7836 475.299 97.1816C471.561 95.4017 467.2 94.5117 462.217 94.5117C455.453 94.5117 448.155 95.7577 440.323 98.2496C432.491 100.564 425.015 104.035 417.895 108.662Z"/>
<path d="M744.417 105.459C747.265 105.459 749.134 107.505 750.024 111.599C751.092 115.693 751.626 121.923 751.626 130.289C751.626 138.833 751.092 145.152 750.024 149.246C748.956 153.162 747.087 155.12 744.417 155.12C735.695 155.12 727.863 152.895 720.921 148.445C713.267 150.759 703.121 152.717 690.483 154.319C677.846 155.921 664.051 156.722 649.099 156.722C622.577 156.722 595.878 153.963 569 148.445C570.958 131.001 574.607 114.803 579.947 99.8516C592.051 101.632 605.846 103.234 621.332 104.658C636.817 105.903 651.502 106.526 665.386 106.526C674.82 106.526 684.254 106.081 693.687 105.192C693.331 94.3337 692.442 81.5179 691.018 66.7441C689.772 51.7923 688.437 37.0185 687.013 22.4227L685.411 6.40297L728.397 4C730.711 38.1755 731.868 68.524 731.868 95.0457C732.046 96.1136 732.135 97.8046 732.135 100.119C732.135 102.433 732.046 104.213 731.868 105.459H744.417ZM665.386 87.3028C658.8 87.1248 650.612 87.4808 640.822 88.3708C631.21 89.2607 622.578 90.4177 614.924 91.8417C614.212 90.5957 613.678 88.7268 613.322 86.2348C612.966 83.7428 612.788 81.1619 612.788 78.4919C612.788 74.576 613.144 71.906 613.856 70.482C618.84 68.702 623.556 67.2781 628.006 66.2101C623.734 60.8702 621.599 55.4412 621.599 49.9233C621.599 45.4734 623.022 41.2015 625.87 37.1075C628.896 33.0136 632.634 29.7206 637.084 27.2287C641.712 24.7367 646.162 23.4907 650.434 23.4907C654.172 23.4907 657.287 24.3807 659.779 26.1607C664.229 28.8306 666.454 33.0136 666.454 38.7095C666.454 43.1594 665.03 47.2534 662.182 50.9913C657.554 48.6773 653.282 47.5204 649.366 47.5204C646.874 47.5204 644.827 47.9654 643.225 48.8553C641.623 49.7453 640.733 51.0803 640.555 52.8603C640.199 55.8862 641.267 59.3572 643.759 63.2731C652.125 62.0271 659.245 61.4042 665.119 61.4042C667.433 61.4042 670.548 61.5822 674.464 61.9382L675.265 63.5401C674.731 66.5661 673.307 70.838 670.993 76.3559C668.679 81.8739 666.81 85.5228 665.386 87.3028Z"/>
<path d="M820.383 63.8071C823.765 74.487 825.456 86.0568 825.456 98.5166C825.456 107.95 824.477 117.028 822.519 125.75C820.561 134.472 817.802 141.681 814.242 147.377C806.767 149.513 796.888 151.382 784.606 152.984C772.324 154.408 758.885 155.12 744.289 155.12C741.62 155.12 739.75 153.162 738.682 149.246C737.615 145.152 737.081 138.833 737.081 130.289C737.081 121.923 737.615 115.693 738.682 111.599C739.573 107.505 741.442 105.459 744.289 105.459C763.335 105.459 777.397 104.391 786.475 102.255C785.051 96.2026 783.271 90.2397 781.135 84.3658C779.177 78.4919 778.02 74.932 777.664 73.686L820.383 63.8071ZM819.582 178.63C819.938 181.3 817.98 185.661 813.708 191.713C809.437 197.765 805.788 201.859 802.762 203.995C799.38 202.571 795.108 200.079 789.946 196.519C784.784 193.137 780.957 190.022 778.465 187.174C776.685 190.378 774.371 193.671 771.523 197.053C768.675 200.435 766.361 202.749 764.581 203.995C761.021 202.393 756.482 199.634 750.964 195.718C745.446 191.98 741.53 188.776 739.216 186.106C740.284 182.368 742.954 177.384 747.226 171.154C751.498 164.924 755.058 161.809 757.906 161.809C760.754 161.809 765.026 163.767 770.722 167.683C776.418 171.777 779.889 175.159 781.135 177.829C783.627 173.379 786.208 169.552 788.878 166.348C791.548 163.322 793.951 161.809 796.087 161.809C798.935 161.809 803.385 163.945 809.437 168.217C815.666 172.667 819.048 176.138 819.582 178.63Z"/>
<path d="M898.609 105.459C901.457 105.459 903.326 107.505 904.216 111.599C905.284 115.693 905.818 121.923 905.818 130.289C905.818 138.833 905.284 145.152 904.216 149.246C903.148 153.162 901.279 155.12 898.609 155.12C888.819 155.12 879.296 154.497 870.04 153.251C860.963 152.005 853.309 150.047 847.079 147.377C845.477 140.969 844.142 112.044 843.074 60.6032L841.472 6.40297L884.458 4C886.06 30.5216 886.861 54.9073 886.861 77.1569C886.861 83.9208 886.683 92.9987 886.327 104.391C890.777 105.103 894.871 105.459 898.609 105.459Z"/>
<path d="M977.143 52.8603C992.095 62.4721 1003.4 69.592 1011.05 74.22C1018.71 78.6699 1024.13 80.8949 1027.34 80.8949C1026.8 91.0407 1025.65 99.6736 1023.87 106.793C1022.27 113.735 1019.51 121.745 1015.59 130.823C1010.96 130.467 1007.58 130.289 1005.44 130.289C994.943 130.289 983.373 132.514 970.735 136.964C965.93 138.744 961.48 140.435 957.386 142.037C946.528 146.309 936.827 149.602 928.283 151.916C919.739 154.052 909.86 155.12 898.647 155.12C895.977 155.12 894.108 153.162 893.04 149.246C891.972 145.152 891.438 138.833 891.438 130.289C891.438 121.923 891.972 115.693 893.04 111.599C893.93 107.505 895.799 105.459 898.647 105.459C908.258 105.459 916.446 104.836 923.21 103.59C930.152 102.344 939.23 100.386 950.444 97.7156L957.119 96.1136L973.672 92.3757C966.909 88.6378 961.213 85.8788 956.585 84.0988C951.601 82.1409 946.261 80.8059 940.565 80.0939C934.869 79.2039 927.482 78.4919 918.404 77.9579L912.53 77.6909L911.462 76.6229C912.174 69.859 913.509 62.3831 915.467 54.1953C917.603 45.8294 919.65 39.6885 921.608 35.7725C925.346 35.2385 928.817 34.9715 932.021 34.9715C938.607 34.9715 944.748 36.0395 950.444 38.1755C956.14 40.1335 961.925 42.9814 967.799 46.7194L977.143 52.8603ZM970.201 196.922C966.464 195.498 961.569 192.65 955.517 188.378C949.465 184.284 945.282 180.724 942.968 177.698C943.502 175.384 944.837 172.18 946.973 168.086C949.287 164.17 951.868 160.521 954.716 157.14C957.564 153.936 960.056 152.156 962.192 151.8C964.15 151.444 967.087 152.334 971.003 154.47C975.096 156.606 978.834 159.186 982.216 162.212C985.776 165.416 987.734 167.908 988.09 169.688C988.802 172.358 986.755 176.986 981.949 183.572C977.321 190.336 973.405 194.786 970.201 196.922Z"/>
<path d="M1230.04 57.9332C1226.48 56.3312 1221.94 53.6613 1216.42 49.9233C1210.9 46.0074 1206.99 42.7144 1204.67 40.0445C1205.74 36.3065 1208.41 31.3226 1212.68 25.0927C1216.95 18.8628 1220.51 15.7478 1223.36 15.7478C1226.21 15.7478 1230.48 17.7948 1236.18 21.8887C1241.87 25.8047 1245.34 29.0976 1246.59 31.7676C1249.08 27.3177 1251.66 23.5797 1254.33 20.5538C1257 17.3498 1259.41 15.7478 1261.54 15.7478C1264.39 15.7478 1268.84 17.9728 1274.89 22.4227C1281.12 26.6947 1284.5 30.0766 1285.04 32.5686C1285.39 35.2385 1283.44 39.5995 1279.16 45.6514C1274.89 51.7033 1271.24 55.7972 1268.22 57.9332C1264.84 56.5092 1260.56 54.1063 1255.4 50.7243C1250.24 47.1644 1246.41 43.9604 1243.92 41.1125C1242.14 44.3164 1239.83 47.6094 1236.98 50.9913C1234.13 54.3733 1231.82 56.6872 1230.04 57.9332ZM1162.75 76.6229C1159.02 75.199 1154.12 72.44 1148.07 68.3461C1142.02 64.0741 1137.83 60.4252 1135.52 57.3992C1136.05 55.0852 1137.39 51.9703 1139.53 48.0544C1141.84 43.9604 1144.42 40.3115 1147.27 37.1075C1150.12 33.7256 1152.61 31.8566 1154.74 31.5006C1156.7 31.1446 1159.64 32.0346 1163.55 34.1706C1167.65 36.3065 1171.39 38.9765 1174.77 42.1804C1178.33 45.2064 1180.29 47.6094 1180.64 49.3893C1181.35 52.0593 1179.31 56.7762 1174.5 63.5401C1169.87 70.126 1165.96 74.487 1162.75 76.6229ZM1334.17 105.459C1337.01 105.459 1338.88 107.505 1339.77 111.599C1340.84 115.693 1341.37 121.923 1341.37 130.289C1341.37 138.833 1340.84 145.152 1339.77 149.246C1338.7 153.162 1336.84 155.12 1334.17 155.12C1315.48 155.12 1302.48 144.885 1295.18 124.415C1288.78 126.551 1281.03 128.509 1271.95 130.289C1262.88 131.891 1253.62 133.048 1244.19 133.76C1244.37 136.074 1244.45 139.812 1244.45 144.974C1244.45 157.434 1243.12 169.271 1240.45 180.484C1237.96 191.876 1233.69 201.755 1227.63 210.121C1202.36 217.597 1180.29 221.335 1161.42 221.335C1135.79 221.335 1116.65 215.995 1104.01 205.315C1091.55 194.813 1085.32 179.861 1085.32 160.46C1085.32 141.058 1091.55 117.651 1104.01 90.2397L1141.13 102.255C1134.54 119.698 1131.25 133.849 1131.25 144.707C1131.25 154.141 1133.83 161.083 1138.99 165.533C1144.15 169.983 1151.9 172.208 1162.22 172.208C1172.72 172.208 1185.8 170.072 1201.47 165.8C1201.47 152.628 1200.04 131.357 1197.2 101.988C1196.84 99.8516 1196.48 96.4696 1196.13 91.8417L1198.8 87.8368C1205.56 88.1928 1211.35 88.3708 1216.15 88.3708C1245.17 88.3708 1273.82 84.0988 1302.13 75.5549C1306.4 87.1248 1310.94 95.0457 1315.74 99.3176C1320.55 103.412 1326.69 105.459 1334.17 105.459Z"/>
<path d="M1410.17 63.8071C1413.56 74.487 1415.25 86.0568 1415.25 98.5166C1415.25 107.95 1414.27 117.028 1412.31 125.75C1410.35 134.472 1407.59 141.681 1404.03 147.377C1396.56 149.513 1386.68 151.382 1374.4 152.984C1362.11 154.408 1348.68 155.12 1334.08 155.12C1331.41 155.12 1329.54 153.162 1328.47 149.246C1327.4 145.152 1326.87 138.833 1326.87 130.289C1326.87 121.923 1327.4 115.693 1328.47 111.599C1329.36 107.505 1331.23 105.459 1334.08 105.459C1353.13 105.459 1367.19 104.391 1376.26 102.255C1374.84 96.2026 1373.06 90.2397 1370.92 84.3658C1368.97 78.4919 1367.81 74.932 1367.45 73.686L1410.17 63.8071ZM1409.37 179.63C1409.73 182.3 1407.77 186.661 1403.5 192.713C1399.23 198.765 1395.58 202.859 1392.55 204.995C1389.17 203.571 1384.9 201.079 1379.74 197.519C1374.57 194.137 1370.75 191.022 1368.25 188.174C1366.47 191.378 1364.16 194.671 1361.31 198.053C1358.47 201.435 1356.15 203.749 1354.37 204.995C1350.81 203.393 1346.27 200.634 1340.75 196.718C1335.24 192.98 1331.32 189.776 1329.01 187.106C1330.07 183.368 1332.74 178.384 1337.02 172.154C1341.29 165.924 1344.85 162.809 1347.7 162.809C1350.54 162.809 1354.82 164.767 1360.51 168.683C1366.21 172.777 1369.68 176.159 1370.92 178.829C1373.42 174.379 1376 170.552 1378.67 167.348C1381.34 164.322 1383.74 162.809 1385.88 162.809C1388.72 162.809 1393.17 164.945 1399.23 169.217C1405.46 173.667 1408.84 177.138 1409.37 179.63Z"/>
<path d="M1550.88 63.8071C1554.08 73.953 1555.68 85.6118 1555.68 98.7836C1555.68 108.395 1554.7 117.473 1552.75 126.017C1550.97 134.561 1548.3 141.681 1544.74 147.377C1537.26 149.869 1528.63 151.827 1518.84 153.251C1509.05 154.497 1499.08 155.12 1488.93 155.12C1478.97 155.12 1469.35 154.497 1460.1 153.251C1451.02 151.827 1443.28 149.869 1436.87 147.377C1435.27 140.969 1433.93 112.044 1432.86 60.6032L1431.26 6.40297L1474.25 4C1475.85 30.3436 1476.65 54.5513 1476.65 76.6229C1476.65 83.3868 1476.47 92.4647 1476.12 103.857C1483.77 104.925 1491.43 105.459 1499.08 105.459C1506.2 105.459 1512.25 104.747 1517.23 103.323C1515.63 96.7366 1512.52 86.8578 1507.89 73.686L1550.88 63.8071ZM1508.96 56.0642C1505.4 54.4623 1500.86 51.7923 1495.34 48.0544C1489.82 44.1384 1485.91 40.8455 1483.59 38.1755C1484.66 34.4376 1487.33 29.4536 1491.6 23.2237C1495.88 16.9938 1499.43 13.8789 1502.28 13.8789C1505.13 13.8789 1509.4 15.9258 1515.1 20.0198C1520.79 23.9357 1524.27 27.2287 1525.51 29.8986C1528 25.4487 1530.58 21.7107 1533.25 18.6848C1535.92 15.4808 1538.33 13.8789 1540.46 13.8789C1543.31 13.8789 1547.76 16.1038 1553.81 20.5538C1560.04 24.8257 1563.42 28.2076 1563.96 30.6996C1564.31 33.3696 1562.36 37.7305 1558.09 43.7824C1553.81 49.8343 1550.16 53.9283 1547.14 56.0642C1543.76 54.6403 1539.48 52.2373 1534.32 48.8553C1529.16 45.2954 1525.33 42.0914 1522.84 39.2435C1521.06 42.4474 1518.75 45.7404 1515.9 49.1223C1513.05 52.5043 1510.74 54.8183 1508.96 56.0642Z"/>
</mask>
<path d="M152.251 67.2781C157.591 89.7057 160.261 109.997 160.261 128.153C160.261 154.319 154.565 175.411 143.173 191.431C118.253 198.907 96.1816 202.645 76.9579 202.645C51.8603 202.645 33.2596 197.394 21.1557 186.892C9.05191 176.568 3 161.617 3 142.037C3 122.991 8.60692 99.4956 19.8208 71.55L56.6662 83.5648C50.0803 101.899 46.7873 116.049 46.7873 126.017C46.7873 135.095 49.2793 141.948 54.2632 146.576C59.4252 151.026 67.346 153.251 78.0259 153.251C82.6538 153.251 88.3497 152.806 95.1136 151.916C102.056 151.026 109.086 149.691 116.206 147.911C115.672 135.273 114.782 123.97 113.536 114.002C112.468 104.035 110.955 91.4857 108.997 76.3559L152.251 67.2781ZM87.1038 57.6662C83.3658 56.2422 78.4709 53.4833 72.419 49.3893C66.3671 45.1174 62.1841 41.4685 59.8702 38.4425C60.4042 36.1285 61.7391 33.0136 63.8751 29.0976C66.1891 25.0037 68.77 21.3547 71.618 18.1508C74.4659 14.7689 76.9579 12.8999 79.0939 12.5439C81.0518 12.1879 83.9888 13.0779 87.9047 15.2138C91.9987 17.3498 95.7366 20.0198 99.1186 23.2237C102.679 26.2497 104.636 28.6526 104.992 30.4326C105.704 33.1026 103.658 37.8195 98.8516 44.5834C94.2236 51.1693 90.3077 55.5303 87.1038 57.6662Z" fill="white"/>
<path d="M178.197 154.586C179.087 140.346 179.532 125.572 179.532 110.264C179.532 81.6069 178.464 46.9864 176.328 6.40297L219.582 4C221.896 38.1755 223.053 70.571 223.053 101.187C223.053 120.588 222.697 136.341 221.985 148.445C218.247 150.581 212.284 152.361 204.096 153.785C195.908 155.031 187.809 155.743 179.799 155.921L178.197 154.586Z" fill="white"/>
<path d="M382.376 105.459C385.224 105.459 387.093 107.505 387.983 111.599C389.051 115.693 389.585 121.923 389.585 130.289C389.585 138.833 389.051 145.152 387.983 149.246C386.915 153.162 385.046 155.12 382.376 155.12C374.366 155.12 366.624 152.628 359.148 147.644C351.672 142.482 346.065 135.006 342.327 125.216C325.773 131.09 309.486 134.027 293.467 134.027C289.907 146.843 285.368 159.748 279.85 172.742C274.51 185.913 269.348 197.216 264.364 206.65C259.558 216.084 256.532 221.691 255.286 223.471C249.234 221.157 242.025 217.152 233.66 211.456C225.294 205.938 219.064 200.865 214.97 196.237C227.608 176.835 238.02 158.947 246.208 142.571C254.574 126.195 261.783 108.039 267.835 88.1038C273.175 88.4598 277.269 88.6377 280.117 88.6377C302.189 88.6377 325.595 84.2768 350.337 75.5549C353.363 84.9888 357.635 92.3757 363.153 97.7156C368.671 102.878 375.078 105.459 382.376 105.459ZM348.201 154.732C351.049 154.732 355.499 156.868 361.551 161.14C367.781 165.589 371.163 169.06 371.697 171.552C372.053 174.222 370.095 178.583 365.823 184.635C361.551 190.687 357.902 194.781 354.876 196.917C351.494 195.493 347.222 193.001 342.06 189.441C336.898 186.059 333.071 182.944 330.579 180.096C328.799 183.3 326.485 186.593 323.637 189.975C320.789 193.357 318.475 195.671 316.695 196.917C313.135 195.315 308.596 192.556 303.079 188.64C297.561 184.902 293.645 181.698 291.331 179.028C292.399 175.29 295.069 170.306 299.341 164.076C303.613 157.847 307.172 154.732 310.02 154.732C312.868 154.732 317.14 156.69 322.836 160.606C328.532 164.699 332.003 168.081 333.249 170.751C335.741 166.301 338.322 162.475 340.992 159.271C343.662 156.245 346.065 154.732 348.201 154.732Z" fill="white"/>
<path d="M458.479 48.8553C459.903 48.6773 461.949 48.5883 464.619 48.5883C479.037 48.5883 490.696 53.7503 499.596 64.0741C508.496 74.398 512.946 88.9937 512.946 107.861C512.946 111.777 511.7 117.562 509.208 125.216C506.716 132.87 503.69 139.278 500.13 144.44C486.958 148.712 472.451 151.56 456.61 152.984C440.946 154.408 423.591 155.12 404.545 155.12H382.385C379.715 155.12 377.846 153.162 376.778 149.246C375.71 145.152 375.176 138.833 375.176 130.289C375.176 121.923 375.71 115.693 376.778 111.599C377.668 107.505 379.537 105.459 382.385 105.459H391.196C393.332 99.7626 394.844 92.3757 395.734 83.2978C396.624 74.22 397.069 62.2941 397.069 47.5204C397.069 41.8244 396.891 30.2546 396.535 12.8109V6.40297L439.522 4C439.522 26.7837 438.543 45.2064 436.585 59.2682C444.773 53.0383 452.071 49.5673 458.479 48.8553ZM417.895 108.662C424.481 109.196 432.224 109.463 441.124 109.463C451.804 109.463 461.06 109.018 468.891 108.128C476.901 107.238 481.44 105.815 482.508 103.857C481.44 101.009 479.037 98.7836 475.299 97.1816C471.561 95.4017 467.2 94.5117 462.217 94.5117C455.453 94.5117 448.155 95.7577 440.323 98.2496C432.491 100.564 425.015 104.035 417.895 108.662Z" fill="white"/>
<path d="M744.417 105.459C747.265 105.459 749.134 107.505 750.024 111.599C751.092 115.693 751.626 121.923 751.626 130.289C751.626 138.833 751.092 145.152 750.024 149.246C748.956 153.162 747.087 155.12 744.417 155.12C735.695 155.12 727.863 152.895 720.921 148.445C713.267 150.759 703.121 152.717 690.483 154.319C677.846 155.921 664.051 156.722 649.099 156.722C622.577 156.722 595.878 153.963 569 148.445C570.958 131.001 574.607 114.803 579.947 99.8516C592.051 101.632 605.846 103.234 621.332 104.658C636.817 105.903 651.502 106.526 665.386 106.526C674.82 106.526 684.254 106.081 693.687 105.192C693.331 94.3337 692.442 81.5179 691.018 66.7441C689.772 51.7923 688.437 37.0185 687.013 22.4227L685.411 6.40297L728.397 4C730.711 38.1755 731.868 68.524 731.868 95.0457C732.046 96.1136 732.135 97.8046 732.135 100.119C732.135 102.433 732.046 104.213 731.868 105.459H744.417ZM665.386 87.3028C658.8 87.1248 650.612 87.4808 640.822 88.3708C631.21 89.2607 622.578 90.4177 614.924 91.8417C614.212 90.5957 613.678 88.7268 613.322 86.2348C612.966 83.7428 612.788 81.1619 612.788 78.4919C612.788 74.576 613.144 71.906 613.856 70.482C618.84 68.702 623.556 67.2781 628.006 66.2101C623.734 60.8702 621.599 55.4412 621.599 49.9233C621.599 45.4734 623.022 41.2015 625.87 37.1075C628.896 33.0136 632.634 29.7206 637.084 27.2287C641.712 24.7367 646.162 23.4907 650.434 23.4907C654.172 23.4907 657.287 24.3807 659.779 26.1607C664.229 28.8306 666.454 33.0136 666.454 38.7095C666.454 43.1594 665.03 47.2534 662.182 50.9913C657.554 48.6773 653.282 47.5204 649.366 47.5204C646.874 47.5204 644.827 47.9654 643.225 48.8553C641.623 49.7453 640.733 51.0803 640.555 52.8603C640.199 55.8862 641.267 59.3572 643.759 63.2731C652.125 62.0271 659.245 61.4042 665.119 61.4042C667.433 61.4042 670.548 61.5822 674.464 61.9382L675.265 63.5401C674.731 66.5661 673.307 70.838 670.993 76.3559C668.679 81.8739 666.81 85.5228 665.386 87.3028Z" fill="white"/>
<path d="M820.383 63.8071C823.765 74.487 825.456 86.0568 825.456 98.5166C825.456 107.95 824.477 117.028 822.519 125.75C820.561 134.472 817.802 141.681 814.242 147.377C806.767 149.513 796.888 151.382 784.606 152.984C772.324 154.408 758.885 155.12 744.289 155.12C741.62 155.12 739.75 153.162 738.682 149.246C737.615 145.152 737.081 138.833 737.081 130.289C737.081 121.923 737.615 115.693 738.682 111.599C739.573 107.505 741.442 105.459 744.289 105.459C763.335 105.459 777.397 104.391 786.475 102.255C785.051 96.2026 783.271 90.2397 781.135 84.3658C779.177 78.4919 778.02 74.932 777.664 73.686L820.383 63.8071ZM819.582 178.63C819.938 181.3 817.98 185.661 813.708 191.713C809.437 197.765 805.788 201.859 802.762 203.995C799.38 202.571 795.108 200.079 789.946 196.519C784.784 193.137 780.957 190.022 778.465 187.174C776.685 190.378 774.371 193.671 771.523 197.053C768.675 200.435 766.361 202.749 764.581 203.995C761.021 202.393 756.482 199.634 750.964 195.718C745.446 191.98 741.53 188.776 739.216 186.106C740.284 182.368 742.954 177.384 747.226 171.154C751.498 164.924 755.058 161.809 757.906 161.809C760.754 161.809 765.026 163.767 770.722 167.683C776.418 171.777 779.889 175.159 781.135 177.829C783.627 173.379 786.208 169.552 788.878 166.348C791.548 163.322 793.951 161.809 796.087 161.809C798.935 161.809 803.385 163.945 809.437 168.217C815.666 172.667 819.048 176.138 819.582 178.63Z" fill="white"/>
<path d="M898.609 105.459C901.457 105.459 903.326 107.505 904.216 111.599C905.284 115.693 905.818 121.923 905.818 130.289C905.818 138.833 905.284 145.152 904.216 149.246C903.148 153.162 901.279 155.12 898.609 155.12C888.819 155.12 879.296 154.497 870.04 153.251C860.963 152.005 853.309 150.047 847.079 147.377C845.477 140.969 844.142 112.044 843.074 60.6032L841.472 6.40297L884.458 4C886.06 30.5216 886.861 54.9073 886.861 77.1569C886.861 83.9208 886.683 92.9987 886.327 104.391C890.777 105.103 894.871 105.459 898.609 105.459Z" fill="white"/>
<path d="M977.143 52.8603C992.095 62.4721 1003.4 69.592 1011.05 74.22C1018.71 78.6699 1024.13 80.8949 1027.34 80.8949C1026.8 91.0407 1025.65 99.6736 1023.87 106.793C1022.27 113.735 1019.51 121.745 1015.59 130.823C1010.96 130.467 1007.58 130.289 1005.44 130.289C994.943 130.289 983.373 132.514 970.735 136.964C965.93 138.744 961.48 140.435 957.386 142.037C946.528 146.309 936.827 149.602 928.283 151.916C919.739 154.052 909.86 155.12 898.647 155.12C895.977 155.12 894.108 153.162 893.04 149.246C891.972 145.152 891.438 138.833 891.438 130.289C891.438 121.923 891.972 115.693 893.04 111.599C893.93 107.505 895.799 105.459 898.647 105.459C908.258 105.459 916.446 104.836 923.21 103.59C930.152 102.344 939.23 100.386 950.444 97.7156L957.119 96.1136L973.672 92.3757C966.909 88.6378 961.213 85.8788 956.585 84.0988C951.601 82.1409 946.261 80.8059 940.565 80.0939C934.869 79.2039 927.482 78.4919 918.404 77.9579L912.53 77.6909L911.462 76.6229C912.174 69.859 913.509 62.3831 915.467 54.1953C917.603 45.8294 919.65 39.6885 921.608 35.7725C925.346 35.2385 928.817 34.9715 932.021 34.9715C938.607 34.9715 944.748 36.0395 950.444 38.1755C956.14 40.1335 961.925 42.9814 967.799 46.7194L977.143 52.8603ZM970.201 196.922C966.464 195.498 961.569 192.65 955.517 188.378C949.465 184.284 945.282 180.724 942.968 177.698C943.502 175.384 944.837 172.18 946.973 168.086C949.287 164.17 951.868 160.521 954.716 157.14C957.564 153.936 960.056 152.156 962.192 151.8C964.15 151.444 967.087 152.334 971.003 154.47C975.096 156.606 978.834 159.186 982.216 162.212C985.776 165.416 987.734 167.908 988.09 169.688C988.802 172.358 986.755 176.986 981.949 183.572C977.321 190.336 973.405 194.786 970.201 196.922Z" fill="white"/>
<path d="M1230.04 57.9332C1226.48 56.3312 1221.94 53.6613 1216.42 49.9233C1210.9 46.0074 1206.99 42.7144 1204.67 40.0445C1205.74 36.3065 1208.41 31.3226 1212.68 25.0927C1216.95 18.8628 1220.51 15.7478 1223.36 15.7478C1226.21 15.7478 1230.48 17.7948 1236.18 21.8887C1241.87 25.8047 1245.34 29.0976 1246.59 31.7676C1249.08 27.3177 1251.66 23.5797 1254.33 20.5538C1257 17.3498 1259.41 15.7478 1261.54 15.7478C1264.39 15.7478 1268.84 17.9728 1274.89 22.4227C1281.12 26.6947 1284.5 30.0766 1285.04 32.5686C1285.39 35.2385 1283.44 39.5995 1279.16 45.6514C1274.89 51.7033 1271.24 55.7972 1268.22 57.9332C1264.84 56.5092 1260.56 54.1063 1255.4 50.7243C1250.24 47.1644 1246.41 43.9604 1243.92 41.1125C1242.14 44.3164 1239.83 47.6094 1236.98 50.9913C1234.13 54.3733 1231.82 56.6872 1230.04 57.9332ZM1162.75 76.6229C1159.02 75.199 1154.12 72.44 1148.07 68.3461C1142.02 64.0741 1137.83 60.4252 1135.52 57.3992C1136.05 55.0852 1137.39 51.9703 1139.53 48.0544C1141.84 43.9604 1144.42 40.3115 1147.27 37.1075C1150.12 33.7256 1152.61 31.8566 1154.74 31.5006C1156.7 31.1446 1159.64 32.0346 1163.55 34.1706C1167.65 36.3065 1171.39 38.9765 1174.77 42.1804C1178.33 45.2064 1180.29 47.6094 1180.64 49.3893C1181.35 52.0593 1179.31 56.7762 1174.5 63.5401C1169.87 70.126 1165.96 74.487 1162.75 76.6229ZM1334.17 105.459C1337.01 105.459 1338.88 107.505 1339.77 111.599C1340.84 115.693 1341.37 121.923 1341.37 130.289C1341.37 138.833 1340.84 145.152 1339.77 149.246C1338.7 153.162 1336.84 155.12 1334.17 155.12C1315.48 155.12 1302.48 144.885 1295.18 124.415C1288.78 126.551 1281.03 128.509 1271.95 130.289C1262.88 131.891 1253.62 133.048 1244.19 133.76C1244.37 136.074 1244.45 139.812 1244.45 144.974C1244.45 157.434 1243.12 169.271 1240.45 180.484C1237.96 191.876 1233.69 201.755 1227.63 210.121C1202.36 217.597 1180.29 221.335 1161.42 221.335C1135.79 221.335 1116.65 215.995 1104.01 205.315C1091.55 194.813 1085.32 179.861 1085.32 160.46C1085.32 141.058 1091.55 117.651 1104.01 90.2397L1141.13 102.255C1134.54 119.698 1131.25 133.849 1131.25 144.707C1131.25 154.141 1133.83 161.083 1138.99 165.533C1144.15 169.983 1151.9 172.208 1162.22 172.208C1172.72 172.208 1185.8 170.072 1201.47 165.8C1201.47 152.628 1200.04 131.357 1197.2 101.988C1196.84 99.8516 1196.48 96.4696 1196.13 91.8417L1198.8 87.8368C1205.56 88.1928 1211.35 88.3708 1216.15 88.3708C1245.17 88.3708 1273.82 84.0988 1302.13 75.5549C1306.4 87.1248 1310.94 95.0457 1315.74 99.3176C1320.55 103.412 1326.69 105.459 1334.17 105.459Z" fill="white"/>
<path d="M1410.17 63.8071C1413.56 74.487 1415.25 86.0568 1415.25 98.5166C1415.25 107.95 1414.27 117.028 1412.31 125.75C1410.35 134.472 1407.59 141.681 1404.03 147.377C1396.56 149.513 1386.68 151.382 1374.4 152.984C1362.11 154.408 1348.68 155.12 1334.08 155.12C1331.41 155.12 1329.54 153.162 1328.47 149.246C1327.4 145.152 1326.87 138.833 1326.87 130.289C1326.87 121.923 1327.4 115.693 1328.47 111.599C1329.36 107.505 1331.23 105.459 1334.08 105.459C1353.13 105.459 1367.19 104.391 1376.26 102.255C1374.84 96.2026 1373.06 90.2397 1370.92 84.3658C1368.97 78.4919 1367.81 74.932 1367.45 73.686L1410.17 63.8071ZM1409.37 179.63C1409.73 182.3 1407.77 186.661 1403.5 192.713C1399.23 198.765 1395.58 202.859 1392.55 204.995C1389.17 203.571 1384.9 201.079 1379.74 197.519C1374.57 194.137 1370.75 191.022 1368.25 188.174C1366.47 191.378 1364.16 194.671 1361.31 198.053C1358.47 201.435 1356.15 203.749 1354.37 204.995C1350.81 203.393 1346.27 200.634 1340.75 196.718C1335.24 192.98 1331.32 189.776 1329.01 187.106C1330.07 183.368 1332.74 178.384 1337.02 172.154C1341.29 165.924 1344.85 162.809 1347.7 162.809C1350.54 162.809 1354.82 164.767 1360.51 168.683C1366.21 172.777 1369.68 176.159 1370.92 178.829C1373.42 174.379 1376 170.552 1378.67 167.348C1381.34 164.322 1383.74 162.809 1385.88 162.809C1388.72 162.809 1393.17 164.945 1399.23 169.217C1405.46 173.667 1408.84 177.138 1409.37 179.63Z" fill="white"/>
<path d="M1550.88 63.8071C1554.08 73.953 1555.68 85.6118 1555.68 98.7836C1555.68 108.395 1554.7 117.473 1552.75 126.017C1550.97 134.561 1548.3 141.681 1544.74 147.377C1537.26 149.869 1528.63 151.827 1518.84 153.251C1509.05 154.497 1499.08 155.12 1488.93 155.12C1478.97 155.12 1469.35 154.497 1460.1 153.251C1451.02 151.827 1443.28 149.869 1436.87 147.377C1435.27 140.969 1433.93 112.044 1432.86 60.6032L1431.26 6.40297L1474.25 4C1475.85 30.3436 1476.65 54.5513 1476.65 76.6229C1476.65 83.3868 1476.47 92.4647 1476.12 103.857C1483.77 104.925 1491.43 105.459 1499.08 105.459C1506.2 105.459 1512.25 104.747 1517.23 103.323C1515.63 96.7366 1512.52 86.8578 1507.89 73.686L1550.88 63.8071ZM1508.96 56.0642C1505.4 54.4623 1500.86 51.7923 1495.34 48.0544C1489.82 44.1384 1485.91 40.8455 1483.59 38.1755C1484.66 34.4376 1487.33 29.4536 1491.6 23.2237C1495.88 16.9938 1499.43 13.8789 1502.28 13.8789C1505.13 13.8789 1509.4 15.9258 1515.1 20.0198C1520.79 23.9357 1524.27 27.2287 1525.51 29.8986C1528 25.4487 1530.58 21.7107 1533.25 18.6848C1535.92 15.4808 1538.33 13.8789 1540.46 13.8789C1543.31 13.8789 1547.76 16.1038 1553.81 20.5538C1560.04 24.8257 1563.42 28.2076 1563.96 30.6996C1564.31 33.3696 1562.36 37.7305 1558.09 43.7824C1553.81 49.8343 1550.16 53.9283 1547.14 56.0642C1543.76 54.6403 1539.48 52.2373 1534.32 48.8553C1529.16 45.2954 1525.33 42.0914 1522.84 39.2435C1521.06 42.4474 1518.75 45.7404 1515.9 49.1223C1513.05 52.5043 1510.74 54.8183 1508.96 56.0642Z" fill="white"/>
<path d="M152.251 67.2781C157.591 89.7057 160.261 109.997 160.261 128.153C160.261 154.319 154.565 175.411 143.173 191.431C118.253 198.907 96.1816 202.645 76.9579 202.645C51.8603 202.645 33.2596 197.394 21.1557 186.892C9.05191 176.568 3 161.617 3 142.037C3 122.991 8.60692 99.4956 19.8208 71.55L56.6662 83.5648C50.0803 101.899 46.7873 116.049 46.7873 126.017C46.7873 135.095 49.2793 141.948 54.2632 146.576C59.4252 151.026 67.346 153.251 78.0259 153.251C82.6538 153.251 88.3497 152.806 95.1136 151.916C102.056 151.026 109.086 149.691 116.206 147.911C115.672 135.273 114.782 123.97 113.536 114.002C112.468 104.035 110.955 91.4857 108.997 76.3559L152.251 67.2781ZM87.1038 57.6662C83.3658 56.2422 78.4709 53.4833 72.419 49.3893C66.3671 45.1174 62.1841 41.4685 59.8702 38.4425C60.4042 36.1285 61.7391 33.0136 63.8751 29.0976C66.1891 25.0037 68.77 21.3547 71.618 18.1508C74.4659 14.7689 76.9579 12.8999 79.0939 12.5439C81.0518 12.1879 83.9888 13.0779 87.9047 15.2138C91.9987 17.3498 95.7366 20.0198 99.1186 23.2237C102.679 26.2497 104.636 28.6526 104.992 30.4326C105.704 33.1026 103.658 37.8195 98.8516 44.5834C94.2236 51.1693 90.3077 55.5303 87.1038 57.6662Z" stroke="url(#paint0_linear_150_799)" stroke-width="6" mask="url(#path-1-outside-1_150_799)"/>
<path d="M178.197 154.586C179.087 140.346 179.532 125.572 179.532 110.264C179.532 81.6069 178.464 46.9864 176.328 6.40297L219.582 4C221.896 38.1755 223.053 70.571 223.053 101.187C223.053 120.588 222.697 136.341 221.985 148.445C218.247 150.581 212.284 152.361 204.096 153.785C195.908 155.031 187.809 155.743 179.799 155.921L178.197 154.586Z" stroke="url(#paint1_linear_150_799)" stroke-width="6" mask="url(#path-1-outside-1_150_799)"/>
<path d="M382.376 105.459C385.224 105.459 387.093 107.505 387.983 111.599C389.051 115.693 389.585 121.923 389.585 130.289C389.585 138.833 389.051 145.152 387.983 149.246C386.915 153.162 385.046 155.12 382.376 155.12C374.366 155.12 366.624 152.628 359.148 147.644C351.672 142.482 346.065 135.006 342.327 125.216C325.773 131.09 309.486 134.027 293.467 134.027C289.907 146.843 285.368 159.748 279.85 172.742C274.51 185.913 269.348 197.216 264.364 206.65C259.558 216.084 256.532 221.691 255.286 223.471C249.234 221.157 242.025 217.152 233.66 211.456C225.294 205.938 219.064 200.865 214.97 196.237C227.608 176.835 238.02 158.947 246.208 142.571C254.574 126.195 261.783 108.039 267.835 88.1038C273.175 88.4598 277.269 88.6377 280.117 88.6377C302.189 88.6377 325.595 84.2768 350.337 75.5549C353.363 84.9888 357.635 92.3757 363.153 97.7156C368.671 102.878 375.078 105.459 382.376 105.459ZM348.201 154.732C351.049 154.732 355.499 156.868 361.551 161.14C367.781 165.589 371.163 169.06 371.697 171.552C372.053 174.222 370.095 178.583 365.823 184.635C361.551 190.687 357.902 194.781 354.876 196.917C351.494 195.493 347.222 193.001 342.06 189.441C336.898 186.059 333.071 182.944 330.579 180.096C328.799 183.3 326.485 186.593 323.637 189.975C320.789 193.357 318.475 195.671 316.695 196.917C313.135 195.315 308.596 192.556 303.079 188.64C297.561 184.902 293.645 181.698 291.331 179.028C292.399 175.29 295.069 170.306 299.341 164.076C303.613 157.847 307.172 154.732 310.02 154.732C312.868 154.732 317.14 156.69 322.836 160.606C328.532 164.699 332.003 168.081 333.249 170.751C335.741 166.301 338.322 162.475 340.992 159.271C343.662 156.245 346.065 154.732 348.201 154.732Z" stroke="url(#paint2_linear_150_799)" stroke-width="6" mask="url(#path-1-outside-1_150_799)"/>
<path d="M458.479 48.8553C459.903 48.6773 461.949 48.5883 464.619 48.5883C479.037 48.5883 490.696 53.7503 499.596 64.0741C508.496 74.398 512.946 88.9937 512.946 107.861C512.946 111.777 511.7 117.562 509.208 125.216C506.716 132.87 503.69 139.278 500.13 144.44C486.958 148.712 472.451 151.56 456.61 152.984C440.946 154.408 423.591 155.12 404.545 155.12H382.385C379.715 155.12 377.846 153.162 376.778 149.246C375.71 145.152 375.176 138.833 375.176 130.289C375.176 121.923 375.71 115.693 376.778 111.599C377.668 107.505 379.537 105.459 382.385 105.459H391.196C393.332 99.7626 394.844 92.3757 395.734 83.2978C396.624 74.22 397.069 62.2941 397.069 47.5204C397.069 41.8244 396.891 30.2546 396.535 12.8109V6.40297L439.522 4C439.522 26.7837 438.543 45.2064 436.585 59.2682C444.773 53.0383 452.071 49.5673 458.479 48.8553ZM417.895 108.662C424.481 109.196 432.224 109.463 441.124 109.463C451.804 109.463 461.06 109.018 468.891 108.128C476.901 107.238 481.44 105.815 482.508 103.857C481.44 101.009 479.037 98.7836 475.299 97.1816C471.561 95.4017 467.2 94.5117 462.217 94.5117C455.453 94.5117 448.155 95.7577 440.323 98.2496C432.491 100.564 425.015 104.035 417.895 108.662Z" stroke="url(#paint3_linear_150_799)" stroke-width="6" mask="url(#path-1-outside-1_150_799)"/>
<path d="M744.417 105.459C747.265 105.459 749.134 107.505 750.024 111.599C751.092 115.693 751.626 121.923 751.626 130.289C751.626 138.833 751.092 145.152 750.024 149.246C748.956 153.162 747.087 155.12 744.417 155.12C735.695 155.12 727.863 152.895 720.921 148.445C713.267 150.759 703.121 152.717 690.483 154.319C677.846 155.921 664.051 156.722 649.099 156.722C622.577 156.722 595.878 153.963 569 148.445C570.958 131.001 574.607 114.803 579.947 99.8516C592.051 101.632 605.846 103.234 621.332 104.658C636.817 105.903 651.502 106.526 665.386 106.526C674.82 106.526 684.254 106.081 693.687 105.192C693.331 94.3337 692.442 81.5179 691.018 66.7441C689.772 51.7923 688.437 37.0185 687.013 22.4227L685.411 6.40297L728.397 4C730.711 38.1755 731.868 68.524 731.868 95.0457C732.046 96.1136 732.135 97.8046 732.135 100.119C732.135 102.433 732.046 104.213 731.868 105.459H744.417ZM665.386 87.3028C658.8 87.1248 650.612 87.4808 640.822 88.3708C631.21 89.2607 622.578 90.4177 614.924 91.8417C614.212 90.5957 613.678 88.7268 613.322 86.2348C612.966 83.7428 612.788 81.1619 612.788 78.4919C612.788 74.576 613.144 71.906 613.856 70.482C618.84 68.702 623.556 67.2781 628.006 66.2101C623.734 60.8702 621.599 55.4412 621.599 49.9233C621.599 45.4734 623.022 41.2015 625.87 37.1075C628.896 33.0136 632.634 29.7206 637.084 27.2287C641.712 24.7367 646.162 23.4907 650.434 23.4907C654.172 23.4907 657.287 24.3807 659.779 26.1607C664.229 28.8306 666.454 33.0136 666.454 38.7095C666.454 43.1594 665.03 47.2534 662.182 50.9913C657.554 48.6773 653.282 47.5204 649.366 47.5204C646.874 47.5204 644.827 47.9654 643.225 48.8553C641.623 49.7453 640.733 51.0803 640.555 52.8603C640.199 55.8862 641.267 59.3572 643.759 63.2731C652.125 62.0271 659.245 61.4042 665.119 61.4042C667.433 61.4042 670.548 61.5822 674.464 61.9382L675.265 63.5401C674.731 66.5661 673.307 70.838 670.993 76.3559C668.679 81.8739 666.81 85.5228 665.386 87.3028Z" stroke="url(#paint4_linear_150_799)" stroke-width="6" mask="url(#path-1-outside-1_150_799)"/>
<path d="M820.383 63.8071C823.765 74.487 825.456 86.0568 825.456 98.5166C825.456 107.95 824.477 117.028 822.519 125.75C820.561 134.472 817.802 141.681 814.242 147.377C806.767 149.513 796.888 151.382 784.606 152.984C772.324 154.408 758.885 155.12 744.289 155.12C741.62 155.12 739.75 153.162 738.682 149.246C737.615 145.152 737.081 138.833 737.081 130.289C737.081 121.923 737.615 115.693 738.682 111.599C739.573 107.505 741.442 105.459 744.289 105.459C763.335 105.459 777.397 104.391 786.475 102.255C785.051 96.2026 783.271 90.2397 781.135 84.3658C779.177 78.4919 778.02 74.932 777.664 73.686L820.383 63.8071ZM819.582 178.63C819.938 181.3 817.98 185.661 813.708 191.713C809.437 197.765 805.788 201.859 802.762 203.995C799.38 202.571 795.108 200.079 789.946 196.519C784.784 193.137 780.957 190.022 778.465 187.174C776.685 190.378 774.371 193.671 771.523 197.053C768.675 200.435 766.361 202.749 764.581 203.995C761.021 202.393 756.482 199.634 750.964 195.718C745.446 191.98 741.53 188.776 739.216 186.106C740.284 182.368 742.954 177.384 747.226 171.154C751.498 164.924 755.058 161.809 757.906 161.809C760.754 161.809 765.026 163.767 770.722 167.683C776.418 171.777 779.889 175.159 781.135 177.829C783.627 173.379 786.208 169.552 788.878 166.348C791.548 163.322 793.951 161.809 796.087 161.809C798.935 161.809 803.385 163.945 809.437 168.217C815.666 172.667 819.048 176.138 819.582 178.63Z" stroke="url(#paint5_linear_150_799)" stroke-width="6" mask="url(#path-1-outside-1_150_799)"/>
<path d="M898.609 105.459C901.457 105.459 903.326 107.505 904.216 111.599C905.284 115.693 905.818 121.923 905.818 130.289C905.818 138.833 905.284 145.152 904.216 149.246C903.148 153.162 901.279 155.12 898.609 155.12C888.819 155.12 879.296 154.497 870.04 153.251C860.963 152.005 853.309 150.047 847.079 147.377C845.477 140.969 844.142 112.044 843.074 60.6032L841.472 6.40297L884.458 4C886.06 30.5216 886.861 54.9073 886.861 77.1569C886.861 83.9208 886.683 92.9987 886.327 104.391C890.777 105.103 894.871 105.459 898.609 105.459Z" stroke="url(#paint6_linear_150_799)" stroke-width="6" mask="url(#path-1-outside-1_150_799)"/>
<path d="M977.143 52.8603C992.095 62.4721 1003.4 69.592 1011.05 74.22C1018.71 78.6699 1024.13 80.8949 1027.34 80.8949C1026.8 91.0407 1025.65 99.6736 1023.87 106.793C1022.27 113.735 1019.51 121.745 1015.59 130.823C1010.96 130.467 1007.58 130.289 1005.44 130.289C994.943 130.289 983.373 132.514 970.735 136.964C965.93 138.744 961.48 140.435 957.386 142.037C946.528 146.309 936.827 149.602 928.283 151.916C919.739 154.052 909.86 155.12 898.647 155.12C895.977 155.12 894.108 153.162 893.04 149.246C891.972 145.152 891.438 138.833 891.438 130.289C891.438 121.923 891.972 115.693 893.04 111.599C893.93 107.505 895.799 105.459 898.647 105.459C908.258 105.459 916.446 104.836 923.21 103.59C930.152 102.344 939.23 100.386 950.444 97.7156L957.119 96.1136L973.672 92.3757C966.909 88.6378 961.213 85.8788 956.585 84.0988C951.601 82.1409 946.261 80.8059 940.565 80.0939C934.869 79.2039 927.482 78.4919 918.404 77.9579L912.53 77.6909L911.462 76.6229C912.174 69.859 913.509 62.3831 915.467 54.1953C917.603 45.8294 919.65 39.6885 921.608 35.7725C925.346 35.2385 928.817 34.9715 932.021 34.9715C938.607 34.9715 944.748 36.0395 950.444 38.1755C956.14 40.1335 961.925 42.9814 967.799 46.7194L977.143 52.8603ZM970.201 196.922C966.464 195.498 961.569 192.65 955.517 188.378C949.465 184.284 945.282 180.724 942.968 177.698C943.502 175.384 944.837 172.18 946.973 168.086C949.287 164.17 951.868 160.521 954.716 157.14C957.564 153.936 960.056 152.156 962.192 151.8C964.15 151.444 967.087 152.334 971.003 154.47C975.096 156.606 978.834 159.186 982.216 162.212C985.776 165.416 987.734 167.908 988.09 169.688C988.802 172.358 986.755 176.986 981.949 183.572C977.321 190.336 973.405 194.786 970.201 196.922Z" stroke="url(#paint7_linear_150_799)" stroke-width="6" mask="url(#path-1-outside-1_150_799)"/>
<path d="M1230.04 57.9332C1226.48 56.3312 1221.94 53.6613 1216.42 49.9233C1210.9 46.0074 1206.99 42.7144 1204.67 40.0445C1205.74 36.3065 1208.41 31.3226 1212.68 25.0927C1216.95 18.8628 1220.51 15.7478 1223.36 15.7478C1226.21 15.7478 1230.48 17.7948 1236.18 21.8887C1241.87 25.8047 1245.34 29.0976 1246.59 31.7676C1249.08 27.3177 1251.66 23.5797 1254.33 20.5538C1257 17.3498 1259.41 15.7478 1261.54 15.7478C1264.39 15.7478 1268.84 17.9728 1274.89 22.4227C1281.12 26.6947 1284.5 30.0766 1285.04 32.5686C1285.39 35.2385 1283.44 39.5995 1279.16 45.6514C1274.89 51.7033 1271.24 55.7972 1268.22 57.9332C1264.84 56.5092 1260.56 54.1063 1255.4 50.7243C1250.24 47.1644 1246.41 43.9604 1243.92 41.1125C1242.14 44.3164 1239.83 47.6094 1236.98 50.9913C1234.13 54.3733 1231.82 56.6872 1230.04 57.9332ZM1162.75 76.6229C1159.02 75.199 1154.12 72.44 1148.07 68.3461C1142.02 64.0741 1137.83 60.4252 1135.52 57.3992C1136.05 55.0852 1137.39 51.9703 1139.53 48.0544C1141.84 43.9604 1144.42 40.3115 1147.27 37.1075C1150.12 33.7256 1152.61 31.8566 1154.74 31.5006C1156.7 31.1446 1159.64 32.0346 1163.55 34.1706C1167.65 36.3065 1171.39 38.9765 1174.77 42.1804C1178.33 45.2064 1180.29 47.6094 1180.64 49.3893C1181.35 52.0593 1179.31 56.7762 1174.5 63.5401C1169.87 70.126 1165.96 74.487 1162.75 76.6229ZM1334.17 105.459C1337.01 105.459 1338.88 107.505 1339.77 111.599C1340.84 115.693 1341.37 121.923 1341.37 130.289C1341.37 138.833 1340.84 145.152 1339.77 149.246C1338.7 153.162 1336.84 155.12 1334.17 155.12C1315.48 155.12 1302.48 144.885 1295.18 124.415C1288.78 126.551 1281.03 128.509 1271.95 130.289C1262.88 131.891 1253.62 133.048 1244.19 133.76C1244.37 136.074 1244.45 139.812 1244.45 144.974C1244.45 157.434 1243.12 169.271 1240.45 180.484C1237.96 191.876 1233.69 201.755 1227.63 210.121C1202.36 217.597 1180.29 221.335 1161.42 221.335C1135.79 221.335 1116.65 215.995 1104.01 205.315C1091.55 194.813 1085.32 179.861 1085.32 160.46C1085.32 141.058 1091.55 117.651 1104.01 90.2397L1141.13 102.255C1134.54 119.698 1131.25 133.849 1131.25 144.707C1131.25 154.141 1133.83 161.083 1138.99 165.533C1144.15 169.983 1151.9 172.208 1162.22 172.208C1172.72 172.208 1185.8 170.072 1201.47 165.8C1201.47 152.628 1200.04 131.357 1197.2 101.988C1196.84 99.8516 1196.48 96.4696 1196.13 91.8417L1198.8 87.8368C1205.56 88.1928 1211.35 88.3708 1216.15 88.3708C1245.17 88.3708 1273.82 84.0988 1302.13 75.5549C1306.4 87.1248 1310.94 95.0457 1315.74 99.3176C1320.55 103.412 1326.69 105.459 1334.17 105.459Z" stroke="url(#paint8_linear_150_799)" stroke-width="6" mask="url(#path-1-outside-1_150_799)"/>
<path d="M1410.17 63.8071C1413.56 74.487 1415.25 86.0568 1415.25 98.5166C1415.25 107.95 1414.27 117.028 1412.31 125.75C1410.35 134.472 1407.59 141.681 1404.03 147.377C1396.56 149.513 1386.68 151.382 1374.4 152.984C1362.11 154.408 1348.68 155.12 1334.08 155.12C1331.41 155.12 1329.54 153.162 1328.47 149.246C1327.4 145.152 1326.87 138.833 1326.87 130.289C1326.87 121.923 1327.4 115.693 1328.47 111.599C1329.36 107.505 1331.23 105.459 1334.08 105.459C1353.13 105.459 1367.19 104.391 1376.26 102.255C1374.84 96.2026 1373.06 90.2397 1370.92 84.3658C1368.97 78.4919 1367.81 74.932 1367.45 73.686L1410.17 63.8071ZM1409.37 179.63C1409.73 182.3 1407.77 186.661 1403.5 192.713C1399.23 198.765 1395.58 202.859 1392.55 204.995C1389.17 203.571 1384.9 201.079 1379.74 197.519C1374.57 194.137 1370.75 191.022 1368.25 188.174C1366.47 191.378 1364.16 194.671 1361.31 198.053C1358.47 201.435 1356.15 203.749 1354.37 204.995C1350.81 203.393 1346.27 200.634 1340.75 196.718C1335.24 192.98 1331.32 189.776 1329.01 187.106C1330.07 183.368 1332.74 178.384 1337.02 172.154C1341.29 165.924 1344.85 162.809 1347.7 162.809C1350.54 162.809 1354.82 164.767 1360.51 168.683C1366.21 172.777 1369.68 176.159 1370.92 178.829C1373.42 174.379 1376 170.552 1378.67 167.348C1381.34 164.322 1383.74 162.809 1385.88 162.809C1388.72 162.809 1393.17 164.945 1399.23 169.217C1405.46 173.667 1408.84 177.138 1409.37 179.63Z" stroke="url(#paint9_linear_150_799)" stroke-width="6" mask="url(#path-1-outside-1_150_799)"/>
<path d="M1550.88 63.8071C1554.08 73.953 1555.68 85.6118 1555.68 98.7836C1555.68 108.395 1554.7 117.473 1552.75 126.017C1550.97 134.561 1548.3 141.681 1544.74 147.377C1537.26 149.869 1528.63 151.827 1518.84 153.251C1509.05 154.497 1499.08 155.12 1488.93 155.12C1478.97 155.12 1469.35 154.497 1460.1 153.251C1451.02 151.827 1443.28 149.869 1436.87 147.377C1435.27 140.969 1433.93 112.044 1432.86 60.6032L1431.26 6.40297L1474.25 4C1475.85 30.3436 1476.65 54.5513 1476.65 76.6229C1476.65 83.3868 1476.47 92.4647 1476.12 103.857C1483.77 104.925 1491.43 105.459 1499.08 105.459C1506.2 105.459 1512.25 104.747 1517.23 103.323C1515.63 96.7366 1512.52 86.8578 1507.89 73.686L1550.88 63.8071ZM1508.96 56.0642C1505.4 54.4623 1500.86 51.7923 1495.34 48.0544C1489.82 44.1384 1485.91 40.8455 1483.59 38.1755C1484.66 34.4376 1487.33 29.4536 1491.6 23.2237C1495.88 16.9938 1499.43 13.8789 1502.28 13.8789C1505.13 13.8789 1509.4 15.9258 1515.1 20.0198C1520.79 23.9357 1524.27 27.2287 1525.51 29.8986C1528 25.4487 1530.58 21.7107 1533.25 18.6848C1535.92 15.4808 1538.33 13.8789 1540.46 13.8789C1543.31 13.8789 1547.76 16.1038 1553.81 20.5538C1560.04 24.8257 1563.42 28.2076 1563.96 30.6996C1564.31 33.3696 1562.36 37.7305 1558.09 43.7824C1553.81 49.8343 1550.16 53.9283 1547.14 56.0642C1543.76 54.6403 1539.48 52.2373 1534.32 48.8553C1529.16 45.2954 1525.33 42.0914 1522.84 39.2435C1521.06 42.4474 1518.75 45.7404 1515.9 49.1223C1513.05 52.5043 1510.74 54.8183 1508.96 56.0642Z" stroke="url(#paint10_linear_150_799)" stroke-width="6" mask="url(#path-1-outside-1_150_799)"/>
</g>
<defs>
<linearGradient id="paint0_linear_150_799" x1="784" y1="4" x2="784" y2="57" gradientUnits="userSpaceOnUse">
<stop stop-color="#EE5D33"/>
<stop offset="1" stop-color="#EE5D33" stop-opacity="0"/>
</linearGradient>
<linearGradient id="paint1_linear_150_799" x1="784" y1="4" x2="784" y2="57" gradientUnits="userSpaceOnUse">
<stop stop-color="#EE5D33"/>
<stop offset="1" stop-color="#EE5D33" stop-opacity="0"/>
</linearGradient>
<linearGradient id="paint2_linear_150_799" x1="784" y1="4" x2="784" y2="57" gradientUnits="userSpaceOnUse">
<stop stop-color="#EE5D33"/>
<stop offset="1" stop-color="#EE5D33" stop-opacity="0"/>
</linearGradient>
<linearGradient id="paint3_linear_150_799" x1="784" y1="4" x2="784" y2="57" gradientUnits="userSpaceOnUse">
<stop stop-color="#EE5D33"/>
<stop offset="1" stop-color="#EE5D33" stop-opacity="0"/>
</linearGradient>
<linearGradient id="paint4_linear_150_799" x1="784" y1="4" x2="784" y2="57" gradientUnits="userSpaceOnUse">
<stop stop-color="#EE5D33"/>
<stop offset="1" stop-color="#EE5D33" stop-opacity="0"/>
</linearGradient>
<linearGradient id="paint5_linear_150_799" x1="784" y1="4" x2="784" y2="57" gradientUnits="userSpaceOnUse">
<stop stop-color="#EE5D33"/>
<stop offset="1" stop-color="#EE5D33" stop-opacity="0"/>
</linearGradient>
<linearGradient id="paint6_linear_150_799" x1="784" y1="4" x2="784" y2="57" gradientUnits="userSpaceOnUse">
<stop stop-color="#EE5D33"/>
<stop offset="1" stop-color="#EE5D33" stop-opacity="0"/>
</linearGradient>
<linearGradient id="paint7_linear_150_799" x1="784" y1="4" x2="784" y2="57" gradientUnits="userSpaceOnUse">
<stop stop-color="#EE5D33"/>
<stop offset="1" stop-color="#EE5D33" stop-opacity="0"/>
</linearGradient>
<linearGradient id="paint8_linear_150_799" x1="784" y1="4" x2="784" y2="57" gradientUnits="userSpaceOnUse">
<stop stop-color="#EE5D33"/>
<stop offset="1" stop-color="#EE5D33" stop-opacity="0"/>
</linearGradient>
<linearGradient id="paint9_linear_150_799" x1="784" y1="4" x2="784" y2="57" gradientUnits="userSpaceOnUse">
<stop stop-color="#EE5D33"/>
<stop offset="1" stop-color="#EE5D33" stop-opacity="0"/>
</linearGradient>
<linearGradient id="paint10_linear_150_799" x1="784" y1="4" x2="784" y2="57" gradientUnits="userSpaceOnUse">
<stop stop-color="#EE5D33"/>
<stop offset="1" stop-color="#EE5D33" stop-opacity="0"/>
</linearGradient>
</defs>
</svg>
