<svg width="955" height="664" viewBox="0 0 955 664" fill="none" xmlns="http://www.w3.org/2000/svg">
<path opacity="0.11" d="M954.543 475.94C954.543 738.795 740.964 951.88 477.5 951.88C214.036 951.88 0.456818 738.795 0.456818 475.94C0.456818 213.086 214.036 0 477.5 0C740.964 0 954.543 213.086 954.543 475.94ZM219.579 475.94C219.579 618.057 335.054 733.265 477.5 733.265C619.946 733.265 735.421 618.057 735.421 475.94C735.421 333.824 619.946 218.616 477.5 218.616C335.054 218.616 219.579 333.824 219.579 475.94Z" fill="url(#paint0_linear_2003_149)"/>
<path opacity="0.1" d="M526.601 430.512V777.608H430.178C445.108 645.135 459.981 513.245 475.192 378.277C428.854 392.306 385.164 405.503 340.178 419.144V326.485H615.925V417.73C586.573 421.945 557.446 426.103 526.601 430.512Z" fill="#FEF8ED" fill-opacity="0.83"/>
<defs>
<linearGradient id="paint0_linear_2003_149" x1="477.5" y1="0" x2="477.5" y2="951.88" gradientUnits="userSpaceOnUse">
<stop stop-color="white" stop-opacity="0.7"/>
<stop offset="0.636" stop-color="white" stop-opacity="0.3"/>
</linearGradient>
</defs>
</svg>
