<svg width="1561" height="171" viewBox="0 0 1561 171" fill="none" xmlns="http://www.w3.org/2000/svg">
<g opacity="0.9">
<mask id="path-1-outside-1_150_799" maskUnits="userSpaceOnUse" x="-3" y="0" width="1567" height="228" fill="black">
<rect fill="white" x="-3" width="1567" height="228"/>
<path d="M149.251 67.2781C154.591 89.7057 157.261 109.997 157.261 128.153C157.261 154.319 151.565 175.411 140.173 191.431C115.253 198.907 93.1816 202.645 73.9579 202.645C48.8603 202.645 30.2596 197.394 18.1557 186.892C6.05191 176.568 0 161.617 0 142.037C0 122.991 5.60692 99.4956 16.8208 71.55L53.6662 83.5648C47.0803 101.899 43.7873 116.049 43.7873 126.017C43.7873 135.095 46.2793 141.948 51.2632 146.576C56.4252 151.026 64.346 153.251 75.0259 153.251C79.6538 153.251 85.3497 152.806 92.1136 151.916C99.0555 151.026 106.086 149.691 113.206 147.911C112.672 135.273 111.782 123.97 110.536 114.002C109.468 104.035 107.955 91.4857 105.997 76.3559L149.251 67.2781ZM84.1038 57.6662C80.3658 56.2422 75.4709 53.4833 69.419 49.3893C63.3671 45.1174 59.1841 41.4685 56.8702 38.4425C57.4042 36.1285 58.7391 33.0136 60.8751 29.0976C63.1891 25.0037 65.77 21.3547 68.618 18.1508C71.4659 14.7689 73.9579 12.8999 76.0939 12.5439C78.0518 12.1879 80.9888 13.0779 84.9047 15.2138C88.9987 17.3498 92.7366 20.0198 96.1186 23.2237C99.6785 26.2497 101.636 28.6526 101.992 30.4326C102.704 33.1026 100.658 37.8195 95.8516 44.5834C91.2236 51.1693 87.3077 55.5303 84.1038 57.6662Z"/>
<path d="M175.197 154.586C176.087 140.346 176.532 125.572 176.532 110.264C176.532 81.6069 175.464 46.9864 173.328 6.40297L216.582 4C218.896 38.1755 220.053 70.571 220.053 101.187C220.053 120.588 219.697 136.341 218.985 148.445C215.247 150.581 209.284 152.361 201.096 153.785C192.908 155.031 184.809 155.743 176.799 155.921L175.197 154.586Z"/>
<path d="M379.376 105.459C382.224 105.459 384.093 107.505 384.983 111.599C386.051 115.693 386.585 121.923 386.585 130.289C386.585 138.833 386.051 145.152 384.983 149.246C383.915 153.162 382.046 155.12 379.376 155.12C371.366 155.12 363.624 152.628 356.148 147.644C348.672 142.482 343.065 135.006 339.327 125.216C322.773 131.09 306.486 134.027 290.467 134.027C286.907 146.843 282.368 159.748 276.85 172.742C271.51 185.913 266.348 197.216 261.364 206.65C256.558 216.084 253.532 221.691 252.286 223.471C246.234 221.157 239.025 217.152 230.66 211.456C222.294 205.938 216.064 200.865 211.97 196.237C224.608 176.835 235.02 158.947 243.208 142.571C251.574 126.195 258.783 108.039 264.835 88.1038C270.175 88.4598 274.269 88.6377 277.117 88.6377C299.189 88.6377 322.595 84.2768 347.337 75.5549C350.363 84.9888 354.635 92.3757 360.153 97.7156C365.671 102.878 372.078 105.459 379.376 105.459ZM345.201 154.732C348.049 154.732 352.499 156.868 358.551 161.14C364.781 165.589 368.163 169.06 368.697 171.552C369.053 174.222 367.095 178.583 362.823 184.635C358.551 190.687 354.902 194.781 351.876 196.917C348.494 195.493 344.222 193.001 339.06 189.441C333.898 186.059 330.071 182.944 327.579 180.096C325.799 183.3 323.485 186.593 320.637 189.975C317.789 193.357 315.475 195.671 313.695 196.917C310.135 195.315 305.596 192.556 300.079 188.64C294.561 184.902 290.645 181.698 288.331 179.028C289.399 175.29 292.069 170.306 296.341 164.076C300.613 157.847 304.172 154.732 307.02 154.732C309.868 154.732 314.14 156.69 319.836 160.606C325.532 164.699 329.003 168.081 330.249 170.751C332.741 166.301 335.322 162.475 337.992 159.271C340.662 156.245 343.065 154.732 345.201 154.732Z"/>
<path d="M455.479 48.8553C456.903 48.6773 458.949 48.5883 461.619 48.5883C476.037 48.5883 487.696 53.7503 496.596 64.0741C505.496 74.398 509.946 88.9937 509.946 107.861C509.946 111.777 508.7 117.562 506.208 125.216C503.716 132.87 500.69 139.278 497.13 144.44C483.958 148.712 469.451 151.56 453.61 152.984C437.946 154.408 420.591 155.12 401.545 155.12H379.385C376.715 155.12 374.846 153.162 373.778 149.246C372.71 145.152 372.176 138.833 372.176 130.289C372.176 121.923 372.71 115.693 373.778 111.599C374.668 107.505 376.537 105.459 379.385 105.459H388.196C390.332 99.7626 391.844 92.3757 392.734 83.2978C393.624 74.22 394.069 62.2941 394.069 47.5204C394.069 41.8244 393.891 30.2546 393.535 12.8109V6.40297L436.522 4C436.522 26.7837 435.543 45.2064 433.585 59.2682C441.773 53.0383 449.071 49.5673 455.479 48.8553ZM414.895 108.662C421.481 109.196 429.224 109.463 438.124 109.463C448.804 109.463 458.06 109.018 465.891 108.128C473.901 107.238 478.44 105.815 479.508 103.857C478.44 101.009 476.037 98.7836 472.299 97.1816C468.561 95.4017 464.2 94.5117 459.217 94.5117C452.453 94.5117 445.155 95.7577 437.323 98.2496C429.491 100.564 422.015 104.035 414.895 108.662Z"/>
<path d="M741.417 105.459C744.265 105.459 746.134 107.505 747.024 111.599C748.092 115.693 748.626 121.923 748.626 130.289C748.626 138.833 748.092 145.152 747.024 149.246C745.956 153.162 744.087 155.12 741.417 155.12C732.695 155.12 724.863 152.895 717.921 148.445C710.267 150.759 700.121 152.717 687.483 154.319C674.846 155.921 661.051 156.722 646.099 156.722C619.577 156.722 592.878 153.963 566 148.445C567.958 131.001 571.607 114.803 576.947 99.8516C589.051 101.632 602.846 103.234 618.332 104.658C633.817 105.903 648.502 106.526 662.386 106.526C671.82 106.526 681.254 106.081 690.687 105.192C690.331 94.3337 689.442 81.5179 688.018 66.7441C686.772 51.7923 685.437 37.0185 684.013 22.4227L682.411 6.40297L725.397 4C727.711 38.1755 728.868 68.524 728.868 95.0457C729.046 96.1136 729.135 97.8046 729.135 100.119C729.135 102.433 729.046 104.213 728.868 105.459H741.417ZM662.386 87.3028C655.8 87.1248 647.612 87.4808 637.822 88.3708C628.21 89.2607 619.578 90.4177 611.924 91.8417C611.212 90.5957 610.678 88.7268 610.322 86.2348C609.966 83.7428 609.788 81.1619 609.788 78.4919C609.788 74.576 610.144 71.906 610.856 70.482C615.84 68.702 620.556 67.2781 625.006 66.2101C620.734 60.8702 618.599 55.4412 618.599 49.9233C618.599 45.4734 620.022 41.2015 622.87 37.1075C625.896 33.0136 629.634 29.7206 634.084 27.2287C638.712 24.7367 643.162 23.4907 647.434 23.4907C651.172 23.4907 654.287 24.3807 656.779 26.1607C661.229 28.8306 663.454 33.0136 663.454 38.7095C663.454 43.1594 662.03 47.2534 659.182 50.9913C654.554 48.6773 650.282 47.5204 646.366 47.5204C643.874 47.5204 641.827 47.9654 640.225 48.8553C638.623 49.7453 637.733 51.0803 637.555 52.8603C637.199 55.8862 638.267 59.3572 640.759 63.2731C649.125 62.0271 656.245 61.4042 662.119 61.4042C664.433 61.4042 667.548 61.5822 671.464 61.9382L672.265 63.5401C671.731 66.5661 670.307 70.838 667.993 76.3559C665.679 81.8739 663.81 85.5228 662.386 87.3028Z"/>
<path d="M817.383 63.8071C820.765 74.487 822.456 86.0568 822.456 98.5166C822.456 107.95 821.477 117.028 819.519 125.75C817.561 134.472 814.802 141.681 811.242 147.377C803.767 149.513 793.888 151.382 781.606 152.984C769.324 154.408 755.885 155.12 741.289 155.12C738.62 155.12 736.75 153.162 735.682 149.246C734.615 145.152 734.081 138.833 734.081 130.289C734.081 121.923 734.615 115.693 735.682 111.599C736.573 107.505 738.442 105.459 741.289 105.459C760.335 105.459 774.397 104.391 783.475 102.255C782.051 96.2026 780.271 90.2397 778.135 84.3658C776.177 78.4919 775.02 74.932 774.664 73.686L817.383 63.8071ZM816.582 178.63C816.938 181.3 814.98 185.661 810.708 191.713C806.437 197.765 802.788 201.859 799.762 203.995C796.38 202.571 792.108 200.079 786.946 196.519C781.784 193.137 777.957 190.022 775.465 187.174C773.685 190.378 771.371 193.671 768.523 197.053C765.675 200.435 763.361 202.749 761.581 203.995C758.021 202.393 753.482 199.634 747.964 195.718C742.446 191.98 738.53 188.776 736.216 186.106C737.284 182.368 739.954 177.384 744.226 171.154C748.498 164.924 752.058 161.809 754.906 161.809C757.754 161.809 762.026 163.767 767.722 167.683C773.418 171.777 776.889 175.159 778.135 177.829C780.627 173.379 783.208 169.552 785.878 166.348C788.548 163.322 790.951 161.809 793.087 161.809C795.935 161.809 800.385 163.945 806.437 168.217C812.666 172.667 816.048 176.138 816.582 178.63Z"/>
<path d="M895.609 105.459C898.457 105.459 900.326 107.505 901.216 111.599C902.284 115.693 902.818 121.923 902.818 130.289C902.818 138.833 902.284 145.152 901.216 149.246C900.148 153.162 898.279 155.12 895.609 155.12C885.819 155.12 876.296 154.497 867.04 153.251C857.963 152.005 850.309 150.047 844.079 147.377C842.477 140.969 841.142 112.044 840.074 60.6032L838.472 6.40297L881.458 4C883.06 30.5216 883.861 54.9073 883.861 77.1569C883.861 83.9208 883.683 92.9987 883.327 104.391C887.777 105.103 891.871 105.459 895.609 105.459Z"/>
<path d="M974.143 52.8603C989.095 62.4721 1000.4 69.592 1008.05 74.22C1015.71 78.6699 1021.13 80.8949 1024.34 80.8949C1023.8 91.0407 1022.65 99.6736 1020.87 106.793C1019.27 113.735 1016.51 121.745 1012.59 130.823C1007.96 130.467 1004.58 130.289 1002.44 130.289C991.943 130.289 980.373 132.514 967.735 136.964C962.93 138.744 958.48 140.435 954.386 142.037C943.528 146.309 933.827 149.602 925.283 151.916C916.739 154.052 906.86 155.12 895.647 155.12C892.977 155.12 891.108 153.162 890.04 149.246C888.972 145.152 888.438 138.833 888.438 130.289C888.438 121.923 888.972 115.693 890.04 111.599C890.93 107.505 892.799 105.459 895.647 105.459C905.258 105.459 913.446 104.836 920.21 103.59C927.152 102.344 936.23 100.386 947.444 97.7156L954.119 96.1136L970.672 92.3757C963.909 88.6378 958.213 85.8788 953.585 84.0988C948.601 82.1409 943.261 80.8059 937.565 80.0939C931.869 79.2039 924.482 78.4919 915.404 77.9579L909.53 77.6909L908.462 76.6229C909.174 69.859 910.509 62.3831 912.467 54.1953C914.603 45.8294 916.65 39.6885 918.608 35.7725C922.346 35.2385 925.817 34.9715 929.021 34.9715C935.607 34.9715 941.748 36.0395 947.444 38.1755C953.14 40.1335 958.925 42.9814 964.799 46.7194L974.143 52.8603ZM967.201 196.922C963.464 195.498 958.569 192.65 952.517 188.378C946.465 184.284 942.282 180.724 939.968 177.698C940.502 175.384 941.837 172.18 943.973 168.086C946.287 164.17 948.868 160.521 951.716 157.14C954.564 153.936 957.056 152.156 959.192 151.8C961.15 151.444 964.087 152.334 968.003 154.47C972.096 156.606 975.834 159.186 979.216 162.212C982.776 165.416 984.734 167.908 985.09 169.688C985.802 172.358 983.755 176.986 978.949 183.572C974.321 190.336 970.405 194.786 967.201 196.922Z"/>
<path d="M1227.04 57.9332C1223.48 56.3312 1218.94 53.6613 1213.42 49.9233C1207.9 46.0074 1203.99 42.7144 1201.67 40.0445C1202.74 36.3065 1205.41 31.3226 1209.68 25.0927C1213.95 18.8628 1217.51 15.7478 1220.36 15.7478C1223.21 15.7478 1227.48 17.7948 1233.18 21.8887C1238.87 25.8047 1242.34 29.0976 1243.59 31.7676C1246.08 27.3177 1248.66 23.5797 1251.33 20.5538C1254 17.3498 1256.41 15.7478 1258.54 15.7478C1261.39 15.7478 1265.84 17.9728 1271.89 22.4227C1278.12 26.6947 1281.5 30.0766 1282.04 32.5686C1282.39 35.2385 1280.44 39.5995 1276.16 45.6514C1271.89 51.7033 1268.24 55.7972 1265.22 57.9332C1261.84 56.5092 1257.56 54.1063 1252.4 50.7243C1247.24 47.1644 1243.41 43.9604 1240.92 41.1125C1239.14 44.3164 1236.83 47.6094 1233.98 50.9913C1231.13 54.3733 1228.82 56.6872 1227.04 57.9332ZM1159.75 76.6229C1156.02 75.199 1151.12 72.44 1145.07 68.3461C1139.02 64.0741 1134.83 60.4252 1132.52 57.3992C1133.05 55.0852 1134.39 51.9703 1136.53 48.0544C1138.84 43.9604 1141.42 40.3115 1144.27 37.1075C1147.12 33.7256 1149.61 31.8566 1151.74 31.5006C1153.7 31.1446 1156.64 32.0346 1160.55 34.1706C1164.65 36.3065 1168.39 38.9765 1171.77 42.1804C1175.33 45.2064 1177.29 47.6094 1177.64 49.3893C1178.35 52.0593 1176.31 56.7762 1171.5 63.5401C1166.87 70.126 1162.96 74.487 1159.75 76.6229ZM1331.17 105.459C1334.01 105.459 1335.88 107.505 1336.77 111.599C1337.84 115.693 1338.37 121.923 1338.37 130.289C1338.37 138.833 1337.84 145.152 1336.77 149.246C1335.7 153.162 1333.84 155.12 1331.17 155.12C1312.48 155.12 1299.48 144.885 1292.18 124.415C1285.78 126.551 1278.03 128.509 1268.95 130.289C1259.88 131.891 1250.62 133.048 1241.19 133.76C1241.37 136.074 1241.45 139.812 1241.45 144.974C1241.45 157.434 1240.12 169.271 1237.45 180.484C1234.96 191.876 1230.69 201.755 1224.63 210.121C1199.36 217.597 1177.29 221.335 1158.42 221.335C1132.79 221.335 1113.65 215.995 1101.01 205.315C1088.55 194.813 1082.32 179.861 1082.32 160.46C1082.32 141.058 1088.55 117.651 1101.01 90.2397L1138.13 102.255C1131.54 119.698 1128.25 133.849 1128.25 144.707C1128.25 154.141 1130.83 161.083 1135.99 165.533C1141.15 169.983 1148.9 172.208 1159.22 172.208C1169.72 172.208 1182.8 170.072 1198.47 165.8C1198.47 152.628 1197.04 131.357 1194.2 101.988C1193.84 99.8516 1193.48 96.4696 1193.13 91.8417L1195.8 87.8368C1202.56 88.1928 1208.35 88.3708 1213.15 88.3708C1242.17 88.3708 1270.82 84.0988 1299.13 75.5549C1303.4 87.1248 1307.94 95.0457 1312.74 99.3176C1317.55 103.412 1323.69 105.459 1331.17 105.459Z"/>
<path d="M1407.17 63.8071C1410.56 74.487 1412.25 86.0568 1412.25 98.5166C1412.25 107.95 1411.27 117.028 1409.31 125.75C1407.35 134.472 1404.59 141.681 1401.03 147.377C1393.56 149.513 1383.68 151.382 1371.4 152.984C1359.11 154.408 1345.68 155.12 1331.08 155.12C1328.41 155.12 1326.54 153.162 1325.47 149.246C1324.4 145.152 1323.87 138.833 1323.87 130.289C1323.87 121.923 1324.4 115.693 1325.47 111.599C1326.36 107.505 1328.23 105.459 1331.08 105.459C1350.13 105.459 1364.19 104.391 1373.26 102.255C1371.84 96.2026 1370.06 90.2397 1367.92 84.3658C1365.97 78.4919 1364.81 74.932 1364.45 73.686L1407.17 63.8071ZM1406.37 179.63C1406.73 182.3 1404.77 186.661 1400.5 192.713C1396.23 198.765 1392.58 202.859 1389.55 204.995C1386.17 203.571 1381.9 201.079 1376.74 197.519C1371.57 194.137 1367.75 191.022 1365.25 188.174C1363.47 191.378 1361.16 194.671 1358.31 198.053C1355.47 201.435 1353.15 203.749 1351.37 204.995C1347.81 203.393 1343.27 200.634 1337.75 196.718C1332.24 192.98 1328.32 189.776 1326.01 187.106C1327.07 183.368 1329.74 178.384 1334.02 172.154C1338.29 165.924 1341.85 162.809 1344.7 162.809C1347.54 162.809 1351.82 164.767 1357.51 168.683C1363.21 172.777 1366.68 176.159 1367.92 178.829C1370.42 174.379 1373 170.552 1375.67 167.348C1378.34 164.322 1380.74 162.809 1382.88 162.809C1385.72 162.809 1390.17 164.945 1396.23 169.217C1402.46 173.667 1405.84 177.138 1406.37 179.63Z"/>
<path d="M1547.88 63.8071C1551.08 73.953 1552.68 85.6118 1552.68 98.7836C1552.68 108.395 1551.7 117.473 1549.75 126.017C1547.97 134.561 1545.3 141.681 1541.74 147.377C1534.26 149.869 1525.63 151.827 1515.84 153.251C1506.05 154.497 1496.08 155.12 1485.93 155.12C1475.97 155.12 1466.35 154.497 1457.1 153.251C1448.02 151.827 1440.28 149.869 1433.87 147.377C1432.27 140.969 1430.93 112.044 1429.86 60.6032L1428.26 6.40297L1471.25 4C1472.85 30.3436 1473.65 54.5513 1473.65 76.6229C1473.65 83.3868 1473.47 92.4647 1473.12 103.857C1480.77 104.925 1488.43 105.459 1496.08 105.459C1503.2 105.459 1509.25 104.747 1514.23 103.323C1512.63 96.7366 1509.52 86.8578 1504.89 73.686L1547.88 63.8071ZM1505.96 56.0642C1502.4 54.4623 1497.86 51.7923 1492.34 48.0544C1486.82 44.1384 1482.91 40.8455 1480.59 38.1755C1481.66 34.4376 1484.33 29.4536 1488.6 23.2237C1492.88 16.9938 1496.43 13.8789 1499.28 13.8789C1502.13 13.8789 1506.4 15.9258 1512.1 20.0198C1517.79 23.9357 1521.27 27.2287 1522.51 29.8986C1525 25.4487 1527.58 21.7107 1530.25 18.6848C1532.92 15.4808 1535.33 13.8789 1537.46 13.8789C1540.31 13.8789 1544.76 16.1038 1550.81 20.5538C1557.04 24.8257 1560.42 28.2076 1560.96 30.6996C1561.31 33.3696 1559.36 37.7305 1555.09 43.7824C1550.81 49.8343 1547.16 53.9283 1544.14 56.0642C1540.76 54.6403 1536.48 52.2373 1531.32 48.8553C1526.16 45.2954 1522.33 42.0914 1519.84 39.2435C1518.06 42.4474 1515.75 45.7404 1512.9 49.1223C1510.05 52.5043 1507.74 54.8183 1505.96 56.0642Z"/>
</mask>
<path d="M149.251 67.2781C154.591 89.7057 157.261 109.997 157.261 128.153C157.261 154.319 151.565 175.411 140.173 191.431C115.253 198.907 93.1816 202.645 73.9579 202.645C48.8603 202.645 30.2596 197.394 18.1557 186.892C6.05191 176.568 0 161.617 0 142.037C0 122.991 5.60692 99.4956 16.8208 71.55L53.6662 83.5648C47.0803 101.899 43.7873 116.049 43.7873 126.017C43.7873 135.095 46.2793 141.948 51.2632 146.576C56.4252 151.026 64.346 153.251 75.0259 153.251C79.6538 153.251 85.3497 152.806 92.1136 151.916C99.0555 151.026 106.086 149.691 113.206 147.911C112.672 135.273 111.782 123.97 110.536 114.002C109.468 104.035 107.955 91.4857 105.997 76.3559L149.251 67.2781ZM84.1038 57.6662C80.3658 56.2422 75.4709 53.4833 69.419 49.3893C63.3671 45.1174 59.1841 41.4685 56.8702 38.4425C57.4042 36.1285 58.7391 33.0136 60.8751 29.0976C63.1891 25.0037 65.77 21.3547 68.618 18.1508C71.4659 14.7689 73.9579 12.8999 76.0939 12.5439C78.0518 12.1879 80.9888 13.0779 84.9047 15.2138C88.9987 17.3498 92.7366 20.0198 96.1186 23.2237C99.6785 26.2497 101.636 28.6526 101.992 30.4326C102.704 33.1026 100.658 37.8195 95.8516 44.5834C91.2236 51.1693 87.3077 55.5303 84.1038 57.6662Z" fill="white"/>
<path d="M175.197 154.586C176.087 140.346 176.532 125.572 176.532 110.264C176.532 81.6069 175.464 46.9864 173.328 6.40297L216.582 4C218.896 38.1755 220.053 70.571 220.053 101.187C220.053 120.588 219.697 136.341 218.985 148.445C215.247 150.581 209.284 152.361 201.096 153.785C192.908 155.031 184.809 155.743 176.799 155.921L175.197 154.586Z" fill="white"/>
<path d="M379.376 105.459C382.224 105.459 384.093 107.505 384.983 111.599C386.051 115.693 386.585 121.923 386.585 130.289C386.585 138.833 386.051 145.152 384.983 149.246C383.915 153.162 382.046 155.12 379.376 155.12C371.366 155.12 363.624 152.628 356.148 147.644C348.672 142.482 343.065 135.006 339.327 125.216C322.773 131.09 306.486 134.027 290.467 134.027C286.907 146.843 282.368 159.748 276.85 172.742C271.51 185.913 266.348 197.216 261.364 206.65C256.558 216.084 253.532 221.691 252.286 223.471C246.234 221.157 239.025 217.152 230.66 211.456C222.294 205.938 216.064 200.865 211.97 196.237C224.608 176.835 235.02 158.947 243.208 142.571C251.574 126.195 258.783 108.039 264.835 88.1038C270.175 88.4598 274.269 88.6377 277.117 88.6377C299.189 88.6377 322.595 84.2768 347.337 75.5549C350.363 84.9888 354.635 92.3757 360.153 97.7156C365.671 102.878 372.078 105.459 379.376 105.459ZM345.201 154.732C348.049 154.732 352.499 156.868 358.551 161.14C364.781 165.589 368.163 169.06 368.697 171.552C369.053 174.222 367.095 178.583 362.823 184.635C358.551 190.687 354.902 194.781 351.876 196.917C348.494 195.493 344.222 193.001 339.06 189.441C333.898 186.059 330.071 182.944 327.579 180.096C325.799 183.3 323.485 186.593 320.637 189.975C317.789 193.357 315.475 195.671 313.695 196.917C310.135 195.315 305.596 192.556 300.079 188.64C294.561 184.902 290.645 181.698 288.331 179.028C289.399 175.29 292.069 170.306 296.341 164.076C300.613 157.847 304.172 154.732 307.02 154.732C309.868 154.732 314.14 156.69 319.836 160.606C325.532 164.699 329.003 168.081 330.249 170.751C332.741 166.301 335.322 162.475 337.992 159.271C340.662 156.245 343.065 154.732 345.201 154.732Z" fill="white"/>
<path d="M455.479 48.8553C456.903 48.6773 458.949 48.5883 461.619 48.5883C476.037 48.5883 487.696 53.7503 496.596 64.0741C505.496 74.398 509.946 88.9937 509.946 107.861C509.946 111.777 508.7 117.562 506.208 125.216C503.716 132.87 500.69 139.278 497.13 144.44C483.958 148.712 469.451 151.56 453.61 152.984C437.946 154.408 420.591 155.12 401.545 155.12H379.385C376.715 155.12 374.846 153.162 373.778 149.246C372.71 145.152 372.176 138.833 372.176 130.289C372.176 121.923 372.71 115.693 373.778 111.599C374.668 107.505 376.537 105.459 379.385 105.459H388.196C390.332 99.7626 391.844 92.3757 392.734 83.2978C393.624 74.22 394.069 62.2941 394.069 47.5204C394.069 41.8244 393.891 30.2546 393.535 12.8109V6.40297L436.522 4C436.522 26.7837 435.543 45.2064 433.585 59.2682C441.773 53.0383 449.071 49.5673 455.479 48.8553ZM414.895 108.662C421.481 109.196 429.224 109.463 438.124 109.463C448.804 109.463 458.06 109.018 465.891 108.128C473.901 107.238 478.44 105.815 479.508 103.857C478.44 101.009 476.037 98.7836 472.299 97.1816C468.561 95.4017 464.2 94.5117 459.217 94.5117C452.453 94.5117 445.155 95.7577 437.323 98.2496C429.491 100.564 422.015 104.035 414.895 108.662Z" fill="white"/>
<path d="M741.417 105.459C744.265 105.459 746.134 107.505 747.024 111.599C748.092 115.693 748.626 121.923 748.626 130.289C748.626 138.833 748.092 145.152 747.024 149.246C745.956 153.162 744.087 155.12 741.417 155.12C732.695 155.12 724.863 152.895 717.921 148.445C710.267 150.759 700.121 152.717 687.483 154.319C674.846 155.921 661.051 156.722 646.099 156.722C619.577 156.722 592.878 153.963 566 148.445C567.958 131.001 571.607 114.803 576.947 99.8516C589.051 101.632 602.846 103.234 618.332 104.658C633.817 105.903 648.502 106.526 662.386 106.526C671.82 106.526 681.254 106.081 690.687 105.192C690.331 94.3337 689.442 81.5179 688.018 66.7441C686.772 51.7923 685.437 37.0185 684.013 22.4227L682.411 6.40297L725.397 4C727.711 38.1755 728.868 68.524 728.868 95.0457C729.046 96.1136 729.135 97.8046 729.135 100.119C729.135 102.433 729.046 104.213 728.868 105.459H741.417ZM662.386 87.3028C655.8 87.1248 647.612 87.4808 637.822 88.3708C628.21 89.2607 619.578 90.4177 611.924 91.8417C611.212 90.5957 610.678 88.7268 610.322 86.2348C609.966 83.7428 609.788 81.1619 609.788 78.4919C609.788 74.576 610.144 71.906 610.856 70.482C615.84 68.702 620.556 67.2781 625.006 66.2101C620.734 60.8702 618.599 55.4412 618.599 49.9233C618.599 45.4734 620.022 41.2015 622.87 37.1075C625.896 33.0136 629.634 29.7206 634.084 27.2287C638.712 24.7367 643.162 23.4907 647.434 23.4907C651.172 23.4907 654.287 24.3807 656.779 26.1607C661.229 28.8306 663.454 33.0136 663.454 38.7095C663.454 43.1594 662.03 47.2534 659.182 50.9913C654.554 48.6773 650.282 47.5204 646.366 47.5204C643.874 47.5204 641.827 47.9654 640.225 48.8553C638.623 49.7453 637.733 51.0803 637.555 52.8603C637.199 55.8862 638.267 59.3572 640.759 63.2731C649.125 62.0271 656.245 61.4042 662.119 61.4042C664.433 61.4042 667.548 61.5822 671.464 61.9382L672.265 63.5401C671.731 66.5661 670.307 70.838 667.993 76.3559C665.679 81.8739 663.81 85.5228 662.386 87.3028Z" fill="white"/>
<path d="M817.383 63.8071C820.765 74.487 822.456 86.0568 822.456 98.5166C822.456 107.95 821.477 117.028 819.519 125.75C817.561 134.472 814.802 141.681 811.242 147.377C803.767 149.513 793.888 151.382 781.606 152.984C769.324 154.408 755.885 155.12 741.289 155.12C738.62 155.12 736.75 153.162 735.682 149.246C734.615 145.152 734.081 138.833 734.081 130.289C734.081 121.923 734.615 115.693 735.682 111.599C736.573 107.505 738.442 105.459 741.289 105.459C760.335 105.459 774.397 104.391 783.475 102.255C782.051 96.2026 780.271 90.2397 778.135 84.3658C776.177 78.4919 775.02 74.932 774.664 73.686L817.383 63.8071ZM816.582 178.63C816.938 181.3 814.98 185.661 810.708 191.713C806.437 197.765 802.788 201.859 799.762 203.995C796.38 202.571 792.108 200.079 786.946 196.519C781.784 193.137 777.957 190.022 775.465 187.174C773.685 190.378 771.371 193.671 768.523 197.053C765.675 200.435 763.361 202.749 761.581 203.995C758.021 202.393 753.482 199.634 747.964 195.718C742.446 191.98 738.53 188.776 736.216 186.106C737.284 182.368 739.954 177.384 744.226 171.154C748.498 164.924 752.058 161.809 754.906 161.809C757.754 161.809 762.026 163.767 767.722 167.683C773.418 171.777 776.889 175.159 778.135 177.829C780.627 173.379 783.208 169.552 785.878 166.348C788.548 163.322 790.951 161.809 793.087 161.809C795.935 161.809 800.385 163.945 806.437 168.217C812.666 172.667 816.048 176.138 816.582 178.63Z" fill="white"/>
<path d="M895.609 105.459C898.457 105.459 900.326 107.505 901.216 111.599C902.284 115.693 902.818 121.923 902.818 130.289C902.818 138.833 902.284 145.152 901.216 149.246C900.148 153.162 898.279 155.12 895.609 155.12C885.819 155.12 876.296 154.497 867.04 153.251C857.963 152.005 850.309 150.047 844.079 147.377C842.477 140.969 841.142 112.044 840.074 60.6032L838.472 6.40297L881.458 4C883.06 30.5216 883.861 54.9073 883.861 77.1569C883.861 83.9208 883.683 92.9987 883.327 104.391C887.777 105.103 891.871 105.459 895.609 105.459Z" fill="white"/>
<path d="M974.143 52.8603C989.095 62.4721 1000.4 69.592 1008.05 74.22C1015.71 78.6699 1021.13 80.8949 1024.34 80.8949C1023.8 91.0407 1022.65 99.6736 1020.87 106.793C1019.27 113.735 1016.51 121.745 1012.59 130.823C1007.96 130.467 1004.58 130.289 1002.44 130.289C991.943 130.289 980.373 132.514 967.735 136.964C962.93 138.744 958.48 140.435 954.386 142.037C943.528 146.309 933.827 149.602 925.283 151.916C916.739 154.052 906.86 155.12 895.647 155.12C892.977 155.12 891.108 153.162 890.04 149.246C888.972 145.152 888.438 138.833 888.438 130.289C888.438 121.923 888.972 115.693 890.04 111.599C890.93 107.505 892.799 105.459 895.647 105.459C905.258 105.459 913.446 104.836 920.21 103.59C927.152 102.344 936.23 100.386 947.444 97.7156L954.119 96.1136L970.672 92.3757C963.909 88.6378 958.213 85.8788 953.585 84.0988C948.601 82.1409 943.261 80.8059 937.565 80.0939C931.869 79.2039 924.482 78.4919 915.404 77.9579L909.53 77.6909L908.462 76.6229C909.174 69.859 910.509 62.3831 912.467 54.1953C914.603 45.8294 916.65 39.6885 918.608 35.7725C922.346 35.2385 925.817 34.9715 929.021 34.9715C935.607 34.9715 941.748 36.0395 947.444 38.1755C953.14 40.1335 958.925 42.9814 964.799 46.7194L974.143 52.8603ZM967.201 196.922C963.464 195.498 958.569 192.65 952.517 188.378C946.465 184.284 942.282 180.724 939.968 177.698C940.502 175.384 941.837 172.18 943.973 168.086C946.287 164.17 948.868 160.521 951.716 157.14C954.564 153.936 957.056 152.156 959.192 151.8C961.15 151.444 964.087 152.334 968.003 154.47C972.096 156.606 975.834 159.186 979.216 162.212C982.776 165.416 984.734 167.908 985.09 169.688C985.802 172.358 983.755 176.986 978.949 183.572C974.321 190.336 970.405 194.786 967.201 196.922Z" fill="white"/>
<path d="M1227.04 57.9332C1223.48 56.3312 1218.94 53.6613 1213.42 49.9233C1207.9 46.0074 1203.99 42.7144 1201.67 40.0445C1202.74 36.3065 1205.41 31.3226 1209.68 25.0927C1213.95 18.8628 1217.51 15.7478 1220.36 15.7478C1223.21 15.7478 1227.48 17.7948 1233.18 21.8887C1238.87 25.8047 1242.34 29.0976 1243.59 31.7676C1246.08 27.3177 1248.66 23.5797 1251.33 20.5538C1254 17.3498 1256.41 15.7478 1258.54 15.7478C1261.39 15.7478 1265.84 17.9728 1271.89 22.4227C1278.12 26.6947 1281.5 30.0766 1282.04 32.5686C1282.39 35.2385 1280.44 39.5995 1276.16 45.6514C1271.89 51.7033 1268.24 55.7972 1265.22 57.9332C1261.84 56.5092 1257.56 54.1063 1252.4 50.7243C1247.24 47.1644 1243.41 43.9604 1240.92 41.1125C1239.14 44.3164 1236.83 47.6094 1233.98 50.9913C1231.13 54.3733 1228.82 56.6872 1227.04 57.9332ZM1159.75 76.6229C1156.02 75.199 1151.12 72.44 1145.07 68.3461C1139.02 64.0741 1134.83 60.4252 1132.52 57.3992C1133.05 55.0852 1134.39 51.9703 1136.53 48.0544C1138.84 43.9604 1141.42 40.3115 1144.27 37.1075C1147.12 33.7256 1149.61 31.8566 1151.74 31.5006C1153.7 31.1446 1156.64 32.0346 1160.55 34.1706C1164.65 36.3065 1168.39 38.9765 1171.77 42.1804C1175.33 45.2064 1177.29 47.6094 1177.64 49.3893C1178.35 52.0593 1176.31 56.7762 1171.5 63.5401C1166.87 70.126 1162.96 74.487 1159.75 76.6229ZM1331.17 105.459C1334.01 105.459 1335.88 107.505 1336.77 111.599C1337.84 115.693 1338.37 121.923 1338.37 130.289C1338.37 138.833 1337.84 145.152 1336.77 149.246C1335.7 153.162 1333.84 155.12 1331.17 155.12C1312.48 155.12 1299.48 144.885 1292.18 124.415C1285.78 126.551 1278.03 128.509 1268.95 130.289C1259.88 131.891 1250.62 133.048 1241.19 133.76C1241.37 136.074 1241.45 139.812 1241.45 144.974C1241.45 157.434 1240.12 169.271 1237.45 180.484C1234.96 191.876 1230.69 201.755 1224.63 210.121C1199.36 217.597 1177.29 221.335 1158.42 221.335C1132.79 221.335 1113.65 215.995 1101.01 205.315C1088.55 194.813 1082.32 179.861 1082.32 160.46C1082.32 141.058 1088.55 117.651 1101.01 90.2397L1138.13 102.255C1131.54 119.698 1128.25 133.849 1128.25 144.707C1128.25 154.141 1130.83 161.083 1135.99 165.533C1141.15 169.983 1148.9 172.208 1159.22 172.208C1169.72 172.208 1182.8 170.072 1198.47 165.8C1198.47 152.628 1197.04 131.357 1194.2 101.988C1193.84 99.8516 1193.48 96.4696 1193.13 91.8417L1195.8 87.8368C1202.56 88.1928 1208.35 88.3708 1213.15 88.3708C1242.17 88.3708 1270.82 84.0988 1299.13 75.5549C1303.4 87.1248 1307.94 95.0457 1312.74 99.3176C1317.55 103.412 1323.69 105.459 1331.17 105.459Z" fill="white"/>
<path d="M1407.17 63.8071C1410.56 74.487 1412.25 86.0568 1412.25 98.5166C1412.25 107.95 1411.27 117.028 1409.31 125.75C1407.35 134.472 1404.59 141.681 1401.03 147.377C1393.56 149.513 1383.68 151.382 1371.4 152.984C1359.11 154.408 1345.68 155.12 1331.08 155.12C1328.41 155.12 1326.54 153.162 1325.47 149.246C1324.4 145.152 1323.87 138.833 1323.87 130.289C1323.87 121.923 1324.4 115.693 1325.47 111.599C1326.36 107.505 1328.23 105.459 1331.08 105.459C1350.13 105.459 1364.19 104.391 1373.26 102.255C1371.84 96.2026 1370.06 90.2397 1367.92 84.3658C1365.97 78.4919 1364.81 74.932 1364.45 73.686L1407.17 63.8071ZM1406.37 179.63C1406.73 182.3 1404.77 186.661 1400.5 192.713C1396.23 198.765 1392.58 202.859 1389.55 204.995C1386.17 203.571 1381.9 201.079 1376.74 197.519C1371.57 194.137 1367.75 191.022 1365.25 188.174C1363.47 191.378 1361.16 194.671 1358.31 198.053C1355.47 201.435 1353.15 203.749 1351.37 204.995C1347.81 203.393 1343.27 200.634 1337.75 196.718C1332.24 192.98 1328.32 189.776 1326.01 187.106C1327.07 183.368 1329.74 178.384 1334.02 172.154C1338.29 165.924 1341.85 162.809 1344.7 162.809C1347.54 162.809 1351.82 164.767 1357.51 168.683C1363.21 172.777 1366.68 176.159 1367.92 178.829C1370.42 174.379 1373 170.552 1375.67 167.348C1378.34 164.322 1380.74 162.809 1382.88 162.809C1385.72 162.809 1390.17 164.945 1396.23 169.217C1402.46 173.667 1405.84 177.138 1406.37 179.63Z" fill="white"/>
<path d="M1547.88 63.8071C1551.08 73.953 1552.68 85.6118 1552.68 98.7836C1552.68 108.395 1551.7 117.473 1549.75 126.017C1547.97 134.561 1545.3 141.681 1541.74 147.377C1534.26 149.869 1525.63 151.827 1515.84 153.251C1506.05 154.497 1496.08 155.12 1485.93 155.12C1475.97 155.12 1466.35 154.497 1457.1 153.251C1448.02 151.827 1440.28 149.869 1433.87 147.377C1432.27 140.969 1430.93 112.044 1429.86 60.6032L1428.26 6.40297L1471.25 4C1472.85 30.3436 1473.65 54.5513 1473.65 76.6229C1473.65 83.3868 1473.47 92.4647 1473.12 103.857C1480.77 104.925 1488.43 105.459 1496.08 105.459C1503.2 105.459 1509.25 104.747 1514.23 103.323C1512.63 96.7366 1509.52 86.8578 1504.89 73.686L1547.88 63.8071ZM1505.96 56.0642C1502.4 54.4623 1497.86 51.7923 1492.34 48.0544C1486.82 44.1384 1482.91 40.8455 1480.59 38.1755C1481.66 34.4376 1484.33 29.4536 1488.6 23.2237C1492.88 16.9938 1496.43 13.8789 1499.28 13.8789C1502.13 13.8789 1506.4 15.9258 1512.1 20.0198C1517.79 23.9357 1521.27 27.2287 1522.51 29.8986C1525 25.4487 1527.58 21.7107 1530.25 18.6848C1532.92 15.4808 1535.33 13.8789 1537.46 13.8789C1540.31 13.8789 1544.76 16.1038 1550.81 20.5538C1557.04 24.8257 1560.42 28.2076 1560.96 30.6996C1561.31 33.3696 1559.36 37.7305 1555.09 43.7824C1550.81 49.8343 1547.16 53.9283 1544.14 56.0642C1540.76 54.6403 1536.48 52.2373 1531.32 48.8553C1526.16 45.2954 1522.33 42.0914 1519.84 39.2435C1518.06 42.4474 1515.75 45.7404 1512.9 49.1223C1510.05 52.5043 1507.74 54.8183 1505.96 56.0642Z" fill="white"/>
<path d="M149.251 67.2781C154.591 89.7057 157.261 109.997 157.261 128.153C157.261 154.319 151.565 175.411 140.173 191.431C115.253 198.907 93.1816 202.645 73.9579 202.645C48.8603 202.645 30.2596 197.394 18.1557 186.892C6.05191 176.568 0 161.617 0 142.037C0 122.991 5.60692 99.4956 16.8208 71.55L53.6662 83.5648C47.0803 101.899 43.7873 116.049 43.7873 126.017C43.7873 135.095 46.2793 141.948 51.2632 146.576C56.4252 151.026 64.346 153.251 75.0259 153.251C79.6538 153.251 85.3497 152.806 92.1136 151.916C99.0555 151.026 106.086 149.691 113.206 147.911C112.672 135.273 111.782 123.97 110.536 114.002C109.468 104.035 107.955 91.4857 105.997 76.3559L149.251 67.2781ZM84.1038 57.6662C80.3658 56.2422 75.4709 53.4833 69.419 49.3893C63.3671 45.1174 59.1841 41.4685 56.8702 38.4425C57.4042 36.1285 58.7391 33.0136 60.8751 29.0976C63.1891 25.0037 65.77 21.3547 68.618 18.1508C71.4659 14.7689 73.9579 12.8999 76.0939 12.5439C78.0518 12.1879 80.9888 13.0779 84.9047 15.2138C88.9987 17.3498 92.7366 20.0198 96.1186 23.2237C99.6785 26.2497 101.636 28.6526 101.992 30.4326C102.704 33.1026 100.658 37.8195 95.8516 44.5834C91.2236 51.1693 87.3077 55.5303 84.1038 57.6662Z" stroke="url(#paint0_linear_150_799)" stroke-width="6" mask="url(#path-1-outside-1_150_799)"/>
<path d="M175.197 154.586C176.087 140.346 176.532 125.572 176.532 110.264C176.532 81.6069 175.464 46.9864 173.328 6.40297L216.582 4C218.896 38.1755 220.053 70.571 220.053 101.187C220.053 120.588 219.697 136.341 218.985 148.445C215.247 150.581 209.284 152.361 201.096 153.785C192.908 155.031 184.809 155.743 176.799 155.921L175.197 154.586Z" stroke="url(#paint1_linear_150_799)" stroke-width="6" mask="url(#path-1-outside-1_150_799)"/>
<path d="M379.376 105.459C382.224 105.459 384.093 107.505 384.983 111.599C386.051 115.693 386.585 121.923 386.585 130.289C386.585 138.833 386.051 145.152 384.983 149.246C383.915 153.162 382.046 155.12 379.376 155.12C371.366 155.12 363.624 152.628 356.148 147.644C348.672 142.482 343.065 135.006 339.327 125.216C322.773 131.09 306.486 134.027 290.467 134.027C286.907 146.843 282.368 159.748 276.85 172.742C271.51 185.913 266.348 197.216 261.364 206.65C256.558 216.084 253.532 221.691 252.286 223.471C246.234 221.157 239.025 217.152 230.66 211.456C222.294 205.938 216.064 200.865 211.97 196.237C224.608 176.835 235.02 158.947 243.208 142.571C251.574 126.195 258.783 108.039 264.835 88.1038C270.175 88.4598 274.269 88.6377 277.117 88.6377C299.189 88.6377 322.595 84.2768 347.337 75.5549C350.363 84.9888 354.635 92.3757 360.153 97.7156C365.671 102.878 372.078 105.459 379.376 105.459ZM345.201 154.732C348.049 154.732 352.499 156.868 358.551 161.14C364.781 165.589 368.163 169.06 368.697 171.552C369.053 174.222 367.095 178.583 362.823 184.635C358.551 190.687 354.902 194.781 351.876 196.917C348.494 195.493 344.222 193.001 339.06 189.441C333.898 186.059 330.071 182.944 327.579 180.096C325.799 183.3 323.485 186.593 320.637 189.975C317.789 193.357 315.475 195.671 313.695 196.917C310.135 195.315 305.596 192.556 300.079 188.64C294.561 184.902 290.645 181.698 288.331 179.028C289.399 175.29 292.069 170.306 296.341 164.076C300.613 157.847 304.172 154.732 307.02 154.732C309.868 154.732 314.14 156.69 319.836 160.606C325.532 164.699 329.003 168.081 330.249 170.751C332.741 166.301 335.322 162.475 337.992 159.271C340.662 156.245 343.065 154.732 345.201 154.732Z" stroke="url(#paint2_linear_150_799)" stroke-width="6" mask="url(#path-1-outside-1_150_799)"/>
<path d="M455.479 48.8553C456.903 48.6773 458.949 48.5883 461.619 48.5883C476.037 48.5883 487.696 53.7503 496.596 64.0741C505.496 74.398 509.946 88.9937 509.946 107.861C509.946 111.777 508.7 117.562 506.208 125.216C503.716 132.87 500.69 139.278 497.13 144.44C483.958 148.712 469.451 151.56 453.61 152.984C437.946 154.408 420.591 155.12 401.545 155.12H379.385C376.715 155.12 374.846 153.162 373.778 149.246C372.71 145.152 372.176 138.833 372.176 130.289C372.176 121.923 372.71 115.693 373.778 111.599C374.668 107.505 376.537 105.459 379.385 105.459H388.196C390.332 99.7626 391.844 92.3757 392.734 83.2978C393.624 74.22 394.069 62.2941 394.069 47.5204C394.069 41.8244 393.891 30.2546 393.535 12.8109V6.40297L436.522 4C436.522 26.7837 435.543 45.2064 433.585 59.2682C441.773 53.0383 449.071 49.5673 455.479 48.8553ZM414.895 108.662C421.481 109.196 429.224 109.463 438.124 109.463C448.804 109.463 458.06 109.018 465.891 108.128C473.901 107.238 478.44 105.815 479.508 103.857C478.44 101.009 476.037 98.7836 472.299 97.1816C468.561 95.4017 464.2 94.5117 459.217 94.5117C452.453 94.5117 445.155 95.7577 437.323 98.2496C429.491 100.564 422.015 104.035 414.895 108.662Z" stroke="url(#paint3_linear_150_799)" stroke-width="6" mask="url(#path-1-outside-1_150_799)"/>
<path d="M741.417 105.459C744.265 105.459 746.134 107.505 747.024 111.599C748.092 115.693 748.626 121.923 748.626 130.289C748.626 138.833 748.092 145.152 747.024 149.246C745.956 153.162 744.087 155.12 741.417 155.12C732.695 155.12 724.863 152.895 717.921 148.445C710.267 150.759 700.121 152.717 687.483 154.319C674.846 155.921 661.051 156.722 646.099 156.722C619.577 156.722 592.878 153.963 566 148.445C567.958 131.001 571.607 114.803 576.947 99.8516C589.051 101.632 602.846 103.234 618.332 104.658C633.817 105.903 648.502 106.526 662.386 106.526C671.82 106.526 681.254 106.081 690.687 105.192C690.331 94.3337 689.442 81.5179 688.018 66.7441C686.772 51.7923 685.437 37.0185 684.013 22.4227L682.411 6.40297L725.397 4C727.711 38.1755 728.868 68.524 728.868 95.0457C729.046 96.1136 729.135 97.8046 729.135 100.119C729.135 102.433 729.046 104.213 728.868 105.459H741.417ZM662.386 87.3028C655.8 87.1248 647.612 87.4808 637.822 88.3708C628.21 89.2607 619.578 90.4177 611.924 91.8417C611.212 90.5957 610.678 88.7268 610.322 86.2348C609.966 83.7428 609.788 81.1619 609.788 78.4919C609.788 74.576 610.144 71.906 610.856 70.482C615.84 68.702 620.556 67.2781 625.006 66.2101C620.734 60.8702 618.599 55.4412 618.599 49.9233C618.599 45.4734 620.022 41.2015 622.87 37.1075C625.896 33.0136 629.634 29.7206 634.084 27.2287C638.712 24.7367 643.162 23.4907 647.434 23.4907C651.172 23.4907 654.287 24.3807 656.779 26.1607C661.229 28.8306 663.454 33.0136 663.454 38.7095C663.454 43.1594 662.03 47.2534 659.182 50.9913C654.554 48.6773 650.282 47.5204 646.366 47.5204C643.874 47.5204 641.827 47.9654 640.225 48.8553C638.623 49.7453 637.733 51.0803 637.555 52.8603C637.199 55.8862 638.267 59.3572 640.759 63.2731C649.125 62.0271 656.245 61.4042 662.119 61.4042C664.433 61.4042 667.548 61.5822 671.464 61.9382L672.265 63.5401C671.731 66.5661 670.307 70.838 667.993 76.3559C665.679 81.8739 663.81 85.5228 662.386 87.3028Z" stroke="url(#paint4_linear_150_799)" stroke-width="6" mask="url(#path-1-outside-1_150_799)"/>
<path d="M817.383 63.8071C820.765 74.487 822.456 86.0568 822.456 98.5166C822.456 107.95 821.477 117.028 819.519 125.75C817.561 134.472 814.802 141.681 811.242 147.377C803.767 149.513 793.888 151.382 781.606 152.984C769.324 154.408 755.885 155.12 741.289 155.12C738.62 155.12 736.75 153.162 735.682 149.246C734.615 145.152 734.081 138.833 734.081 130.289C734.081 121.923 734.615 115.693 735.682 111.599C736.573 107.505 738.442 105.459 741.289 105.459C760.335 105.459 774.397 104.391 783.475 102.255C782.051 96.2026 780.271 90.2397 778.135 84.3658C776.177 78.4919 775.02 74.932 774.664 73.686L817.383 63.8071ZM816.582 178.63C816.938 181.3 814.98 185.661 810.708 191.713C806.437 197.765 802.788 201.859 799.762 203.995C796.38 202.571 792.108 200.079 786.946 196.519C781.784 193.137 777.957 190.022 775.465 187.174C773.685 190.378 771.371 193.671 768.523 197.053C765.675 200.435 763.361 202.749 761.581 203.995C758.021 202.393 753.482 199.634 747.964 195.718C742.446 191.98 738.53 188.776 736.216 186.106C737.284 182.368 739.954 177.384 744.226 171.154C748.498 164.924 752.058 161.809 754.906 161.809C757.754 161.809 762.026 163.767 767.722 167.683C773.418 171.777 776.889 175.159 778.135 177.829C780.627 173.379 783.208 169.552 785.878 166.348C788.548 163.322 790.951 161.809 793.087 161.809C795.935 161.809 800.385 163.945 806.437 168.217C812.666 172.667 816.048 176.138 816.582 178.63Z" stroke="url(#paint5_linear_150_799)" stroke-width="6" mask="url(#path-1-outside-1_150_799)"/>
<path d="M895.609 105.459C898.457 105.459 900.326 107.505 901.216 111.599C902.284 115.693 902.818 121.923 902.818 130.289C902.818 138.833 902.284 145.152 901.216 149.246C900.148 153.162 898.279 155.12 895.609 155.12C885.819 155.12 876.296 154.497 867.04 153.251C857.963 152.005 850.309 150.047 844.079 147.377C842.477 140.969 841.142 112.044 840.074 60.6032L838.472 6.40297L881.458 4C883.06 30.5216 883.861 54.9073 883.861 77.1569C883.861 83.9208 883.683 92.9987 883.327 104.391C887.777 105.103 891.871 105.459 895.609 105.459Z" stroke="url(#paint6_linear_150_799)" stroke-width="6" mask="url(#path-1-outside-1_150_799)"/>
<path d="M974.143 52.8603C989.095 62.4721 1000.4 69.592 1008.05 74.22C1015.71 78.6699 1021.13 80.8949 1024.34 80.8949C1023.8 91.0407 1022.65 99.6736 1020.87 106.793C1019.27 113.735 1016.51 121.745 1012.59 130.823C1007.96 130.467 1004.58 130.289 1002.44 130.289C991.943 130.289 980.373 132.514 967.735 136.964C962.93 138.744 958.48 140.435 954.386 142.037C943.528 146.309 933.827 149.602 925.283 151.916C916.739 154.052 906.86 155.12 895.647 155.12C892.977 155.12 891.108 153.162 890.04 149.246C888.972 145.152 888.438 138.833 888.438 130.289C888.438 121.923 888.972 115.693 890.04 111.599C890.93 107.505 892.799 105.459 895.647 105.459C905.258 105.459 913.446 104.836 920.21 103.59C927.152 102.344 936.23 100.386 947.444 97.7156L954.119 96.1136L970.672 92.3757C963.909 88.6378 958.213 85.8788 953.585 84.0988C948.601 82.1409 943.261 80.8059 937.565 80.0939C931.869 79.2039 924.482 78.4919 915.404 77.9579L909.53 77.6909L908.462 76.6229C909.174 69.859 910.509 62.3831 912.467 54.1953C914.603 45.8294 916.65 39.6885 918.608 35.7725C922.346 35.2385 925.817 34.9715 929.021 34.9715C935.607 34.9715 941.748 36.0395 947.444 38.1755C953.14 40.1335 958.925 42.9814 964.799 46.7194L974.143 52.8603ZM967.201 196.922C963.464 195.498 958.569 192.65 952.517 188.378C946.465 184.284 942.282 180.724 939.968 177.698C940.502 175.384 941.837 172.18 943.973 168.086C946.287 164.17 948.868 160.521 951.716 157.14C954.564 153.936 957.056 152.156 959.192 151.8C961.15 151.444 964.087 152.334 968.003 154.47C972.096 156.606 975.834 159.186 979.216 162.212C982.776 165.416 984.734 167.908 985.09 169.688C985.802 172.358 983.755 176.986 978.949 183.572C974.321 190.336 970.405 194.786 967.201 196.922Z" stroke="url(#paint7_linear_150_799)" stroke-width="6" mask="url(#path-1-outside-1_150_799)"/>
<path d="M1227.04 57.9332C1223.48 56.3312 1218.94 53.6613 1213.42 49.9233C1207.9 46.0074 1203.99 42.7144 1201.67 40.0445C1202.74 36.3065 1205.41 31.3226 1209.68 25.0927C1213.95 18.8628 1217.51 15.7478 1220.36 15.7478C1223.21 15.7478 1227.48 17.7948 1233.18 21.8887C1238.87 25.8047 1242.34 29.0976 1243.59 31.7676C1246.08 27.3177 1248.66 23.5797 1251.33 20.5538C1254 17.3498 1256.41 15.7478 1258.54 15.7478C1261.39 15.7478 1265.84 17.9728 1271.89 22.4227C1278.12 26.6947 1281.5 30.0766 1282.04 32.5686C1282.39 35.2385 1280.44 39.5995 1276.16 45.6514C1271.89 51.7033 1268.24 55.7972 1265.22 57.9332C1261.84 56.5092 1257.56 54.1063 1252.4 50.7243C1247.24 47.1644 1243.41 43.9604 1240.92 41.1125C1239.14 44.3164 1236.83 47.6094 1233.98 50.9913C1231.13 54.3733 1228.82 56.6872 1227.04 57.9332ZM1159.75 76.6229C1156.02 75.199 1151.12 72.44 1145.07 68.3461C1139.02 64.0741 1134.83 60.4252 1132.52 57.3992C1133.05 55.0852 1134.39 51.9703 1136.53 48.0544C1138.84 43.9604 1141.42 40.3115 1144.27 37.1075C1147.12 33.7256 1149.61 31.8566 1151.74 31.5006C1153.7 31.1446 1156.64 32.0346 1160.55 34.1706C1164.65 36.3065 1168.39 38.9765 1171.77 42.1804C1175.33 45.2064 1177.29 47.6094 1177.64 49.3893C1178.35 52.0593 1176.31 56.7762 1171.5 63.5401C1166.87 70.126 1162.96 74.487 1159.75 76.6229ZM1331.17 105.459C1334.01 105.459 1335.88 107.505 1336.77 111.599C1337.84 115.693 1338.37 121.923 1338.37 130.289C1338.37 138.833 1337.84 145.152 1336.77 149.246C1335.7 153.162 1333.84 155.12 1331.17 155.12C1312.48 155.12 1299.48 144.885 1292.18 124.415C1285.78 126.551 1278.03 128.509 1268.95 130.289C1259.88 131.891 1250.62 133.048 1241.19 133.76C1241.37 136.074 1241.45 139.812 1241.45 144.974C1241.45 157.434 1240.12 169.271 1237.45 180.484C1234.96 191.876 1230.69 201.755 1224.63 210.121C1199.36 217.597 1177.29 221.335 1158.42 221.335C1132.79 221.335 1113.65 215.995 1101.01 205.315C1088.55 194.813 1082.32 179.861 1082.32 160.46C1082.32 141.058 1088.55 117.651 1101.01 90.2397L1138.13 102.255C1131.54 119.698 1128.25 133.849 1128.25 144.707C1128.25 154.141 1130.83 161.083 1135.99 165.533C1141.15 169.983 1148.9 172.208 1159.22 172.208C1169.72 172.208 1182.8 170.072 1198.47 165.8C1198.47 152.628 1197.04 131.357 1194.2 101.988C1193.84 99.8516 1193.48 96.4696 1193.13 91.8417L1195.8 87.8368C1202.56 88.1928 1208.35 88.3708 1213.15 88.3708C1242.17 88.3708 1270.82 84.0988 1299.13 75.5549C1303.4 87.1248 1307.94 95.0457 1312.74 99.3176C1317.55 103.412 1323.69 105.459 1331.17 105.459Z" stroke="url(#paint8_linear_150_799)" stroke-width="6" mask="url(#path-1-outside-1_150_799)"/>
<path d="M1407.17 63.8071C1410.56 74.487 1412.25 86.0568 1412.25 98.5166C1412.25 107.95 1411.27 117.028 1409.31 125.75C1407.35 134.472 1404.59 141.681 1401.03 147.377C1393.56 149.513 1383.68 151.382 1371.4 152.984C1359.11 154.408 1345.68 155.12 1331.08 155.12C1328.41 155.12 1326.54 153.162 1325.47 149.246C1324.4 145.152 1323.87 138.833 1323.87 130.289C1323.87 121.923 1324.4 115.693 1325.47 111.599C1326.36 107.505 1328.23 105.459 1331.08 105.459C1350.13 105.459 1364.19 104.391 1373.26 102.255C1371.84 96.2026 1370.06 90.2397 1367.92 84.3658C1365.97 78.4919 1364.81 74.932 1364.45 73.686L1407.17 63.8071ZM1406.37 179.63C1406.73 182.3 1404.77 186.661 1400.5 192.713C1396.23 198.765 1392.58 202.859 1389.55 204.995C1386.17 203.571 1381.9 201.079 1376.74 197.519C1371.57 194.137 1367.75 191.022 1365.25 188.174C1363.47 191.378 1361.16 194.671 1358.31 198.053C1355.47 201.435 1353.15 203.749 1351.37 204.995C1347.81 203.393 1343.27 200.634 1337.75 196.718C1332.24 192.98 1328.32 189.776 1326.01 187.106C1327.07 183.368 1329.74 178.384 1334.02 172.154C1338.29 165.924 1341.85 162.809 1344.7 162.809C1347.54 162.809 1351.82 164.767 1357.51 168.683C1363.21 172.777 1366.68 176.159 1367.92 178.829C1370.42 174.379 1373 170.552 1375.67 167.348C1378.34 164.322 1380.74 162.809 1382.88 162.809C1385.72 162.809 1390.17 164.945 1396.23 169.217C1402.46 173.667 1405.84 177.138 1406.37 179.63Z" stroke="url(#paint9_linear_150_799)" stroke-width="6" mask="url(#path-1-outside-1_150_799)"/>
<path d="M1547.88 63.8071C1551.08 73.953 1552.68 85.6118 1552.68 98.7836C1552.68 108.395 1551.7 117.473 1549.75 126.017C1547.97 134.561 1545.3 141.681 1541.74 147.377C1534.26 149.869 1525.63 151.827 1515.84 153.251C1506.05 154.497 1496.08 155.12 1485.93 155.12C1475.97 155.12 1466.35 154.497 1457.1 153.251C1448.02 151.827 1440.28 149.869 1433.87 147.377C1432.27 140.969 1430.93 112.044 1429.86 60.6032L1428.26 6.40297L1471.25 4C1472.85 30.3436 1473.65 54.5513 1473.65 76.6229C1473.65 83.3868 1473.47 92.4647 1473.12 103.857C1480.77 104.925 1488.43 105.459 1496.08 105.459C1503.2 105.459 1509.25 104.747 1514.23 103.323C1512.63 96.7366 1509.52 86.8578 1504.89 73.686L1547.88 63.8071ZM1505.96 56.0642C1502.4 54.4623 1497.86 51.7923 1492.34 48.0544C1486.82 44.1384 1482.91 40.8455 1480.59 38.1755C1481.66 34.4376 1484.33 29.4536 1488.6 23.2237C1492.88 16.9938 1496.43 13.8789 1499.28 13.8789C1502.13 13.8789 1506.4 15.9258 1512.1 20.0198C1517.79 23.9357 1521.27 27.2287 1522.51 29.8986C1525 25.4487 1527.58 21.7107 1530.25 18.6848C1532.92 15.4808 1535.33 13.8789 1537.46 13.8789C1540.31 13.8789 1544.76 16.1038 1550.81 20.5538C1557.04 24.8257 1560.42 28.2076 1560.96 30.6996C1561.31 33.3696 1559.36 37.7305 1555.09 43.7824C1550.81 49.8343 1547.16 53.9283 1544.14 56.0642C1540.76 54.6403 1536.48 52.2373 1531.32 48.8553C1526.16 45.2954 1522.33 42.0914 1519.84 39.2435C1518.06 42.4474 1515.75 45.7404 1512.9 49.1223C1510.05 52.5043 1507.74 54.8183 1505.96 56.0642Z" stroke="url(#paint10_linear_150_799)" stroke-width="6" mask="url(#path-1-outside-1_150_799)"/>
</g>
<defs>
<linearGradient id="paint0_linear_150_799" x1="781" y1="4" x2="781" y2="57" gradientUnits="userSpaceOnUse">
<stop stop-color="#EE5D33"/>
<stop offset="1" stop-color="#EE5D33" stop-opacity="0"/>
</linearGradient>
<linearGradient id="paint1_linear_150_799" x1="781" y1="4" x2="781" y2="57" gradientUnits="userSpaceOnUse">
<stop stop-color="#EE5D33"/>
<stop offset="1" stop-color="#EE5D33" stop-opacity="0"/>
</linearGradient>
<linearGradient id="paint2_linear_150_799" x1="781" y1="4" x2="781" y2="57" gradientUnits="userSpaceOnUse">
<stop stop-color="#EE5D33"/>
<stop offset="1" stop-color="#EE5D33" stop-opacity="0"/>
</linearGradient>
<linearGradient id="paint3_linear_150_799" x1="781" y1="4" x2="781" y2="57" gradientUnits="userSpaceOnUse">
<stop stop-color="#EE5D33"/>
<stop offset="1" stop-color="#EE5D33" stop-opacity="0"/>
</linearGradient>
<linearGradient id="paint4_linear_150_799" x1="781" y1="4" x2="781" y2="57" gradientUnits="userSpaceOnUse">
<stop stop-color="#EE5D33"/>
<stop offset="1" stop-color="#EE5D33" stop-opacity="0"/>
</linearGradient>
<linearGradient id="paint5_linear_150_799" x1="781" y1="4" x2="781" y2="57" gradientUnits="userSpaceOnUse">
<stop stop-color="#EE5D33"/>
<stop offset="1" stop-color="#EE5D33" stop-opacity="0"/>
</linearGradient>
<linearGradient id="paint6_linear_150_799" x1="781" y1="4" x2="781" y2="57" gradientUnits="userSpaceOnUse">
<stop stop-color="#EE5D33"/>
<stop offset="1" stop-color="#EE5D33" stop-opacity="0"/>
</linearGradient>
<linearGradient id="paint7_linear_150_799" x1="781" y1="4" x2="781" y2="57" gradientUnits="userSpaceOnUse">
<stop stop-color="#EE5D33"/>
<stop offset="1" stop-color="#EE5D33" stop-opacity="0"/>
</linearGradient>
<linearGradient id="paint8_linear_150_799" x1="781" y1="4" x2="781" y2="57" gradientUnits="userSpaceOnUse">
<stop stop-color="#EE5D33"/>
<stop offset="1" stop-color="#EE5D33" stop-opacity="0"/>
</linearGradient>
<linearGradient id="paint9_linear_150_799" x1="781" y1="4" x2="781" y2="57" gradientUnits="userSpaceOnUse">
<stop stop-color="#EE5D33"/>
<stop offset="1" stop-color="#EE5D33" stop-opacity="0"/>
</linearGradient>
<linearGradient id="paint10_linear_150_799" x1="781" y1="4" x2="781" y2="57" gradientUnits="userSpaceOnUse">
<stop stop-color="#EE5D33"/>
<stop offset="1" stop-color="#EE5D33" stop-opacity="0"/>
</linearGradient>
</defs>
</svg>
