<svg width="22" height="21" viewBox="0 0 22 21" fill="none" xmlns="http://www.w3.org/2000/svg">
<path d="M11.8852 3.33132C11.5472 2.42402 10.2639 2.42402 9.92585 3.33132L8.43266 7.33937C8.28023 7.74851 7.88959 8.01984 7.45298 8.01984H3.25673C2.2402 8.01984 1.82163 9.32375 2.64822 9.91541L6.16554 12.4331C6.54942 12.7078 6.70152 13.2058 6.53671 13.6482L5.28439 17.0097C4.9242 17.9765 6.03362 18.8253 6.87257 18.2248L10.297 15.7736C10.6609 15.5131 11.1502 15.5131 11.514 15.7736L14.9385 18.2248C15.7774 18.8253 16.8868 17.9765 16.5267 17.0097L15.2743 13.6482C15.1095 13.2058 15.2616 12.7078 15.6455 12.4331L19.1628 9.91541C19.9894 9.32374 19.5709 8.01984 18.5543 8.01984H14.3581C13.9215 8.01984 13.5308 7.74851 13.3784 7.33937L11.8852 3.33132Z" fill="white" fill-opacity="0.8"/>
</svg>
