<svg width="82" height="82" viewBox="0 0 82 82" fill="none" xmlns="http://www.w3.org/2000/svg">
<g clip-path="url(#clip0_150_516)">
<path d="M15.6174 32.8056H5.884C5.14964 32.8056 4.55469 32.2107 4.55469 31.4772V15.8708C4.55469 15.1365 5.14964 14.5415 5.884 14.5415H21.4904C22.2248 14.5415 22.8197 15.1365 22.8197 15.8708V21.6345V31.4763C22.8197 32.2107 22.2248 32.8056 21.4904 32.8056H17.8159H15.6174Z" fill="#EE5D33"/>
<path d="M64.4291 65.3247C63.3622 65.3247 62.3618 64.7544 61.8188 63.835L59.4927 59.9018C54.7139 51.823 50.1994 44.1915 48.6359 41.0554C47.4542 38.631 46.8574 36.0389 46.8574 33.3456C46.8574 23.6569 54.7394 15.7739 64.4291 15.7739C74.1188 15.7739 82.0008 23.6569 82.0008 33.3456C82.0008 36.0389 81.4067 38.6246 80.2351 41.0317L80.1686 41.1584C78.6042 44.2844 74.116 51.8712 69.3655 59.9036L67.0413 63.835C66.4955 64.7544 65.496 65.3247 64.4291 65.3247ZM64.4291 17.5961C55.7453 17.5961 48.6796 24.6609 48.6796 33.3456C48.6796 35.7601 49.2154 38.0834 50.2714 40.2509C51.8011 43.3205 56.2993 50.9246 61.0616 58.9752L63.3877 62.9084C63.6036 63.2747 64.0036 63.5025 64.43 63.5025C64.8564 63.5025 65.2555 63.2747 65.4732 62.9084L67.7966 58.977C72.5316 50.9729 77.0034 43.4125 78.5595 40.3074C79.6465 38.0779 80.1786 35.7601 80.1786 33.3456C80.1786 24.6609 73.1129 17.5961 64.4291 17.5961Z" fill="black" fill-opacity="0.8"/>
<path d="M64.4279 22.4141C58.1486 22.4141 53.0391 27.5236 53.0391 33.803C53.0391 35.5496 53.4245 37.226 54.1898 38.7958C55.243 40.9096 58.3253 46.1212 61.5898 51.6389L63.1797 54.3276C63.4403 54.7694 63.915 55.04 64.4279 55.04C64.9409 55.04 65.4156 54.7685 65.6762 54.3276L67.2642 51.6398C70.506 46.1594 73.5691 40.9816 74.6424 38.8396C74.6524 38.8214 74.6625 38.8022 74.6716 38.7831C75.4305 37.2233 75.8159 35.5468 75.8159 33.802C75.8168 27.5227 70.7082 22.4141 64.4279 22.4141Z" fill="#EE5D33"/>
<path d="M64.4277 42.7767C62.2355 42.7767 60.1045 42.0022 58.4262 40.5973C58.0408 40.2748 57.9898 39.6999 58.3132 39.3136C58.6376 38.9282 59.2107 38.8771 59.597 39.1997C60.9463 40.3304 62.6619 40.9536 64.4277 40.9536C68.5805 40.9536 71.9589 37.5752 71.9589 33.4223C71.9589 29.2695 68.5805 25.8911 64.4277 25.8911C60.2748 25.8911 56.8964 29.2695 56.8964 33.4223C56.8964 33.9252 56.4892 34.3334 55.9853 34.3334C55.4815 34.3334 55.0742 33.9252 55.0742 33.4223C55.0742 28.2645 59.2699 24.0688 64.4277 24.0688C69.5855 24.0688 73.7812 28.2645 73.7812 33.4223C73.7812 38.5801 69.5846 42.7767 64.4277 42.7767Z" fill="black" fill-opacity="0.8"/>
<path d="M64.4276 72.0143H25.2453C20.9303 72.0143 17.4198 68.5029 17.4198 64.1879C17.4198 59.8729 20.9303 56.3615 25.2453 56.3615H34.3209C37.8943 56.3615 40.8007 53.455 40.8007 49.8816C40.8007 46.3083 37.8943 43.4018 34.3209 43.4018H14.1963C13.6933 43.4018 13.2852 42.9945 13.2852 42.4907C13.2852 41.9869 13.6933 41.5796 14.1963 41.5796H34.3218C38.8992 41.5796 42.6238 45.3042 42.6238 49.8816C42.6238 54.4591 38.8992 58.1837 34.3218 58.1837H25.2462C21.9362 58.1837 19.2429 60.8769 19.2429 64.1879C19.2429 67.4989 21.9362 70.1921 25.2462 70.1921H64.4276C64.9315 70.1921 65.3388 70.5994 65.3388 71.1032C65.3388 71.6071 64.9315 72.0143 64.4276 72.0143Z" fill="black" fill-opacity="0.8"/>
<path d="M26.4641 37.3611H0.911111C0.408178 37.3611 0 36.9529 0 36.45V10.897C0 10.394 0.408178 9.98584 0.911111 9.98584H26.4641C26.9671 9.98584 27.3752 10.394 27.3752 10.897V36.45C27.3752 36.9538 26.968 37.3611 26.4641 37.3611ZM1.82222 35.5389H25.553V11.8081H1.82222V35.5389Z" fill="black" fill-opacity="0.8"/>
<path d="M17.2337 21.6663C17.0414 21.6663 16.851 21.6062 16.6906 21.4868L13.6876 19.2573L10.6846 21.4868C10.4085 21.6936 10.0395 21.7246 9.73249 21.5697C9.42545 21.4148 9.23047 21.0996 9.23047 20.7552V10.897C9.23047 10.394 9.63865 9.98584 10.1416 9.98584C10.6445 9.98584 11.0527 10.394 11.0527 10.897V18.9439L13.1446 17.3904C13.4671 17.1508 13.9081 17.1508 14.2306 17.3904L16.3226 18.9439V10.897C16.3226 10.394 16.7307 9.98584 17.2337 9.98584C17.7366 9.98584 18.1448 10.394 18.1448 10.897V20.7552C18.1448 21.0996 17.9507 21.4148 17.6428 21.5697C17.5134 21.6344 17.3731 21.6663 17.2337 21.6663Z" fill="black" fill-opacity="0.8"/>
<path d="M10.4222 28.3691H5.6024C5.09946 28.3691 4.69128 27.9609 4.69128 27.458C4.69128 26.9551 5.09946 26.5469 5.6024 26.5469H10.4222C10.9251 26.5469 11.3333 26.9551 11.3333 27.458C11.3333 27.9609 10.9251 28.3691 10.4222 28.3691Z" fill="black" fill-opacity="0.8"/>
<path d="M10.4222 32.8457H5.6024C5.09946 32.8457 4.69128 32.4375 4.69128 31.9345C4.69128 31.4316 5.09946 31.0234 5.6024 31.0234H10.4222C10.9251 31.0234 11.3333 31.4316 11.3333 31.9345C11.3333 32.4375 10.9251 32.8457 10.4222 32.8457Z" fill="black" fill-opacity="0.8"/>
</g>
<defs>
<clipPath id="clip0_150_516">
<rect width="82" height="82" fill="white"/>
</clipPath>
</defs>
</svg>
