<svg width="61" height="60" viewBox="0 0 61 60" fill="none" xmlns="http://www.w3.org/2000/svg">
<path d="M55.3314 20C55.3312 19.5463 55.2076 19.1013 54.9739 18.7125L48.2014 7.425C47.7552 6.6871 47.1267 6.07643 46.3762 5.65173C45.6258 5.22703 44.7787 5.00259 43.9164 5H16.7464C15.0014 5 13.3589 5.93 12.4614 7.4275L5.68886 18.7125C5.45508 19.1013 5.3315 19.5463 5.33136 20C5.33136 22.5125 6.29636 24.785 7.83136 26.545V50C7.83136 50.663 8.09475 51.2989 8.56359 51.7678C9.03243 52.2366 9.66832 52.5 10.3314 52.5H30.3314C30.9944 52.5 31.6303 52.2366 32.0991 51.7678C32.568 51.2989 32.8314 50.663 32.8314 50V37.5H42.8314V50C42.8314 50.663 43.0948 51.2989 43.5636 51.7678C44.0324 52.2366 44.6683 52.5 45.3314 52.5H50.3314C50.9944 52.5 51.6303 52.2366 52.0991 51.7678C52.568 51.2989 52.8314 50.663 52.8314 50V26.545C54.3664 24.785 55.3314 22.5125 55.3314 20ZM50.2914 20.6275C50.1386 21.8352 49.5505 22.9457 48.6373 23.7507C47.7242 24.5557 46.5487 24.9999 45.3314 25C42.5739 25 40.3314 22.7575 40.3314 20C40.3314 19.83 40.2689 19.68 40.2339 19.52L40.2839 19.51L38.3814 10H43.9164L50.2914 20.6275ZM25.3489 20.1625L27.3789 10H33.2814L35.3139 20.1625C35.2264 22.845 33.0314 25 30.3314 25C27.6314 25 25.4364 22.845 25.3489 20.1625ZM16.7464 10H22.2814L20.3814 19.51L20.4314 19.52C20.3939 19.68 20.3314 19.83 20.3314 20C20.3314 22.7575 18.0889 25 15.3314 25C14.114 24.9999 12.9386 24.5557 12.0254 23.7507C11.1123 22.9457 10.5241 21.8352 10.3714 20.6275L16.7464 10ZM25.3314 40H15.3314V32.5H25.3314V40Z" fill="#F7AE30"/>
</svg>
