<svg width="82" height="82" viewBox="0 0 82 82" fill="none" xmlns="http://www.w3.org/2000/svg">
<g clip-path="url(#clip0_150_501)">
<path d="M41.0004 66.061C54.8412 66.061 66.0614 54.8408 66.0614 41C66.0614 27.1592 54.8412 15.939 41.0004 15.939C27.1595 15.939 15.9393 27.1592 15.9393 41C15.9393 54.8408 27.1595 66.061 41.0004 66.061Z" fill="#EE5D33"/>
<path d="M31.4469 59.9308C31.303 59.9308 31.1572 59.8971 31.0214 59.8252C30.5768 59.5892 30.4074 59.038 30.6433 58.5924L49.7484 22.5534C49.9844 22.1088 50.5356 21.9393 50.9812 22.1753C51.4249 22.4104 51.5952 22.9625 51.3593 23.4071L32.2533 59.447C32.0893 59.7541 31.7731 59.9308 31.4469 59.9308Z" fill="black" fill-opacity="0.8"/>
<path d="M31.4159 40.0132C28.155 40.0132 25.5018 37.3601 25.5018 34.0983V27.9838C25.5018 24.723 28.155 22.0698 31.4159 22.0698C34.6767 22.0698 37.3308 24.723 37.3308 27.9838V34.0983C37.3299 37.3592 34.6767 40.0132 31.4159 40.0132ZM31.4159 23.892C29.1599 23.892 27.3241 25.7279 27.3241 27.9838V34.0983C27.3241 36.3551 29.1599 38.1901 31.4159 38.1901C33.6727 38.1901 35.5077 36.3542 35.5077 34.0983V27.9838C35.5077 25.727 33.6718 23.892 31.4159 23.892Z" fill="black" fill-opacity="0.8"/>
<path d="M50.5857 59.9312C47.3248 59.9312 44.6716 57.278 44.6716 54.0162V47.9018C44.6716 44.64 47.3248 41.9868 50.5857 41.9868C53.8474 41.9868 56.5006 44.64 56.5006 47.9018V54.0162C56.5006 57.278 53.8474 59.9312 50.5857 59.9312ZM50.5857 43.809C48.3297 43.809 46.4948 45.6449 46.4948 47.9008V54.0153C46.4948 56.2712 48.3297 58.1071 50.5857 58.1071C52.8416 58.1071 54.6775 56.2712 54.6775 54.0153V47.9008C54.6775 45.6458 52.8416 43.809 50.5857 43.809Z" fill="black" fill-opacity="0.8"/>
<path d="M41 82C38.9919 82.0009 36.9838 81.2693 35.4194 79.807C33.753 78.2508 31.3659 77.7059 29.1901 78.3847C25.1029 79.6639 20.6849 77.5346 19.1342 73.5422C18.3087 71.4165 16.3945 69.8904 14.1386 69.5588C9.901 68.9347 6.84422 65.1016 7.17951 60.8331C7.35809 58.5589 6.29573 56.354 4.407 55.0758C0.860952 52.6759 -0.230559 47.8953 1.92331 44.1944C3.0704 42.2236 3.0704 39.7755 1.92331 37.8047C-0.230559 34.1038 0.860041 29.3241 4.407 26.9233C6.29573 25.645 7.35809 23.4392 7.17951 21.166C6.84422 16.8966 9.901 13.0635 14.1386 12.4403C16.3945 12.1087 18.3078 10.5816 19.1342 8.45602C20.6858 4.46444 25.1029 2.33882 29.1901 3.61347C31.365 4.29316 33.753 3.74831 35.4194 2.19213C38.5491 -0.730711 43.4536 -0.730711 46.5805 2.19213C48.2478 3.74922 50.6359 4.29407 52.8098 3.61347C56.8988 2.33882 61.315 4.46536 62.8666 8.45693C63.6912 10.5826 65.6063 12.1087 67.8622 12.4412C72.0989 13.0644 75.1557 16.8975 74.8213 21.1669C74.6427 23.4402 75.7051 25.646 77.5938 26.9242C81.1399 29.3241 82.2314 34.1038 80.0766 37.8056C78.9304 39.7764 78.9304 42.2254 80.0766 44.1953C82.2314 47.8962 81.1399 52.6768 77.5938 55.0767C75.7051 56.355 74.6427 58.5598 74.8213 60.834C75.1548 65.1044 72.0989 68.9374 67.8622 69.5597C65.6063 69.8913 63.6921 71.4184 62.8657 73.5431C61.315 77.5346 56.8998 79.6639 52.8107 78.3856C50.634 77.7078 48.2478 78.2517 46.5814 79.8079C45.0161 81.2693 43.008 82 41 82ZM31.0761 76.2755C33.1207 76.2755 35.1297 77.0417 36.664 78.4758C39.0957 80.7472 42.906 80.7472 45.3368 78.4758C47.4807 76.4714 50.5539 75.7707 53.3537 76.6463C56.5362 77.6367 59.9629 75.9848 61.1665 72.8825C62.2298 70.1474 64.6934 68.183 67.5962 67.7566C70.888 67.2728 73.2633 64.2935 73.0036 60.9761C72.774 58.0496 74.1407 55.2106 76.5716 53.567C79.3277 51.7019 80.175 47.9882 78.5013 45.1118C77.0262 42.5762 77.0262 39.4247 78.5013 36.8891C80.175 34.0127 79.3277 30.299 76.5716 28.434C74.1407 26.7894 72.774 23.9504 73.0036 21.0248C73.2633 17.7074 70.888 14.729 67.5962 14.2443C64.6934 13.817 62.2288 11.8526 61.1665 9.11749C59.962 6.01607 56.5362 4.36331 53.3537 5.3546C50.5539 6.22836 47.4807 5.52771 45.3368 3.52509C42.9051 1.25278 39.0948 1.25369 36.664 3.52509C34.5192 5.52862 31.4488 6.22927 28.6471 5.3546C25.4701 4.36149 22.0379 6.01607 20.8334 9.11749C19.7711 11.8526 17.3074 13.817 14.4046 14.2443C11.1119 14.729 8.7366 17.7074 8.99809 21.0248C9.22769 23.9504 7.86011 26.7894 5.43017 28.434C2.67406 30.299 1.82673 34.0127 3.50044 36.8891C4.97644 39.4256 4.97644 42.5771 3.50044 45.1118C1.82673 47.9882 2.67497 51.7019 5.43017 53.567C7.86102 55.2106 9.22769 58.0496 8.99809 60.9761C8.73751 64.2935 11.1128 67.2719 14.4046 67.7566C17.3074 68.183 19.7711 70.1483 20.8334 72.8825C22.0388 75.9848 25.4719 77.6349 28.6471 76.6463C29.4434 76.3967 30.2625 76.2755 31.0761 76.2755Z" fill="black" fill-opacity="0.8"/>
<path d="M40.9992 71.5288C33.4288 71.5288 26.1672 68.7381 20.552 63.6696C20.1785 63.3325 20.1493 62.7566 20.4864 62.3831C20.8235 62.0095 21.3984 61.9795 21.7729 62.3175C27.0528 67.0826 33.8807 69.7066 40.9992 69.7066C56.8279 69.7066 69.7056 56.8289 69.7056 41.0002C69.7056 25.1715 56.8279 12.2938 40.9992 12.2938C25.1704 12.2938 12.2928 25.1715 12.2928 41.0002C12.2928 44.9189 13.0682 48.7173 14.597 52.288C14.7947 52.7508 14.5806 53.2865 14.1178 53.4843C13.6549 53.6847 13.1201 53.4669 12.9215 53.005C11.2951 49.2057 10.4706 45.1667 10.4706 40.9993C10.4706 24.1656 24.1655 10.4707 40.9992 10.4707C57.8329 10.4707 71.5278 24.1656 71.5278 40.9993C71.5287 57.8339 57.8329 71.5288 40.9992 71.5288Z" fill="black" fill-opacity="0.8"/>
</g>
<defs>
<clipPath id="clip0_150_501">
<rect width="82" height="82" fill="white"/>
</clipPath>
</defs>
</svg>
