<svg width="83" height="82" viewBox="0 0 83 82" fill="none" xmlns="http://www.w3.org/2000/svg">
<g clip-path="url(#clip0_150_544)">
<path d="M24.7231 26H73.8742C75.8763 26 77.5 28.1166 77.5 30.7292V52.2708C77.5 54.8822 75.8772 57 73.8742 57H9.12585C7.12277 57 5.5 54.8822 5.5 52.2708V30.7292C5.5 28.1178 7.12277 26 9.12585 26H14.5997H24.7231Z" fill="#EE5D33"/>
<path d="M77.7303 62.34H25.2512C24.7483 62.34 24.3401 61.8385 24.3401 61.2181C24.3401 60.5977 24.7483 60.0963 25.2512 60.0963H77.7303C79.3558 60.0963 80.6778 58.4684 80.6778 56.4671V27.0453C80.6778 25.0439 79.3558 23.4161 77.7303 23.4161H5.26967C3.64424 23.4161 2.32222 25.0439 2.32222 27.0453V56.4659C2.32222 58.4673 3.64424 60.0951 5.26967 60.0951C5.7726 60.0951 6.18078 60.5966 6.18078 61.217C6.18078 61.8374 5.7726 62.3389 5.26967 62.3389C2.63929 62.34 0.5 59.7047 0.5 56.4659V27.0453C0.5 23.8065 2.63929 21.1724 5.26967 21.1724H77.7303C80.3607 21.1724 82.5 23.8076 82.5 27.0453V56.4659C82.5 59.7047 80.3598 62.34 77.7303 62.34Z" fill="black" fill-opacity="0.8"/>
<path d="M60.5241 52.0324H54.0635C53.5596 52.0324 53.1523 51.5309 53.1523 50.9105V32.9676C53.1523 32.3483 53.5596 31.8457 54.0635 31.8457C54.5673 31.8457 54.9746 32.3483 54.9746 32.9676V49.7887H60.5241C61.028 49.7887 61.4353 50.2901 61.4353 50.9105C61.4353 51.5309 61.028 52.0324 60.5241 52.0324Z" fill="black" fill-opacity="0.8"/>
<path d="M48.3502 52.0327C47.8464 52.0327 47.4391 51.5312 47.4391 50.9109V36.8372C47.4391 35.3227 46.4378 34.0909 45.2087 34.0909H42.4481C41.2181 34.0909 40.2168 35.3227 40.2168 36.8372V50.9109C40.2168 51.5312 39.8086 52.0327 39.3056 52.0327C38.8027 52.0327 38.3945 51.5312 38.3945 50.9109V36.8372C38.3945 34.0853 40.2131 31.8472 42.4481 31.8472H45.2087C47.4437 31.8472 49.2614 34.0864 49.2614 36.8372V50.9109C49.2614 51.5312 48.8532 52.0327 48.3502 52.0327Z" fill="black" fill-opacity="0.8"/>
<path d="M71.9324 52.0324H65.4717C64.9678 52.0324 64.5605 51.5309 64.5605 50.9105V32.9676C64.5605 32.3483 64.9678 31.8457 65.4717 31.8457H71.9324C72.4362 31.8457 72.8435 32.3483 72.8435 32.9676C72.8435 33.5868 72.4362 34.0894 71.9324 34.0894H66.3828V49.7887H71.9324C72.4362 49.7887 72.8435 50.2901 72.8435 50.9105C72.8435 51.5309 72.4362 52.0324 71.9324 52.0324Z" fill="black" fill-opacity="0.8"/>
<path d="M69.6974 43.0621H65.4717C64.9678 43.0621 64.5605 42.5595 64.5605 41.9402C64.5605 41.321 64.9678 40.8184 65.4717 40.8184H69.6974C70.2012 40.8184 70.6085 41.321 70.6085 41.9402C70.6085 42.5595 70.2012 43.0621 69.6974 43.0621Z" fill="black" fill-opacity="0.8"/>
<path d="M48.3502 43.0621H39.3056C38.8027 43.0621 38.3945 42.5595 38.3945 41.9402C38.3945 41.321 38.8027 40.8184 39.3056 40.8184H48.3502C48.8541 40.8184 49.2614 41.321 49.2614 41.9402C49.2614 42.5595 48.8532 43.0621 48.3502 43.0621Z" fill="black" fill-opacity="0.8"/>
<path d="M31.2862 52.4552H26.419C25.9161 52.4552 25.5079 51.9537 25.5079 51.3333C25.5079 50.7129 25.9161 50.2115 26.419 50.2115H31.2862C32.2128 50.2115 32.9654 49.2837 32.9654 48.1439V45.3404C32.9654 44.1994 32.2119 43.2728 31.2862 43.2728H28.5756C26.645 43.2728 25.0742 41.3387 25.0742 38.9615V36.158C25.0742 33.7808 26.645 31.8467 28.5756 31.8467H32.0688C32.5718 31.8467 32.9799 32.3493 32.9799 32.9685C32.9799 33.5878 32.5718 34.0904 32.0688 34.0904H28.5756C27.649 34.0904 26.8964 35.0182 26.8964 36.158V38.9615C26.8964 40.1024 27.6499 41.0291 28.5756 41.0291H31.2862C33.2168 41.0291 34.7876 42.9631 34.7876 45.3404V48.1439C34.7876 50.5211 33.2168 52.4552 31.2862 52.4552Z" fill="black" fill-opacity="0.8"/>
<path d="M10.4518 70.0003C8.59773 70.0003 7.08984 68.1437 7.08984 65.8618C7.08984 63.5788 8.59773 61.7222 10.4518 61.7222C12.306 61.7222 13.8138 63.5788 13.8138 65.8618C13.8148 68.1425 12.306 70.0003 10.4518 70.0003ZM10.4518 63.9648C9.60269 63.9648 8.91207 64.8162 8.91207 65.8607C8.91207 66.9051 9.60269 67.7555 10.4518 67.7555C11.301 67.7555 11.9916 66.9051 11.9916 65.8607C11.9916 64.8162 11.301 63.9648 10.4518 63.9648Z" fill="black" fill-opacity="0.8"/>
<path d="M19.4809 70.0003C17.6268 70.0003 16.1189 68.1437 16.1189 65.8618C16.1189 63.5788 17.6277 61.7222 19.4809 61.7222C21.3341 61.7222 22.8429 63.5788 22.8429 65.8618C22.8429 68.1425 21.335 70.0003 19.4809 70.0003ZM19.4809 63.9648C18.6317 63.9648 17.9411 64.8162 17.9411 65.8607C17.9411 66.9051 18.6317 67.7555 19.4809 67.7555C20.3301 67.7555 21.0207 66.9051 21.0207 65.8607C21.0207 64.8162 20.3301 63.9648 19.4809 63.9648Z" fill="black" fill-opacity="0.8"/>
<path d="M12.5651 65.4511C12.4439 65.4511 12.32 65.4219 12.2016 65.358C11.7406 65.1101 11.5292 64.4482 11.7305 63.8816L17.0696 48.7949C17.2701 48.2273 17.8067 47.967 18.2687 48.2138C18.7297 48.4617 18.9411 49.1236 18.7397 49.6902L13.4006 64.7769C13.2512 65.1987 12.9159 65.4511 12.5651 65.4511Z" fill="black" fill-opacity="0.8"/>
<path d="M17.37 65.4511C17.0183 65.4511 16.6839 65.1987 16.5345 64.7769L11.1954 49.6902C10.994 49.1225 11.2054 48.4606 11.6664 48.2138C12.1265 47.967 12.665 48.2273 12.8654 48.7949L18.2045 63.8816C18.4059 64.4493 18.1945 65.1112 17.7335 65.358C17.6151 65.4219 17.4912 65.4511 17.37 65.4511Z" fill="black" fill-opacity="0.8"/>
<path d="M14.9678 47.1049C14.4648 47.1049 14.0566 46.6023 14.0566 45.9831V45.4221C14.0566 44.8029 14.4648 44.3003 14.9678 44.3003C15.4707 44.3003 15.8789 44.8029 15.8789 45.4221V45.9831C15.8789 46.6012 15.4707 47.1049 14.9678 47.1049Z" fill="black" fill-opacity="0.8"/>
<path d="M14.9678 42.2116C14.4648 42.2116 14.0566 41.709 14.0566 41.0897V40.0071C14.0566 39.3879 14.4648 38.8853 14.9678 38.8853C15.4707 38.8853 15.8789 39.3879 15.8789 40.0071V41.0897C15.8789 41.709 15.4707 42.2116 14.9678 42.2116ZM14.9678 36.7975C14.4648 36.7975 14.0566 36.2949 14.0566 35.6756V34.593C14.0566 33.9738 14.4648 33.4712 14.9678 33.4712C15.4707 33.4712 15.8789 33.9738 15.8789 34.593V35.6756C15.8789 36.2949 15.4707 36.7975 14.9678 36.7975Z" fill="black" fill-opacity="0.8"/>
<path d="M14.9678 31.3833C14.4648 31.3833 14.0566 30.8807 14.0566 30.2614V29.7005C14.0566 29.0812 14.4648 28.5786 14.9678 28.5786C15.4707 28.5786 15.8789 29.0812 15.8789 29.7005V30.2614C15.8789 30.8807 15.4707 31.3833 14.9678 31.3833Z" fill="black" fill-opacity="0.8"/>
</g>
<defs>
<clipPath id="clip0_150_544">
<rect width="82" height="82" fill="white" transform="translate(0.5)"/>
</clipPath>
</defs>
</svg>
