<svg width="61" height="60" viewBox="0 0 61 60" fill="none" xmlns="http://www.w3.org/2000/svg">
<path fill-rule="evenodd" clip-rule="evenodd" d="M30.5 15.0001C29.3509 15.0001 28.2131 15.2265 27.1515 15.6662C26.0899 16.1059 25.1253 16.7505 24.3128 17.563C23.5003 18.3755 22.8558 19.3401 22.4161 20.4017C21.9763 21.4633 21.75 22.6011 21.75 23.7501C21.75 24.8992 21.9763 26.037 22.4161 27.0986C22.8558 28.1602 23.5003 29.1248 24.3128 29.9373C25.1253 30.7498 26.0899 31.3944 27.1515 31.8341C28.2131 32.2738 29.3509 32.5001 30.5 32.5001C32.8206 32.5001 35.0462 31.5783 36.6872 29.9373C38.3281 28.2964 39.25 26.0708 39.25 23.7501C39.25 21.4295 38.3281 19.2039 36.6872 17.563C35.0462 15.922 32.8206 15.0001 30.5 15.0001ZM26.75 35.0001C24.0978 35.0001 21.5543 36.0537 19.6789 37.9291C17.8036 39.8044 16.75 42.348 16.75 45.0001C16.75 46.3262 17.2768 47.598 18.2145 48.5357C19.1521 49.4734 20.4239 50.0001 21.75 50.0001H39.25C40.5761 50.0001 41.8479 49.4734 42.7855 48.5357C43.7232 47.598 44.25 46.3262 44.25 45.0001C44.25 42.348 43.1964 39.8044 41.3211 37.9291C39.4457 36.0537 36.9022 35.0001 34.25 35.0001H26.75ZM43.8 27.2601C44.5947 24.2335 44.3353 21.0265 43.0643 18.1669C41.7934 15.3074 39.5867 12.9658 36.8075 11.5276C37.8665 10.8039 39.0718 10.3219 40.3378 10.1157C41.6038 9.90955 42.8997 9.98423 44.1336 10.3345C45.3676 10.6848 46.5094 11.302 47.4783 12.1426C48.4472 12.9832 49.2195 14.0265 49.7403 15.1987C50.2612 16.3709 50.518 17.6433 50.4926 18.9257C50.4671 20.2082 50.16 21.4693 49.5929 22.6199C49.0259 23.7705 48.2129 24.7823 47.2114 25.5838C46.2099 26.3852 45.0444 26.9567 43.7975 27.2576L43.8 27.2601ZM49.25 45.0001H50.5C51.8261 45.0001 53.0979 44.4734 54.0355 43.5357C54.9732 42.598 55.5 41.3262 55.5 40.0001C55.5 37.348 54.4464 34.8044 52.5711 32.9291C50.6957 31.0537 48.1522 30.0001 45.5 30.0001H42.75C42.41 30.6661 42.0161 31.3032 41.5725 31.9051C43.9013 33.2077 45.8404 35.1079 47.19 37.4098C48.5396 39.7116 49.2507 42.3318 49.25 45.0001ZM10.5 18.7501C10.4996 17.1571 10.9341 15.5942 11.7567 14.23C12.5793 12.8657 13.7586 11.752 15.1677 11.0087C16.5767 10.2655 18.1619 9.92103 19.7523 10.0125C21.3427 10.1039 22.878 10.6278 24.1925 11.5276C21.4106 12.9627 19.2017 15.304 17.9307 18.1646C16.6597 21.0252 16.4028 24.2338 17.2025 27.2601C15.292 26.8003 13.5919 25.7108 12.376 24.167C11.1602 22.6233 10.4993 20.7152 10.5 18.7501ZM18.25 30.0001H15.5C12.8478 30.0001 10.3043 31.0537 8.42893 32.9291C6.55357 34.8044 5.5 37.348 5.5 40.0001C5.5 41.3262 6.02678 42.598 6.96447 43.5357C7.90215 44.4734 9.17392 45.0001 10.5 45.0001H11.75C11.7493 42.3318 12.4604 39.7116 13.81 37.4098C15.1596 35.1079 17.0987 33.2077 19.4275 31.9051C18.9839 31.3032 18.59 30.6661 18.25 30.0001Z" fill="#F7AE30"/>
</svg>
