<svg width="62" height="63" viewBox="0 0 62 63" fill="none" xmlns="http://www.w3.org/2000/svg">
<path fill-rule="evenodd" clip-rule="evenodd" d="M33.5808 29.3091V10.8793C33.5808 10.1957 33.3093 9.54011 32.8259 9.05672C32.3425 8.57332 31.6869 8.30176 31.0033 8.30176C30.3196 8.30176 29.664 8.57332 29.1806 9.05672C28.6972 9.54011 28.4257 10.1957 28.4257 10.8793V29.3091L22.7034 22.1537C22.4961 21.8777 22.2353 21.6461 21.9367 21.4727C21.6381 21.2994 21.3078 21.1878 20.9652 21.1446C20.6227 21.1014 20.2749 21.1274 19.9426 21.2212C19.6103 21.3149 19.3003 21.4745 19.0308 21.6904C18.7614 21.9063 18.5381 22.1741 18.3741 22.478C18.2102 22.7818 18.1089 23.1155 18.0764 23.4593C18.0439 23.803 18.0808 24.1498 18.1849 24.479C18.289 24.8082 18.4582 25.1131 18.6824 25.3757L28.9927 38.2636C29.2343 38.5647 29.5403 38.8076 29.8883 38.9746C30.2363 39.1415 30.6173 39.2282 31.0033 39.2282C31.3892 39.2282 31.7703 39.1415 32.1182 38.9746C32.4662 38.8076 32.7723 38.5647 33.0138 38.2636L43.3241 25.3757C43.5483 25.1131 43.7175 24.8082 43.8216 24.479C43.9257 24.1498 43.9626 23.803 43.9301 23.4593C43.8976 23.1155 43.7964 22.7818 43.6324 22.478C43.4685 22.1741 43.2452 21.9063 42.9757 21.6904C42.7063 21.4745 42.3962 21.3149 42.0639 21.2212C41.7316 21.1274 41.3839 21.1014 41.0413 21.1446C40.6988 21.1878 40.3684 21.2994 40.0698 21.4727C39.7712 21.6461 39.5105 21.8777 39.3031 22.1537L33.5808 29.3091Z" fill="#F7AE30"/>
<path fill-rule="evenodd" clip-rule="evenodd" d="M24.9623 41.4856L19.0364 34.0776H12.9585C11.5912 34.0776 10.28 34.6208 9.3132 35.5876C8.34642 36.5543 7.80328 37.8656 7.80328 39.2328V49.5432C7.80328 50.9104 8.34642 52.2216 9.3132 53.1884C10.28 54.1552 11.5912 54.6983 12.9585 54.6983H49.0447C50.4119 54.6983 51.7231 54.1552 52.6899 53.1884C53.6567 52.2216 54.1998 50.9104 54.1998 49.5432V39.2328C54.1998 37.8656 53.6567 36.5543 52.6899 35.5876C51.7231 34.6208 50.4119 34.0776 49.0447 34.0776H42.9667L37.0383 41.4856C36.3138 42.3911 35.395 43.122 34.3498 43.6243C33.3046 44.1266 32.1599 44.3874 31.0003 44.3874C29.8407 44.3874 28.6959 44.1266 27.6507 43.6243C26.6055 43.122 25.6867 42.3911 24.9623 41.4856ZM43.8895 41.8104C43.2059 41.8104 42.5503 42.082 42.0669 42.5654C41.5835 43.0487 41.3119 43.7044 41.3119 44.388C41.3119 45.0716 41.5835 45.7272 42.0669 46.2106C42.5503 46.694 43.2059 46.9656 43.8895 46.9656H43.9153C44.5989 46.9656 45.2545 46.694 45.7379 46.2106C46.2213 45.7272 46.4929 45.0716 46.4929 44.388C46.4929 43.7044 46.2213 43.0487 45.7379 42.5654C45.2545 42.082 44.5989 41.8104 43.9153 41.8104H43.8895Z" fill="#F7AE30"/>
</svg>
