<svg width="82" height="82" viewBox="0 0 82 82" fill="none" xmlns="http://www.w3.org/2000/svg">
<path d="M41 65.0498C51.7663 65.0498 60.4941 56.322 60.4941 45.5557C60.4941 34.7893 51.7663 26.0615 41 26.0615C30.2337 26.0615 21.5059 34.7893 21.5059 45.5557C21.5059 56.322 30.2337 65.0498 41 65.0498Z" fill="#EE5D33"/>
<path d="M41 71.5412C34.9147 71.5412 28.9979 69.3938 24.3394 65.4924C23.954 65.1698 23.903 64.5949 24.2255 64.2095C24.5481 63.8223 25.1221 63.7713 25.5093 64.0956C29.8407 67.721 35.342 69.719 41 69.719C54.3131 69.719 65.1444 58.8877 65.1444 45.5746C65.1444 32.2614 54.3131 21.4301 41 21.4301C27.9911 21.4301 17.3521 31.7703 16.8729 44.6635H20.8298C21.3327 44.6635 21.7409 45.0707 21.7409 45.5746C21.7409 46.0784 21.3327 46.4857 20.8298 46.4857H15.9444C15.4415 46.4857 15.0333 46.0784 15.0333 45.5746C15.0333 31.2565 26.6819 19.6079 41 19.6079C55.3181 19.6079 66.9667 31.2565 66.9667 45.5746C66.9667 59.8927 55.3181 71.5412 41 71.5412Z" fill="black" fill-opacity="0.8"/>
<path d="M40.9995 82C20.915 82 4.57422 65.6592 4.57422 45.5747C4.57422 28.023 16.9344 13.1082 34.076 9.81631V7.2488H30.1154C29.6125 7.2488 29.2043 6.84062 29.2043 6.33769C29.2043 2.84267 32.047 0 35.542 0H46.4571C49.9521 0 52.7948 2.84267 52.7948 6.33769C52.7948 6.84062 52.3875 7.2488 51.8837 7.2488H47.9222V9.81631C65.0656 13.1072 77.4248 28.0203 77.4248 45.5747C77.4248 65.6592 61.085 82 40.9995 82ZM35.8982 10.4705C35.8991 10.4796 35.9 10.4896 35.901 10.4978C35.941 10.9698 35.6185 11.3934 35.152 11.4727C18.4896 14.3099 6.39644 28.6517 6.39644 45.5747C6.39644 64.6552 21.919 80.1778 40.9995 80.1778C60.08 80.1778 75.6026 64.6552 75.6026 45.5747C75.6026 28.6481 63.5058 14.3063 46.8379 11.4718C46.3714 11.3925 46.0434 10.9689 46.0835 10.4969C46.0863 10.4577 46.0926 10.4186 46.1008 10.3812V6.33769C46.1008 5.83476 46.5081 5.42658 47.012 5.42658H50.8805C50.4578 3.37202 48.6356 1.82222 46.4571 1.82222H35.542C33.3644 1.82222 31.5413 3.37202 31.1194 5.42658H34.988C35.491 5.42658 35.8991 5.83476 35.8991 6.33769V10.4705H35.8982Z" fill="black" fill-opacity="0.8"/>
<path d="M38.9628 56.4408H26.9288C26.5698 56.4408 26.2446 56.2304 26.0979 55.9024C25.9503 55.5753 26.0095 55.1926 26.2482 54.9248L36.8125 43.0448C38.6102 41.0239 38.4279 37.918 36.4071 36.1203C34.3853 34.3236 31.2803 34.5049 29.4817 36.5258C29.1483 36.9012 28.5715 36.9358 28.1952 36.6014C27.819 36.267 27.7852 35.6912 28.1196 35.3149C30.5842 32.5433 34.8445 32.2937 37.617 34.7591C40.3886 37.2246 40.6383 41.485 38.1728 44.2566L28.9578 54.6186H38.9628C39.4657 54.6186 39.8739 55.0259 39.8739 55.5297C39.8739 56.0336 39.4657 56.4408 38.9628 56.4408Z" fill="black" fill-opacity="0.8"/>
<path d="M51.808 56.4407C51.3041 56.4407 50.8968 56.0334 50.8968 55.5296V51.9061H41.2864C40.9557 51.9061 40.6514 51.7275 40.4901 51.4387C40.3298 51.1499 40.3371 50.7973 40.5111 50.5157L51.0326 33.4898C51.2458 33.1436 51.6631 32.9796 52.0567 33.0925C52.4485 33.2037 52.7191 33.5618 52.7191 33.969V50.0839H55.8788C56.3827 50.0839 56.7899 50.4911 56.7899 50.995C56.7899 51.4988 56.3827 51.9061 55.8788 51.9061H52.7191V55.5305C52.7191 56.0334 52.3118 56.4407 51.808 56.4407ZM42.9201 50.0839H50.8968V37.1771L42.9201 50.0839Z" fill="black" fill-opacity="0.8"/>
<path d="M62.0155 46.4858H61.1709C60.667 46.4858 60.2598 46.0785 60.2598 45.5747C60.2598 45.0708 60.667 44.6636 61.1709 44.6636H62.0155C62.5193 44.6636 62.9266 45.0708 62.9266 45.5747C62.9266 46.0785 62.5193 46.4858 62.0155 46.4858Z" fill="black" fill-opacity="0.8"/>
<path d="M41.001 26.3148C40.498 26.3148 40.0898 25.9066 40.0898 25.4037V24.5591C40.0898 24.0561 40.498 23.6479 41.001 23.6479C41.5039 23.6479 41.9121 24.0561 41.9121 24.5591V25.4037C41.9121 25.9075 41.5039 26.3148 41.001 26.3148Z" fill="black" fill-opacity="0.8"/>
<path d="M41.001 67.5008C40.498 67.5008 40.0898 67.0935 40.0898 66.5897V65.7451C40.0898 65.2413 40.498 64.834 41.001 64.834C41.5039 64.834 41.9121 65.2413 41.9121 65.7451V66.5897C41.9121 67.0935 41.5039 67.5008 41.001 67.5008Z" fill="black" fill-opacity="0.8"/>
</svg>
