<svg width="22" height="21" viewBox="0 0 22 21" fill="none" xmlns="http://www.w3.org/2000/svg">
<path d="M12.0742 3.33132C11.7362 2.42402 10.4528 2.42402 10.1148 3.33132L8.62162 7.33937C8.46919 7.74851 8.07856 8.01984 7.64194 8.01984H3.4457C2.42917 8.01984 2.01059 9.32375 2.83719 9.91541L6.35451 12.4331C6.73838 12.7078 6.89049 13.2058 6.72568 13.6482L5.47335 17.0097C5.11317 17.9765 6.22258 18.8253 7.06153 18.2248L10.486 15.7736C10.8499 15.5131 11.3391 15.5131 11.703 15.7736L15.1274 18.2248C15.9664 18.8253 17.0758 17.9765 16.7156 17.0097L15.4633 13.6482C15.2985 13.2058 15.4506 12.7078 15.8345 12.4331L19.3518 9.91541C20.1784 9.32374 19.7598 8.01984 18.7433 8.01984H14.547C14.1104 8.01984 13.7198 7.74851 13.5674 7.33937L12.0742 3.33132Z" fill="#F7AE30"/>
</svg>
