<svg width="61" height="60" viewBox="0 0 61 60" fill="none" xmlns="http://www.w3.org/2000/svg">
<path d="M8.29484 23.251H22.7288V10.4433C22.7264 10.0565 22.571 9.68641 22.2966 9.41386C22.0221 9.14132 21.6509 8.98849 21.2642 8.98877H8.29484C7.90965 8.99059 7.54074 9.14442 7.26837 9.4168C6.99599 9.68917 6.84216 10.0581 6.84033 10.4433V21.7965C6.84216 22.1817 6.99599 22.5506 7.26837 22.823C7.54074 23.0954 7.90965 23.2492 8.29484 23.251ZM9.76953 14.5543C9.76823 14.4213 9.79348 14.2893 9.84378 14.1662C9.89408 14.0431 9.96844 13.9312 10.0625 13.8371C10.1566 13.7431 10.2684 13.6688 10.3916 13.6185C10.5147 13.5682 10.6466 13.5429 10.7796 13.5442H18.7895C18.9223 13.5438 19.0538 13.5696 19.1766 13.6202C19.2993 13.6708 19.4109 13.7452 19.5047 13.8391C19.5986 13.9329 19.673 14.0445 19.7236 14.1672C19.7742 14.29 19.8 14.4215 19.7996 14.5543V19.1805C19.7988 19.4481 19.6921 19.7046 19.5028 19.8938C19.3136 20.0831 19.0571 20.1897 18.7895 20.1905H10.7796C10.6469 20.191 10.5153 20.1652 10.3926 20.1146C10.2698 20.064 10.1583 19.9896 10.0644 19.8957C9.9705 19.8018 9.89611 19.6903 9.84552 19.5675C9.79492 19.4448 9.76911 19.3132 9.76957 19.1805L9.76953 14.5543ZM49.1118 35.5637C48.8516 35.5594 48.5915 35.5763 48.3341 35.6143L42.7585 42.6242H56.8994C56.7085 40.6909 55.8057 38.8977 54.3665 37.5929C52.9273 36.2881 51.0545 35.5648 49.1118 35.5637ZM16.0017 25.9176C16.1554 26.3854 16.4532 26.7926 16.8523 27.081C17.2514 27.3695 17.7314 27.5244 18.2238 27.5236H26.1428C26.4407 27.5224 26.726 27.4032 26.9362 27.1921C27.1464 26.981 27.2645 26.6953 27.2645 26.3974C27.2645 26.0995 27.1464 25.8137 26.9362 25.6026C26.726 25.3916 26.4407 25.2724 26.1428 25.2712H15.7795L16.0017 25.9176ZM53.5662 44.6443C51.8252 44.6444 45.6705 44.6443 44.0412 44.6443C43.5803 45.5483 43.3304 46.545 43.3103 47.5595C43.2903 48.574 43.5006 49.5799 43.9255 50.5013C44.3503 51.4228 44.9787 52.2359 45.7632 52.8795C46.5477 53.523 47.468 53.9802 48.4548 54.2167C49.4415 54.4532 50.4691 54.4627 51.4601 54.2447C52.4511 54.0267 53.3797 53.5867 54.1761 52.9579C54.9725 52.3291 55.6158 51.5278 56.0578 50.6145C56.4998 49.7011 56.7288 48.6993 56.7277 47.6846C56.726 46.6259 56.4696 45.5831 55.9803 44.6443H53.5662ZM19.7592 47.3008L10.4362 47.2301L8.39589 47.22C8.38577 47.3715 8.38577 47.523 8.38577 47.6846C8.69951 56.5808 21.5 56.5673 21.8096 47.6845C21.8096 47.5634 21.8096 47.4422 21.7995 47.321L19.7592 47.3008Z" fill="#F7AE30"/>
<path d="M43.6268 21.261H45.6974L45.4348 20.1398V19.2408H48.3741C48.3767 17.7102 48.3713 15.0467 48.3741 13.5137H45.4348V12.5037C45.434 12.236 45.3273 11.9796 45.138 11.7903C44.9488 11.6011 44.6923 11.4944 44.4247 11.4936H40.7581L39.445 8.51388C39.06 7.67138 38.3069 7.1434 37.5461 7.70575C37.127 8.12862 36.8442 8.66744 36.7344 9.25263C36.6246 9.83781 36.6927 10.4425 36.93 10.9885L37.2835 11.7865C36.6875 12.0482 36.1808 12.4781 35.8256 13.0235C35.4703 13.5689 35.282 14.2062 35.2836 14.8571V17.8974C35.2834 18.3391 35.3703 18.7766 35.5393 19.1848C35.7083 19.5929 35.956 19.9638 36.2684 20.2761C36.5807 20.5885 36.9516 20.8363 37.3598 21.0052C37.7679 21.1742 38.2054 21.2611 38.6471 21.261C38.8728 21.2604 40.7684 21.2613 41.041 21.261V34.2808C41.0409 35.4353 40.5822 36.5426 39.7658 37.359C38.9494 38.1754 37.8422 38.6341 36.6876 38.6342H31.4554C30.874 38.6322 30.2988 38.5143 29.7636 38.2872C29.2283 38.0601 28.7438 37.7285 28.3384 37.3117C27.9329 36.895 27.6147 36.4015 27.4024 35.8602C27.1901 35.319 27.088 34.7408 27.102 34.1595L27.2333 29.5435H21.8092C15.91 29.5439 4.07395 32.7302 4.40589 45.1694L5.20363 45.1794C5.3889 43.1553 6.32317 41.2732 7.82345 39.9019C9.32373 38.5305 11.2819 37.7687 13.3145 37.7655H17.0518C19.1053 37.7737 21.0801 38.5562 22.5818 39.9568C24.0834 41.3574 25.0015 43.273 25.1525 45.3209L36.6977 45.4117C37.0899 45.4213 37.479 45.3385 37.8334 45.1701C38.1878 45.0016 38.4977 44.7523 38.738 44.4421C39.3348 43.6421 45.8977 35.4626 46.6872 34.4322L43.6268 21.261Z" fill="#F7AE30"/>
<path d="M17.0529 39.7856H13.3156C11.8166 39.7869 10.37 40.3375 9.24952 41.3333C8.12903 42.3291 7.41232 43.701 7.23499 45.1895L9.59858 45.2097L23.1335 45.3107C22.9837 43.8004 22.279 42.3994 21.1558 41.3788C20.0325 40.3582 18.5706 39.7905 17.0529 39.7856Z" fill="#F7AE30"/>
<path d="M17.7794 15.5645H11.7897V18.1707H17.7794V15.5645Z" fill="#F7AE30"/>
</svg>
