<svg width="20" height="20" viewBox="0 0 20 20" fill="none" xmlns="http://www.w3.org/2000/svg">
<path d="M6.03636 0.287231H14.0545C17.1091 0.287231 19.5909 2.76905 19.5909 5.8236V13.8418C19.5909 15.3101 19.0076 16.7183 17.9693 17.7566C16.9311 18.7948 15.5229 19.3781 14.0545 19.3781H6.03636C2.98182 19.3781 0.5 16.8963 0.5 13.8418V5.8236C0.5 4.35526 1.08329 2.94706 2.12156 1.90879C3.15983 0.870525 4.56803 0.287231 6.03636 0.287231ZM5.84545 2.19632C4.93407 2.19632 4.06002 2.55837 3.41558 3.20281C2.77114 3.84725 2.40909 4.72131 2.40909 5.63269V14.0327C2.40909 15.9322 3.94591 17.4691 5.84545 17.4691H14.2455C15.1568 17.4691 16.0309 17.107 16.6753 16.4626C17.3198 15.8181 17.6818 14.9441 17.6818 14.0327V5.63269C17.6818 3.73314 16.145 2.19632 14.2455 2.19632H5.84545ZM15.0568 3.62814C15.3733 3.62814 15.6768 3.75385 15.9005 3.97762C16.1243 4.20138 16.25 4.50487 16.25 4.82132C16.25 5.13777 16.1243 5.44126 15.9005 5.66503C15.6768 5.88879 15.3733 6.0145 15.0568 6.0145C14.7404 6.0145 14.4369 5.88879 14.2131 5.66503C13.9893 5.44126 13.8636 5.13777 13.8636 4.82132C13.8636 4.50487 13.9893 4.20138 14.2131 3.97762C14.4369 3.75385 14.7404 3.62814 15.0568 3.62814ZM10.0455 5.05996C11.3113 5.05996 12.5252 5.5628 13.4203 6.45786C14.3153 7.35292 14.8182 8.56688 14.8182 9.83269C14.8182 11.0985 14.3153 12.3125 13.4203 13.2075C12.5252 14.1026 11.3113 14.6054 10.0455 14.6054C8.77965 14.6054 7.56569 14.1026 6.67063 13.2075C5.77557 12.3125 5.27273 11.0985 5.27273 9.83269C5.27273 8.56688 5.77557 7.35292 6.67063 6.45786C7.56569 5.5628 8.77965 5.05996 10.0455 5.05996ZM10.0455 6.96905C9.28597 6.96905 8.55759 7.27075 8.02056 7.80779C7.48352 8.34483 7.18182 9.0732 7.18182 9.83269C7.18182 10.5922 7.48352 11.3205 8.02056 11.8576C8.55759 12.3946 9.28597 12.6963 10.0455 12.6963C10.8049 12.6963 11.5333 12.3946 12.0704 11.8576C12.6074 11.3205 12.9091 10.5922 12.9091 9.83269C12.9091 9.0732 12.6074 8.34483 12.0704 7.80779C11.5333 7.27075 10.8049 6.96905 10.0455 6.96905Z" fill="#217951"/>
</svg>
