<svg width="16" height="16" viewBox="0 0 16 16" fill="none" xmlns="http://www.w3.org/2000/svg">
<path d="M5.25479 0.38916H11.5071C13.8889 0.38916 15.8241 2.32439 15.8241 4.70621V10.9585C15.8241 12.1034 15.3693 13.2015 14.5597 14.0111C13.7501 14.8207 12.652 15.2755 11.5071 15.2755H5.25479C2.87297 15.2755 0.937744 13.3403 0.937744 10.9585V4.70621C0.937744 3.56125 1.39257 2.4632 2.20218 1.65359C3.01178 0.843991 4.10984 0.38916 5.25479 0.38916ZM5.10593 1.8778C4.39527 1.8778 3.71371 2.16011 3.2112 2.66262C2.70869 3.16513 2.42638 3.84668 2.42638 4.55734V11.1073C2.42638 12.5885 3.62473 13.7869 5.10593 13.7869H11.6559C12.3666 13.7869 13.0481 13.5046 13.5507 13.0021C14.0532 12.4996 14.3355 11.818 14.3355 11.1073V4.55734C14.3355 3.07615 13.1371 1.8778 11.6559 1.8778H5.10593ZM12.2886 2.99427C12.5354 2.99427 12.772 3.0923 12.9465 3.26678C13.121 3.44126 13.219 3.67791 13.219 3.92467C13.219 4.17143 13.121 4.40808 12.9465 4.58256C12.772 4.75705 12.5354 4.85507 12.2886 4.85507C12.0418 4.85507 11.8052 4.75705 11.6307 4.58256C11.4562 4.40808 11.3582 4.17143 11.3582 3.92467C11.3582 3.67791 11.4562 3.44126 11.6307 3.26678C11.8052 3.0923 12.0418 2.99427 12.2886 2.99427ZM8.38093 4.11075C9.36795 4.11075 10.3146 4.50285 11.0125 5.20078C11.7104 5.89871 12.1025 6.84531 12.1025 7.83234C12.1025 8.81937 11.7104 9.76597 11.0125 10.4639C10.3146 11.1618 9.36795 11.5539 8.38093 11.5539C7.3939 11.5539 6.4473 11.1618 5.74936 10.4639C5.05143 9.76597 4.65934 8.81937 4.65934 7.83234C4.65934 6.84531 5.05143 5.89871 5.74936 5.20078C6.4473 4.50285 7.3939 4.11075 8.38093 4.11075ZM8.38093 5.59939C7.78871 5.59939 7.22075 5.83464 6.80199 6.2534C6.38323 6.67216 6.14797 7.24013 6.14797 7.83234C6.14797 8.42456 6.38323 8.99252 6.80199 9.41128C7.22075 9.83004 7.78871 10.0653 8.38093 10.0653C8.97314 10.0653 9.5411 9.83004 9.95986 9.41128C10.3786 8.99252 10.6139 8.42456 10.6139 7.83234C10.6139 7.24013 10.3786 6.67216 9.95986 6.2534C9.5411 5.83464 8.97314 5.59939 8.38093 5.59939Z" fill="#F5EEDF"/>
</svg>
