<svg width="15" height="14" viewBox="0 0 15 14" fill="none" xmlns="http://www.w3.org/2000/svg">
<path d="M7.91904 0C8.70652 0.00209995 9.10621 0.00629985 9.45131 0.0160996L9.5871 0.0209995C9.7439 0.0265994 9.8986 0.0335992 10.0855 0.041999C10.8303 0.0769982 11.3385 0.194596 11.7844 0.367491C12.2463 0.545287 12.6355 0.786082 13.0247 1.17457C13.3807 1.52449 13.6561 1.94777 13.8318 2.41494C14.0047 2.86083 14.1223 3.36902 14.1573 4.1145C14.1657 4.3007 14.1727 4.4554 14.1783 4.61289L14.1825 4.74869C14.193 5.09308 14.1972 5.49277 14.1986 6.28025L14.1993 6.80244V7.71942C14.201 8.22999 14.1956 8.74056 14.1832 9.25098L14.179 9.38678C14.1734 9.54428 14.1664 9.69897 14.158 9.88517C14.123 10.6307 14.004 11.1381 13.8318 11.5847C13.6566 12.0522 13.3811 12.4755 13.0247 12.8251C12.6747 13.1809 12.2515 13.4563 11.7844 13.6322C11.3385 13.8051 10.8303 13.9227 10.0855 13.9577C9.9194 13.9655 9.75327 13.9725 9.5871 13.9787L9.45131 13.9829C9.10621 13.9927 8.70652 13.9976 7.91904 13.999L7.39685 13.9997H6.48058C5.96977 14.0014 5.45897 13.9961 4.94831 13.9836L4.81252 13.9794C4.64635 13.9731 4.48021 13.9658 4.31413 13.9577C3.56934 13.9227 3.06116 13.8051 2.61457 13.6322C2.14745 13.4567 1.72434 13.1813 1.3749 12.8251C1.01864 12.4753 0.742967 12.052 0.567114 11.5847C0.394218 11.1388 0.276621 10.6307 0.241622 9.88517C0.233823 9.71907 0.226823 9.55294 0.220622 9.38678L0.217122 9.25098C0.204223 8.74057 0.198389 8.23 0.199623 7.71942V6.28025C0.197669 5.76969 0.202803 5.25912 0.215022 4.74869L0.219922 4.61289C0.225522 4.4554 0.232522 4.3007 0.240922 4.1145C0.275921 3.36902 0.393518 2.86153 0.566414 2.41494C0.74219 1.94729 1.01841 1.52388 1.3756 1.17457C1.72495 0.818613 2.14778 0.543178 2.61457 0.367491C3.06116 0.194596 3.56864 0.0769982 4.31413 0.041999C4.50032 0.0335992 4.65572 0.0265994 4.81252 0.0209995L4.94831 0.0167996C5.45873 0.00436279 5.9693 -0.00100426 6.47988 0.000699933L7.91904 0ZM7.19946 3.49992C6.27122 3.49992 5.38101 3.86866 4.72464 4.52502C4.06828 5.18138 3.69954 6.0716 3.69954 6.99984C3.69954 7.92807 4.06828 8.81829 4.72464 9.47465C5.38101 10.131 6.27122 10.4998 7.19946 10.4998C8.1277 10.4998 9.01791 10.131 9.67428 9.47465C10.3306 8.81829 10.6994 7.92807 10.6994 6.99984C10.6994 6.0716 10.3306 5.18138 9.67428 4.52502C9.01791 3.86866 8.1277 3.49992 7.19946 3.49992ZM7.19946 4.89989C7.47523 4.89984 7.74831 4.95411 8.0031 5.0596C8.2579 5.16509 8.48942 5.31973 8.68445 5.5147C8.87948 5.70967 9.0342 5.94114 9.13978 6.1959C9.24535 6.45066 9.29971 6.72372 9.29976 6.99949C9.29981 7.27526 9.24553 7.54833 9.14005 7.80313C9.03456 8.05793 8.87991 8.28945 8.68495 8.48448C8.48998 8.67951 8.25851 8.83423 8.00375 8.9398C7.74899 9.04538 7.47593 9.09974 7.20016 9.09979C6.64322 9.09979 6.10909 8.87854 5.71527 8.48473C5.32145 8.09091 5.10021 7.55678 5.10021 6.99984C5.10021 6.44289 5.32145 5.90876 5.71527 5.51495C6.10909 5.12113 6.64322 4.89989 7.20016 4.89989M10.8751 2.44994C10.643 2.44994 10.4205 2.54213 10.2564 2.70622C10.0923 2.87031 10.0001 3.09286 10.0001 3.32492C10.0001 3.55698 10.0923 3.77954 10.2564 3.94363C10.4205 4.10772 10.643 4.1999 10.8751 4.1999C11.1071 4.1999 11.3297 4.10772 11.4938 3.94363C11.6579 3.77954 11.7501 3.55698 11.7501 3.32492C11.7501 3.09286 11.6579 2.87031 11.4938 2.70622C11.3297 2.54213 11.1071 2.44994 10.8751 2.44994Z" fill="white"/>
</svg>
