<svg width="18" height="16" viewBox="0 0 18 16" fill="none" xmlns="http://www.w3.org/2000/svg">
<path d="M9.69991 11.8668H15.248M9.69991 11.8668L8.22043 14.9603M9.69991 11.8668L11.9158 7.23361C12.0944 6.86027 12.1836 6.6736 12.3058 6.61461C12.412 6.56331 12.5359 6.56331 12.6421 6.61461C12.7643 6.6736 12.8535 6.86027 13.0321 7.23361L15.248 11.8668M15.248 11.8668L16.7275 14.9603M1.26013 2.58644H5.90033M5.90033 2.58644H8.60711M5.90033 2.58644V1.0397M8.60711 2.58644H10.5405M8.60711 2.58644C8.22342 4.8735 7.33306 6.94527 6.02836 8.68399M7.44706 9.54673C6.97336 9.33391 6.49014 9.03792 6.02836 8.68399M6.02836 8.68399C4.98236 7.88227 4.04639 6.78321 3.58023 5.6799M6.02836 8.68399C4.78735 10.3378 3.17146 11.6904 1.26013 12.6402" stroke="white" stroke-width="1.39206" stroke-linecap="round" stroke-linejoin="round"/>
</svg>
