<svg width="15" height="14" viewBox="0 0 15 14" fill="none" xmlns="http://www.w3.org/2000/svg">
<path fill-rule="evenodd" clip-rule="evenodd" d="M5.40147 4.8783H8.00127V6.1733C8.37577 5.4285 9.33617 4.7593 10.7789 4.7593C13.5446 4.7593 14.2012 6.2419 14.2012 8.9621V14H11.4012V9.5816C11.4012 8.0325 11.0267 7.1589 10.0733 7.1589C8.75097 7.1589 8.20147 8.1004 8.20147 9.5809V14H5.40147V4.8783ZM0.600172 13.881H3.40017V4.7593H0.600172V13.881ZM3.80127 1.785C3.80138 2.01969 3.75483 2.25206 3.66434 2.46861C3.57385 2.68516 3.44123 2.88156 3.27417 3.0464C2.93565 3.38284 2.47744 3.57116 2.00017 3.57C1.52374 3.56968 1.06659 3.38184 0.727572 3.0471C0.56112 2.8817 0.428942 2.68508 0.338612 2.4685C0.248283 2.25193 0.201577 2.01966 0.201172 1.785C0.201172 1.3111 0.390172 0.8575 0.728272 0.5229C1.06699 0.187711 1.52434 -0.000209448 2.00087 1.75185e-07C2.47827 1.75185e-07 2.93607 0.1883 3.27417 0.5229C3.61157 0.8575 3.80127 1.3111 3.80127 1.785Z" fill="white"/>
</svg>
