<svg width="122" height="40" viewBox="0 0 122 40" fill="none" xmlns="http://www.w3.org/2000/svg">
<path d="M49.3297 17.9997C48.7208 17.9528 48.291 17.9199 47.6726 17.873C47.6726 16.4061 47.6248 14.9393 47.7084 13.4771C47.7275 13.1344 48.1262 12.6791 48.4701 12.5148C49.2653 12.1346 49.3464 11.5385 49.3393 10.7875C49.3154 7.47354 49.3297 4.15961 49.3297 0.751801H58.5254V8.82774H94.2432C93.7704 9.17979 93.6033 9.4051 93.4027 9.43796C90.7378 9.86276 88.0634 10.2312 85.4009 10.6701C81.8215 11.2592 78.1394 11.332 74.7271 12.7589C72.547 13.6696 70.7084 15.0496 69.1562 16.7769C68.3515 17.6711 67.4799 18.0091 66.2621 17.9622C63.7644 17.8683 61.2595 17.934 58.5541 17.934C58.5541 18.7977 58.5541 19.6004 58.5541 20.4007C58.5541 22.1985 58.6544 24.0009 58.5278 25.7893C58.3726 28.0025 60.0584 30.1172 62.9478 30.2063C64.0534 30.2392 65.1637 30.211 66.2526 30.211C67.5158 34.3722 70.226 37.1299 74.1493 38.9746C73.7481 38.9958 73.3493 39.038 72.9482 39.038C69.2518 39.0427 65.5529 38.9746 61.8565 39.0568C55.8606 39.1882 49.9076 33.5156 49.5805 27.8852C49.4181 25.0923 49.4061 22.29 49.3321 19.4901C49.3202 19.0277 49.3321 18.5653 49.3321 17.9997H49.3297Z" fill="#217951"/>
<path d="M93.8772 39.0379C92.3083 39.0379 90.9234 39.0684 89.5408 39.0121C89.2686 39.0004 88.9534 38.7023 88.7599 38.4606C88.3015 37.8856 87.9051 37.2636 87.5994 36.8247C86.0354 37.5899 84.6194 38.5944 83.0482 38.991C79.2323 39.9533 75.7652 38.8525 72.6012 36.6651C66.5336 32.4711 65.3421 23.7075 69.9435 17.941C72.138 15.1927 75.0369 13.5028 78.7237 13.0428C83.2583 12.4772 87.0192 13.8267 90.164 16.9013C92.6259 19.3069 93.8628 22.311 93.8748 25.7541C93.8867 29.7017 93.8772 33.6469 93.8772 37.5946V39.0426V39.0379ZM80.5815 30.211C82.6995 30.1898 85.054 27.9884 84.851 26.0216C84.6361 23.9351 83.072 21.7759 80.3451 21.9003C77.9238 22.0083 76.2594 24.029 76.2953 26.0732C76.3382 28.446 78.1291 29.9927 80.5815 30.211Z" fill="#217951"/>
<path d="M121.805 38.9746H113.053C113.053 38.4935 113.053 38.0757 113.053 37.6579C113.053 34.1023 113.075 30.5466 113.041 26.9909C113.029 25.7493 112.865 24.5125 111.967 23.5221C110.484 21.8862 108.951 21.4591 107.098 22.1561C105.455 22.7734 104.388 24.4139 104.381 26.3995C104.369 30.1499 104.378 33.9028 104.378 37.6532V38.9746H95.4881V12.9348H100.121C99.7099 13.8924 99.3421 14.7467 99.015 15.5071C100.889 14.8406 102.702 14.0215 104.605 13.5544C109.448 12.3669 114.028 12.9067 117.808 16.4013C119.983 18.415 121.683 20.8747 121.771 23.921C121.912 28.8966 121.81 33.8793 121.81 38.9746H121.805Z" fill="#217951"/>
<path d="M25.0572 0.739845H32.9921C33.4887 4.72736 33.9902 8.75947 34.5227 13.0239C35.4492 10.8741 36.3016 8.88621 37.1589 6.90301C37.954 5.06064 38.7301 3.20887 39.5754 1.38996C39.7211 1.07781 40.1628 0.702293 40.4756 0.695252C42.9351 0.638925 45.397 0.664742 48.0261 0.664742C47.1497 2.76294 46.3355 4.74614 45.4973 6.7176C42.6295 13.4605 39.7688 20.2057 36.8652 26.9345C36.5524 27.6574 36.0676 28.3568 35.5065 28.9153C32.2446 32.1729 28.9398 35.386 25.6422 38.606C25.4631 38.7797 25.2243 38.8947 24.8805 39.1247C24.8231 38.6835 24.7563 38.3948 24.7515 38.1061C24.7372 37.0523 24.9187 35.9633 24.7157 34.9494C23.9659 31.2177 26.0863 29.0256 28.7942 27.0237C29.8639 26.2327 30.7618 25.2048 31.6692 24.2261C31.8769 24.0031 31.9414 23.4891 31.8459 23.1793C30.3391 18.2953 28.7918 13.4253 27.2659 8.54825C26.5185 6.16371 25.7902 3.77684 25.0643 1.38526C25.0118 1.21159 25.0572 1.0074 25.0572 0.739845Z" fill="#217951"/>
<path d="M15.8029 9.57392V38.9557H7.62925C8.89482 27.7419 10.1556 16.5773 11.4451 5.15222C7.51702 6.33979 3.81343 7.45695 0 8.61166V0.768066H23.3749V8.49197C20.8867 8.84871 18.4176 9.20075 15.8029 9.57392Z" fill="#217951"/>
</svg>
