<svg width="183" height="59" viewBox="0 0 183 59" fill="none" xmlns="http://www.w3.org/2000/svg">
<path d="M74.0739 26.0502C73.1593 25.9797 72.5138 25.9304 71.5849 25.8599C71.5849 23.6567 71.5131 21.4536 71.6387 19.2574C71.6673 18.7428 72.2663 18.0589 72.7827 17.8122C73.977 17.2411 74.099 16.3457 74.0882 15.2177C74.0524 10.2403 74.0739 5.26293 74.0739 0.144531H87.8855V12.2743H141.532C140.822 12.803 140.571 13.1415 140.27 13.1908C136.267 13.8288 132.25 14.3823 128.251 15.0415C122.875 15.9263 117.345 16.0355 112.22 18.1788C108.945 19.5465 106.184 21.6192 103.853 24.2137C102.644 25.5567 101.335 26.0643 99.5057 25.9938C95.7542 25.8528 91.992 25.9515 87.9285 25.9515C87.9285 27.2488 87.9285 28.4543 87.9285 29.6564C87.9285 32.3566 88.0791 35.0638 87.8891 37.7499C87.6559 41.0741 90.188 44.2502 94.5277 44.3841C96.1882 44.4335 97.8559 44.3912 99.4914 44.3912C101.389 50.6411 105.459 54.7831 111.352 57.5538C110.749 57.5855 110.15 57.6489 109.548 57.6489C103.996 57.656 98.4405 57.5538 92.8886 57.6771C83.8829 57.8745 74.9418 49.3545 74.4505 40.8978C74.2066 36.703 74.1887 32.4941 74.0775 28.2887C74.0595 27.5942 74.0775 26.8998 74.0775 26.0502H74.0739Z" fill="#F5EEDF"/>
<path d="M140.983 57.6429C138.627 57.6429 136.547 57.6888 134.47 57.6042C134.061 57.5865 133.588 57.1388 133.297 56.7758C132.609 55.9121 132.014 54.978 131.554 54.3188C129.205 55.468 127.079 56.9767 124.719 57.5724C118.987 59.0177 113.78 57.3644 109.028 54.0791C99.9145 47.7798 98.1248 34.6172 105.036 25.9561C108.332 21.8282 112.686 19.2902 118.223 18.5993C125.034 17.7497 130.683 19.7766 135.406 24.3945C139.104 28.0077 140.962 32.5198 140.98 37.691C140.998 43.6202 140.983 49.5458 140.983 55.475V57.65V57.6429ZM121.014 44.3851C124.195 44.3534 127.731 41.0469 127.426 38.0929C127.104 34.9591 124.754 31.716 120.659 31.9029C117.022 32.065 114.522 35.1001 114.576 38.1704C114.641 41.7343 117.33 44.0573 121.014 44.3851Z" fill="#F5EEDF"/>
<path d="M182.937 57.5472H169.792C169.792 56.8246 169.792 56.1971 169.792 55.5697C169.792 50.2292 169.825 44.8887 169.774 39.5482C169.756 37.6834 169.509 35.8257 168.161 34.3381C165.933 31.8812 163.631 31.2396 160.848 32.2865C158.38 33.2136 156.777 35.6777 156.766 38.6599C156.748 44.293 156.763 49.9296 156.763 55.5626V57.5472H143.41V18.4365H150.368C149.751 19.8748 149.199 21.1579 148.707 22.3C151.523 21.2989 154.245 20.0686 157.103 19.3671C164.377 17.5835 171.256 18.3942 176.933 23.6431C180.2 26.6676 182.754 30.3619 182.887 34.9374C183.098 42.4106 182.944 49.8943 182.944 57.5472H182.937Z" fill="#F5EEDF"/>
<path d="M37.6092 0.121672H49.5271C50.2731 6.11077 51.0262 12.1669 51.826 18.5719C53.2176 15.3429 54.4979 12.3572 55.7855 9.37852C56.9798 6.61133 58.1454 3.83005 59.415 1.09812C59.6338 0.629282 60.2973 0.0652705 60.7671 0.0546953C64.4612 -0.0299065 68.1589 0.00886933 72.1076 0.00886933C70.7914 3.16029 69.5684 6.13897 68.3095 9.10004C64.0021 19.2276 59.7055 29.3586 55.3444 39.465C54.8745 40.5508 54.1465 41.6012 53.3036 42.4402C48.4045 47.333 43.4408 52.1588 38.4879 56.9952C38.2189 57.2561 37.8602 57.4288 37.3438 57.7743C37.2577 57.1115 37.1573 56.678 37.1501 56.2444C37.1286 54.6616 37.4012 53.026 37.0963 51.5032C35.9701 45.8983 39.1549 42.6059 43.222 39.599C44.8288 38.411 46.1773 36.867 47.5402 35.3971C47.8522 35.0622 47.949 34.2902 47.8056 33.8249C45.5425 26.4892 43.2184 19.1747 40.9267 11.8496C39.8041 8.26812 38.7102 4.68312 37.6199 1.09107C37.541 0.830212 37.6092 0.52353 37.6092 0.121672Z" fill="#F5EEDF"/>
<path d="M23.7354 13.394V57.5243H11.4588C13.3597 40.6816 15.2533 23.9128 17.19 6.7528C11.2903 8.53648 5.72762 10.2144 0 11.9487V0.167969H35.1081V11.769C31.371 12.3048 27.6626 12.8335 23.7354 13.394Z" fill="#F5EEDF"/>
</svg>
