<svg width="101" height="28" viewBox="0 0 101 28" fill="none" xmlns="http://www.w3.org/2000/svg">
<g clip-path="url(#clip0_5826_7324)">
<path d="M17.1536 13.5333C17.1536 12.8799 17.1536 12.5532 17.2808 12.3036C17.3926 12.0841 17.5711 11.9056 17.7906 11.7938C18.0402 11.6666 18.3669 11.6666 19.0203 11.6666H24.6203C25.2737 11.6666 25.6004 11.6666 25.8499 11.7938C26.0695 11.9056 26.2479 12.0841 26.3598 12.3036C26.487 12.5532 26.487 12.8799 26.487 13.5333V14.4666C26.487 15.12 26.487 15.4467 26.3598 15.6963C26.2479 15.9158 26.0695 16.0943 25.8499 16.2061C25.6004 16.3333 25.2737 16.3333 24.6203 16.3333H19.0203C18.3669 16.3333 18.0402 16.3333 17.7906 16.2061C17.5711 16.0943 17.3926 15.9158 17.2808 15.6963C17.1536 15.4467 17.1536 15.12 17.1536 14.4666V13.5333Z" fill="#34A34C"/>
<path d="M20.4203 4.66663H6.88696C5.58017 4.66663 4.92677 4.66663 4.42765 4.92094C3.9886 5.14465 3.63165 5.5016 3.40794 5.94065C3.15363 6.43978 3.15363 7.09317 3.15363 8.39996V19.6C3.15363 20.9067 3.15363 21.5601 3.40794 22.0593C3.63165 22.4983 3.9886 22.8553 4.42765 23.079C4.92677 23.3333 5.58017 23.3333 6.88696 23.3333H20.4203C21.7271 23.3333 22.3805 23.3333 22.8796 23.079C23.3186 22.8553 23.6756 22.4983 23.8993 22.0593C24.1536 21.5601 24.1536 20.9067 24.1536 19.6V18.6666L18.9663 18.6666C18.6884 18.6667 18.3565 18.6669 18.064 18.643C17.7252 18.6153 17.2399 18.5443 16.7314 18.2851C16.0728 17.9496 15.5374 17.4142 15.2018 16.7556C14.9427 16.247 14.8716 15.7617 14.844 15.4229C14.8201 15.1305 14.8202 14.7985 14.8203 14.5206V13.4793C14.8202 13.2014 14.8201 12.8694 14.844 12.577C14.8716 12.2382 14.9427 11.7529 15.2018 11.2443C15.5374 10.5858 16.0728 10.0503 16.7314 9.71476C17.2399 9.45565 17.7252 9.38461 18.064 9.35693C18.3565 9.33304 18.6884 9.33317 18.9663 9.33327L24.1536 9.33329V8.39996C24.1536 7.09317 24.1536 6.43978 23.8993 5.94065C23.6756 5.5016 23.3186 5.14465 22.8796 4.92094C22.3805 4.66663 21.7271 4.66663 20.4203 4.66663Z" fill="#34A34C"/>
</g>
<g clip-path="url(#clip1_5826_7324)">
<path d="M39.1537 8.16663H62.4869C62.486 7.01355 62.4713 6.40914 62.2326 5.94065C62.0089 5.5016 61.652 5.14465 61.2129 4.92094C60.7138 4.66663 60.0604 4.66663 58.7536 4.66663H42.887C41.5802 4.66663 40.9268 4.66663 40.4276 4.92094C39.9886 5.14465 39.6316 5.5016 39.4079 5.94065C39.1692 6.40914 39.1546 7.01355 39.1537 8.16663Z" fill="#34A34C"/>
<path fill-rule="evenodd" clip-rule="evenodd" d="M62.487 10.5H39.1536V19.6C39.1536 20.9067 39.1536 21.5601 39.4079 22.0593C39.6316 22.4983 39.9886 22.8553 40.4276 23.079C40.9268 23.3333 41.5802 23.3333 42.887 23.3333H58.7536C60.0604 23.3333 60.7138 23.3333 61.2129 23.079C61.652 22.8553 62.0089 22.4983 62.2326 22.0593C62.487 21.5601 62.487 20.9067 62.487 19.6V10.5ZM42.6536 18.6666C42.6536 18.0223 43.176 17.5 43.8203 17.5H48.487C49.1313 17.5 49.6536 18.0223 49.6536 18.6666C49.6536 19.311 49.1313 19.8333 48.487 19.8333H43.8203C43.176 19.8333 42.6536 19.311 42.6536 18.6666ZM53.1536 17.5C52.5093 17.5 51.987 18.0223 51.987 18.6666C51.987 19.311 52.5093 19.8333 53.1536 19.8333H57.8203C58.4646 19.8333 58.987 19.311 58.987 18.6666C58.987 18.0223 58.4646 17.5 57.8203 17.5H53.1536Z" fill="#34A34C"/>
</g>
<g clip-path="url(#clip2_5826_7324)">
<path d="M77.487 14C77.487 8.84538 81.6656 4.66671 86.8203 4.66671C87.4646 4.66671 87.987 4.14437 87.987 3.50004C87.987 2.85571 87.4646 2.33337 86.8203 2.33337C80.377 2.33337 75.1536 7.55672 75.1536 14C75.1536 20.4434 80.377 25.6667 86.8203 25.6667C93.2636 25.6667 98.487 20.4434 98.487 14C98.487 13.3557 97.9646 12.8334 97.3203 12.8334C96.676 12.8334 96.1536 13.3557 96.1536 14C96.1536 19.1547 91.9749 23.3334 86.8203 23.3334C81.6656 23.3334 77.487 19.1547 77.487 14Z" fill="#34A34C"/>
<path d="M80.987 14C80.987 10.7784 83.5986 8.16671 86.8203 8.16671C90.042 8.16671 92.6536 10.7784 92.6536 14C92.6536 17.2217 90.042 19.8334 86.8203 19.8334C83.5986 19.8334 80.987 17.2217 80.987 14Z" fill="#34A34C"/>
</g>
<defs>
<clipPath id="clip0_5826_7324">
<rect width="28" height="28" fill="white" transform="translate(0.820282)"/>
</clipPath>
<clipPath id="clip1_5826_7324">
<rect width="28" height="28" fill="white" transform="translate(36.8203)"/>
</clipPath>
<clipPath id="clip2_5826_7324">
<rect width="28" height="28" fill="white" transform="translate(72.8203)"/>
</clipPath>
</defs>
</svg>
