<svg width="17" height="17" viewBox="0 0 17 17" fill="none" xmlns="http://www.w3.org/2000/svg">
<path d="M5.48353 6.12928C6.01348 7.23305 6.73591 8.26756 7.65082 9.18247C8.56574 10.0974 9.60024 10.8198 10.704 11.3498C10.799 11.3953 10.8464 11.4181 10.9065 11.4357C11.12 11.4979 11.3821 11.4532 11.5629 11.3237C11.6138 11.2873 11.6573 11.2438 11.7443 11.1567C12.0105 10.8905 12.1436 10.7574 12.2775 10.6704C12.7822 10.3423 13.4329 10.3423 13.9376 10.6704C14.0715 10.7574 14.2046 10.8905 14.4708 11.1567L14.6192 11.3051C15.0238 11.7098 15.2261 11.9121 15.336 12.1294C15.5546 12.5616 15.5546 13.0719 15.336 13.5041C15.2261 13.7214 15.0238 13.9237 14.6192 14.3283L14.4991 14.4484C14.0959 14.8516 13.8942 15.0533 13.6201 15.2073C13.3159 15.3781 12.8434 15.501 12.4945 15.5C12.1801 15.499 11.9652 15.438 11.5354 15.3161C9.22573 14.6605 7.04625 13.4236 5.22798 11.6053C3.40971 9.78704 2.1728 7.60757 1.51723 5.29786C1.39525 4.86808 1.33425 4.65319 1.33332 4.33876C1.33228 3.98986 1.45515 3.5174 1.62603 3.21321C1.78002 2.93907 1.98166 2.73743 2.38492 2.33417L2.50495 2.21414C2.90961 1.80948 3.11193 1.60716 3.32923 1.49725C3.76138 1.27867 4.27174 1.27867 4.7039 1.49725C4.92119 1.60716 5.12352 1.80948 5.52817 2.21414L5.67655 2.36252C5.94275 2.62872 6.07585 2.76181 6.16287 2.89566C6.49104 3.4004 6.49104 4.0511 6.16287 4.55584C6.07585 4.68968 5.94275 4.82278 5.67655 5.08898C5.58951 5.17602 5.54599 5.21954 5.50956 5.27041C5.38011 5.4512 5.33542 5.71333 5.39764 5.92679C5.41515 5.98686 5.43795 6.03433 5.48353 6.12928Z" stroke="#34A34C" stroke-width="1.67" stroke-linecap="round" stroke-linejoin="round"/>
</svg>
