<svg width="35" height="36" viewBox="0 0 35 36" fill="none" xmlns="http://www.w3.org/2000/svg">
<path d="M23.2021 18.741H30.0417C29.925 25.5514 28.5833 26.6743 24.3979 29.1535C23.9167 29.4452 23.7562 30.0577 24.0479 30.5535C24.3396 31.0348 24.9521 31.1952 25.4479 30.9035C30.3771 27.9868 32.0979 26.2077 32.0979 17.7202V9.85977C32.0979 7.36602 30.0708 5.35352 27.5917 5.35352H23.2167C20.65 5.35352 18.7104 7.2931 18.7104 9.85977V14.2348C18.6958 16.8014 20.6354 18.741 23.2021 18.741Z" fill="#F5EEDF"/>
<path d="M7.42288 18.741H14.2625C14.1458 25.5514 12.8041 26.6743 8.61871 29.1535C8.13746 29.4452 7.97704 30.0577 8.26871 30.5535C8.56038 31.0348 9.17288 31.1952 9.66871 30.9035C14.5979 27.9868 16.3187 26.2077 16.3187 17.7202V9.85977C16.3187 7.36602 14.2916 5.35352 11.8125 5.35352H7.43746C4.85621 5.35352 2.91663 7.2931 2.91663 9.85977V14.2348C2.91663 16.8014 4.85621 18.741 7.42288 18.741Z" fill="#F5EEDF"/>
</svg>
