<svg width="973" height="664" viewBox="0 0 973 664" fill="none" xmlns="http://www.w3.org/2000/svg">
<g clip-path="url(#clip0_150_780)">
<path opacity="0.11" d="M963.543 475.94C963.543 738.795 749.964 951.88 486.5 951.88C223.036 951.88 9.45682 738.795 9.45682 475.94C9.45682 213.086 223.036 0 486.5 0C749.964 0 963.543 213.086 963.543 475.94ZM228.579 475.94C228.579 618.057 344.054 733.265 486.5 733.265C628.946 733.265 744.421 618.057 744.421 475.94C744.421 333.824 628.946 218.616 486.5 218.616C344.054 218.616 228.579 333.824 228.579 475.94Z" fill="url(#paint0_linear_150_780)"/>
<path opacity="0.1" d="M535.601 430.512V777.608H439.178C454.108 645.135 468.981 513.245 484.192 378.277C437.854 392.306 394.164 405.503 349.178 419.144V326.485H624.925V417.73C595.573 421.945 566.446 426.103 535.601 430.512Z" fill="#FEF8ED" fill-opacity="0.83"/>
<path opacity="0.9" d="M413.976 114.644C414.588 114.644 414.99 115.084 415.181 115.964C415.41 116.843 415.525 118.181 415.525 119.978C415.525 121.814 415.41 123.171 415.181 124.051C414.952 124.892 414.55 125.312 413.976 125.312C412.103 125.312 410.42 124.835 408.929 123.879C407.285 124.376 405.105 124.796 402.391 125.14C399.676 125.485 396.712 125.657 393.501 125.657C387.803 125.657 382.068 125.064 376.294 123.879C376.715 120.131 377.498 116.652 378.645 113.44C381.246 113.822 384.209 114.166 387.536 114.472C390.862 114.74 394.017 114.874 396.999 114.874C399.026 114.874 401.052 114.778 403.079 114.587C403.002 112.255 402.811 109.502 402.505 106.328C402.238 103.116 401.951 99.9423 401.645 96.8068L401.301 93.3655L410.535 92.8493C411.032 100.191 411.281 106.71 411.281 112.408C411.319 112.637 411.338 113 411.338 113.497C411.338 113.994 411.319 114.377 411.281 114.644H413.976ZM396.999 110.744C395.584 110.706 393.826 110.782 391.723 110.974C389.658 111.165 387.803 111.413 386.159 111.719C386.006 111.452 385.891 111.05 385.815 110.515C385.738 109.979 385.7 109.425 385.7 108.851C385.7 108.01 385.777 107.437 385.93 107.131C387 106.748 388.014 106.443 388.969 106.213C388.052 105.066 387.593 103.9 387.593 102.714C387.593 101.759 387.899 100.841 388.511 99.9614C389.161 99.0819 389.964 98.3745 390.92 97.8392C391.914 97.3039 392.87 97.0362 393.787 97.0362C394.59 97.0362 395.259 97.2274 395.795 97.6098C396.751 98.1834 397.229 99.0819 397.229 100.306C397.229 101.261 396.923 102.141 396.311 102.944C395.317 102.447 394.399 102.198 393.558 102.198C393.023 102.198 392.583 102.294 392.239 102.485C391.895 102.676 391.703 102.963 391.665 103.345C391.589 103.995 391.818 104.741 392.353 105.582C394.151 105.315 395.68 105.181 396.942 105.181C397.439 105.181 398.108 105.219 398.949 105.295L399.121 105.64C399.007 106.29 398.701 107.207 398.204 108.393C397.707 109.578 397.305 110.362 396.999 110.744ZM432.073 114.644C432.685 114.644 433.087 115.084 433.278 115.964C433.507 116.843 433.622 118.181 433.622 119.978C433.622 121.814 433.507 123.171 433.278 124.051C433.049 124.892 432.647 125.312 432.073 125.312C430.544 125.312 429.015 124.987 427.485 124.337C425.994 123.687 424.828 122.674 423.986 121.298H423.527C422.686 122.789 421.482 123.84 419.914 124.452C418.346 125.026 416.358 125.312 413.949 125.312C413.376 125.312 412.974 124.892 412.745 124.051C412.515 123.171 412.401 121.814 412.401 119.978C412.401 118.181 412.515 116.843 412.745 115.964C412.936 115.084 413.337 114.644 413.949 114.644C416.282 114.644 418.136 114.243 419.513 113.44C420.927 112.637 421.883 111.012 422.38 108.565L427.256 109.31C427.217 109.616 427.198 110.056 427.198 110.629C427.198 112.235 427.542 113.306 428.231 113.841C428.957 114.377 430.238 114.644 432.073 114.644ZM422.38 139.02C421.577 138.715 420.526 138.103 419.226 137.185C417.926 136.306 417.027 135.541 416.53 134.891C416.645 134.394 416.932 133.706 417.39 132.826C417.888 131.985 418.442 131.201 419.054 130.474C419.666 129.786 420.201 129.404 420.66 129.327C421.08 129.251 421.711 129.442 422.552 129.901C423.432 130.36 424.235 130.914 424.961 131.564C425.726 132.253 426.147 132.788 426.223 133.17C426.376 133.744 425.936 134.738 424.904 136.153C423.91 137.606 423.069 138.562 422.38 139.02ZM450.278 114.644C450.89 114.644 451.292 115.084 451.483 115.964C451.712 116.843 451.827 118.181 451.827 119.978C451.827 121.814 451.712 123.171 451.483 124.051C451.253 124.892 450.852 125.312 450.278 125.312C448.596 125.312 446.971 125.083 445.403 124.624C443.874 124.127 442.612 123.477 441.618 122.674C439.056 124.433 435.882 125.312 432.097 125.312C431.523 125.312 431.122 124.892 430.892 124.051C430.663 123.171 430.548 121.814 430.548 119.978C430.548 118.181 430.663 116.843 430.892 115.964C431.083 115.084 431.485 114.644 432.097 114.644C434.429 114.644 436.57 114.587 438.521 114.472C438.406 111.719 438.157 108.45 437.775 104.665C437.431 100.879 437.201 98.3745 437.087 97.151C436.972 96.3097 436.838 95.0479 436.685 93.3655L445.977 92.8493C446.436 100.267 446.703 107.15 446.78 113.497V114.644H450.278ZM466.647 102.485C466.953 102.447 467.392 102.428 467.966 102.428C471.063 102.428 473.568 103.537 475.479 105.754C477.391 107.972 478.347 111.107 478.347 115.161C478.347 116.002 478.08 117.244 477.544 118.889C477.009 120.533 476.359 121.909 475.594 123.018C472.765 123.936 469.648 124.548 466.245 124.854C462.88 125.16 459.152 125.312 455.061 125.312H450.3C449.727 125.312 449.325 124.892 449.096 124.051C448.867 123.171 448.752 121.814 448.752 119.978C448.752 118.181 448.867 116.843 449.096 115.964C449.287 115.084 449.689 114.644 450.3 114.644H452.193C452.652 113.421 452.977 111.834 453.168 109.884C453.359 107.934 453.455 105.372 453.455 102.198C453.455 100.975 453.417 98.4893 453.34 94.742V93.3655L462.574 92.8493C462.574 97.7436 462.364 101.701 461.944 104.722C463.702 103.384 465.27 102.638 466.647 102.485ZM457.929 115.333C459.343 115.447 461.007 115.505 462.919 115.505C465.213 115.505 467.201 115.409 468.884 115.218C470.604 115.027 471.579 114.721 471.809 114.3C471.579 113.688 471.063 113.21 470.26 112.866C469.457 112.484 468.52 112.293 467.45 112.293C465.997 112.293 464.429 112.56 462.747 113.096C461.064 113.593 459.458 114.338 457.929 115.333ZM524.458 114.644C525.07 114.644 525.471 115.084 525.662 115.964C525.892 116.843 526.007 118.181 526.007 119.978C526.007 121.814 525.892 123.171 525.662 124.051C525.433 124.892 525.031 125.312 524.458 125.312C523.311 125.312 522.221 125.102 521.189 124.682C520.653 128.314 519.544 131.43 517.862 134.031C513.694 135.025 509.871 135.522 506.391 135.522C501.573 135.522 497.788 134.489 495.035 132.425C492.32 130.36 490.962 127.148 490.962 122.789C490.962 118.468 492.148 113.325 494.518 107.36L502.433 109.941C501.057 113.956 500.369 117.015 500.369 119.118C500.369 121.03 500.904 122.483 501.975 123.477C503.083 124.433 504.842 124.911 507.251 124.911C508.895 124.911 510.731 124.701 512.757 124.28C512.757 120.571 512.566 115.715 512.184 109.712C511.801 103.709 511.362 98.2598 510.865 93.3655L520.099 92.8493C520.405 96.7112 520.787 103.823 521.246 114.186C522.278 114.491 523.349 114.644 524.458 114.644ZM566.099 105.697C566.826 107.876 567.189 110.4 567.189 113.268C567.189 115.294 566.979 117.225 566.558 119.061C566.176 120.896 565.602 122.426 564.837 123.649C562.237 124.873 559.714 125.485 557.267 125.485C555.469 125.485 553.863 125.14 552.449 124.452C551.072 123.726 549.963 122.674 549.122 121.298H548.606C547.765 122.674 546.675 123.745 545.337 124.51C544.037 125.236 542.584 125.599 540.978 125.599C539.486 125.599 538.072 125.274 536.733 124.624C535.433 123.936 534.401 123.018 533.636 121.871H533.12C531.858 123.286 530.558 124.223 529.22 124.682C527.92 125.102 526.333 125.312 524.459 125.312C523.886 125.312 523.484 124.892 523.255 124.051C523.025 123.171 522.911 121.814 522.911 119.978C522.911 118.181 523.025 116.843 523.255 115.964C523.446 115.084 523.847 114.644 524.459 114.644C526.027 114.644 527.327 114.549 528.359 114.358C529.43 114.128 530.405 113.574 531.285 112.694C532.164 111.777 532.718 110.362 532.948 108.45H537.708C537.9 112.809 539.276 114.989 541.838 114.989C543.138 114.989 544.285 114.472 545.279 113.44C546.312 112.408 547.076 110.782 547.573 108.565L552.391 109.31C552.315 109.999 552.277 110.496 552.277 110.802C552.277 113.746 553.519 115.218 556.005 115.218C556.808 115.218 557.821 115.046 559.045 114.702C558.7 113.249 558.28 111.815 557.783 110.4C557.324 108.985 557.037 108.125 556.922 107.819L566.099 105.697ZM573.275 139.996C571.937 139.498 570.369 138.638 568.572 137.415C566.737 136.229 565.418 135.139 564.615 134.145C566.45 131.43 568.247 128.199 570.006 124.452C571.842 120.628 573.352 116.767 574.537 112.866L582.567 115.562C581.917 119.348 580.732 123.496 579.011 128.008C577.94 130.8 576.832 133.285 575.684 135.464C574.576 137.682 573.773 139.193 573.275 139.996ZM586.121 125.198C586.312 122.139 586.408 118.965 586.408 115.677C586.408 109.521 586.179 102.084 585.72 93.3655L595.011 92.8493C595.508 100.191 595.757 107.15 595.757 113.727C595.757 117.895 595.681 121.278 595.528 123.879C594.725 124.337 593.444 124.72 591.685 125.026C589.926 125.293 588.186 125.446 586.465 125.485L586.121 125.198Z" fill="#F5EEDF"/>
</g>
<defs>
<linearGradient id="paint0_linear_150_780" x1="486.5" y1="0" x2="486.5" y2="951.88" gradientUnits="userSpaceOnUse">
<stop stop-color="white" stop-opacity="0.7"/>
<stop offset="0.636" stop-color="white" stop-opacity="0.3"/>
</linearGradient>
<clipPath id="clip0_150_780">
<rect width="971.734" height="664" fill="white" transform="translate(0.632812)"/>
</clipPath>
</defs>
</svg>
