<svg width="941" height="663" viewBox="0 0 941 663" fill="none" xmlns="http://www.w3.org/2000/svg">
<g clip-path="url(#clip0_150_570)">
<path d="M317.09 177.618C336.409 184.953 358.765 174.974 372.484 159.519C386.204 144.064 393.394 124.063 401.287 104.972C421.019 57.243 454.346 6.89029 505.608 0.609111C558.213 -5.8167 605.094 39.5978 622.388 89.6819C629.062 109.021 633.277 130.427 647.678 144.973C672.431 169.932 713.341 162.969 748.198 158.444C781.876 154.064 816.691 153.816 849.192 163.713C881.693 173.61 911.756 194.644 927.335 224.831C937.088 243.715 940.786 265.266 940.993 286.527C941.344 326.011 929.153 366.529 902.438 395.621C883.016 416.778 855.577 433.142 847.705 460.767C839.791 488.537 854.668 516.967 866.032 543.517C884.689 587.134 894.442 637.859 876.239 681.662C860.329 719.948 822.931 748.42 781.794 753.565C744.664 758.214 707.969 745.176 671.419 737.18C663.03 735.341 654.29 733.771 645.943 735.775C623.855 741.085 615.301 766.995 606.437 787.926C578.792 853.196 510.67 899.933 439.78 899.706C368.889 899.478 300.065 850.758 278.618 783.194C274.258 769.454 271.345 754.453 261.469 743.957C238.617 719.659 199.091 734.949 166.259 740.713C113.158 750.032 55.6568 726.085 24.8707 681.827C-5.91528 637.57 -8.35337 575.316 18.8582 528.786C39.3753 493.702 73.5705 469.28 105.038 443.556C115.163 435.27 125.741 425.684 127.973 412.791C129.894 401.695 125.163 390.662 120.824 380.248C101.567 333.987 88.323 282.043 102.786 234.066C114.522 195.14 144.812 162.246 182.665 147.411C220.517 132.514 254.857 153.961 317.09 177.618Z" fill="#217951"/>
<path d="M784.275 333.036C837.004 314.523 889.031 293.985 940.251 271.629C939.321 261.588 937.441 251.649 934.383 242.104C882.419 269.067 832.149 299.337 784.275 333.036Z" fill="#00C67D"/>
<path d="M24.8918 681.807C33.5904 694.307 44.4792 705.113 56.7316 714.101C170.309 640.525 281.015 562.485 388.25 479.942C264.63 544.675 144.09 612.487 24.5199 681.228C24.6439 681.414 24.7678 681.621 24.8918 681.807Z" fill="#00C67D"/>
<path d="M889.937 183.445C881.321 177.474 872.044 172.391 862.292 168.403C807.517 205.719 753.569 244.191 700.51 283.903C763.652 250.41 826.795 216.938 889.937 183.445Z" fill="#00C67D"/>
<path d="M183.676 737.139C196.838 734.247 210.371 731.209 223.016 730.734C270.042 686.29 315.477 640.194 359.156 592.465C302.213 641.289 243.574 689.658 183.676 737.139Z" fill="#00C67D"/>
<path d="M179.789 148.713C176.566 150.076 173.363 151.502 170.264 153.114C272.395 223.033 567.507 442.192 750.942 753.73C754.537 754.061 758.153 754.226 761.769 754.33C580.255 443.019 287.085 222.682 179.789 148.713Z" fill="#00C67D"/>
<path d="M615.237 642.797C488.725 446.573 276.364 311.961 104.706 228.798C104.086 230.554 103.321 232.248 102.784 234.025C102.433 235.161 102.185 236.319 101.875 237.455C450.997 406.51 595.402 605.999 654.804 734.928C658.565 734.969 662.325 735.383 666.065 736.085C653.544 708.089 637.118 676.745 615.237 642.797Z" fill="#00C67D"/>
<path d="M139.832 174.974C137.58 177.102 135.286 179.168 133.199 181.42C251.963 257.579 515.669 448.06 714.105 747.408C718.299 748.379 722.493 749.309 726.688 750.135C527.798 446.572 261.178 253.013 139.832 174.974Z" fill="#00C67D"/>
</g>
<defs>
<clipPath id="clip0_150_570">
<rect width="941" height="663" fill="white"/>
</clipPath>
</defs>
</svg>
