<svg width="500" height="461" viewBox="0 0 500 461" fill="none" xmlns="http://www.w3.org/2000/svg">
<g clip-path="url(#clip0_150_652)">
<path d="M-23.9014 281.029C-16.7613 421.957 103.272 530.414 244.2 523.274C385.128 516.134 493.584 396.101 486.444 255.173C479.304 114.245 359.271 5.78823 218.343 12.9284C77.4149 20.0685 -31.0415 140.101 -23.9014 281.029ZM463.328 256.344C469.822 384.505 371.19 493.665 243.029 500.158C114.867 506.651 5.70761 408.02 -0.785723 279.858C-7.27905 151.697 91.3525 42.5374 219.514 36.044C347.676 29.5507 456.835 128.182 463.328 256.344Z" fill="url(#paint0_linear_150_652)"/>
<path d="M268.917 197.788V454H197.583C208.628 356.214 219.631 258.858 230.885 159.23C196.603 169.586 164.281 179.328 131 189.397V121H335V188.353C313.285 191.464 291.737 194.534 268.917 197.788Z" fill="#FEF8ED"/>
</g>
<defs>
<linearGradient id="paint0_linear_150_652" x1="377.065" y1="68.1434" x2="170.747" y2="460.237" gradientUnits="userSpaceOnUse">
<stop stop-color="white"/>
<stop offset="1" stop-color="white" stop-opacity="0"/>
</linearGradient>
<clipPath id="clip0_150_652">
<rect width="511" height="435.311" fill="white" transform="translate(-10.9727) rotate(2.90042)"/>
</clipPath>
</defs>
</svg>
