<svg width="444" height="444" viewBox="0 0 444 444" fill="none" xmlns="http://www.w3.org/2000/svg">
<path opacity="0.6" d="M-0.000294054 221.866C-0.000304767 344.4 99.3326 443.733 221.866 443.733C344.399 443.733 443.732 344.4 443.732 221.866C443.732 99.3329 344.399 -8.68396e-06 221.866 -1.93962e-05C99.3327 -3.01084e-05 -0.000283342 99.3329 -0.000294054 221.866ZM423.634 221.866C423.634 333.3 333.299 423.634 221.866 423.634C110.433 423.634 20.0982 333.3 20.0982 221.866C20.0982 110.433 110.433 20.0985 221.866 20.0985C333.299 20.0985 423.634 110.433 423.634 221.866Z" fill="url(#paint0_linear_150_159)"/>
<defs>
<linearGradient id="paint0_linear_150_159" x1="357.091" y1="54.8593" x2="160.934" y2="385.837" gradientUnits="userSpaceOnUse">
<stop stop-color="#EE5D33"/>
<stop offset="1" stop-color="white" stop-opacity="0"/>
</linearGradient>
</defs>
</svg>
