<svg width="222" height="378" viewBox="0 0 222 378" fill="none" xmlns="http://www.w3.org/2000/svg">
<g opacity="0.5">
<path d="M7.99731 247.548C13.7338 262.302 26.0727 273.356 34.7419 286.606C43.4005 299.861 47.801 318.76 37.4079 330.705C29.6887 339.576 16.3359 341.31 4.78613 339.059C-19.8325 334.272 -39.0344 315.154 -54.3579 295.305C-73.5803 270.416 -89.4714 242.535 -97.6078 212.151C-105.738 181.777 -105.745 148.722 -94.2514 119.452C-85.7204 97.7258 -71.1587 78.6884 -53.8653 63.0231C-33.9227 44.9589 -9.23888 30.8151 17.5924 28.701C58.9779 25.4445 97.0176 50.7027 128.163 78.145C143.49 91.6454 158.09 105.955 172.023 120.896C181.523 131.085 190.991 142.07 194.74 155.486C198.489 168.902 194.832 185.4 182.818 192.468C167.19 201.66 147.276 191.03 134.462 178.204C121.649 165.378 110.063 149.278 92.4779 144.911C85.7731 143.25 77.8473 143.848 73.1245 148.89C67.4556 154.953 68.673 164.762 72.1017 172.313C77.407 183.999 86.7746 193.231 95.2135 202.895C103.653 212.56 111.606 223.58 112.999 236.331C114.392 249.083 106.863 263.597 94.2178 265.763C83.413 267.615 73.3536 260.432 64.7456 253.646C56.4109 247.079 48.0702 240.502 39.7354 233.936C32.1887 227.984 23.5677 221.707 14.0116 222.687C4.43907 223.663 2.3577 233.042 7.99731 247.548Z" fill="#ED5E32"/>
<path d="M77.6525 262.432C79.1225 263.197 80.6159 263.88 82.1385 264.431C91.8749 254.041 102.099 244.108 112.757 234.671C112.182 230.961 111.068 227.406 109.553 223.984C97.5778 235.617 86.8574 248.52 77.6525 262.432Z" fill="#F4EDDE"/>
<path d="M149.208 139.827C156.561 133.256 163.916 126.676 171.269 120.105C169.224 117.92 167.137 115.758 165.066 113.6C157.552 123.3 150.027 133.005 142.513 142.705C144.96 143.334 147.311 141.513 149.208 139.827Z" fill="#F4EDDE"/>
<path d="M145.55 94.171C142.028 90.8115 138.468 87.494 134.868 84.2185C125.611 96.6117 116.549 109.158 107.759 121.897C120.646 113.044 133.175 103.709 145.55 94.171Z" fill="#F4EDDE"/>
<path d="M156.67 105.036C154.898 103.256 153.131 101.459 151.335 99.6989C143.527 109.067 135.727 118.437 127.917 127.813C137.019 119.638 146.637 112.043 156.67 105.036Z" fill="#F4EDDE"/>
<path d="M47.0931 236.801C46.6772 237.451 46.2671 238.112 45.8488 238.771C47.2055 239.84 48.5621 240.908 49.9188 241.977C61.7951 225.558 74.3159 209.607 87.4566 194.177C84.851 191.23 82.3027 188.238 79.9459 185.132C68.9895 202.353 58.0413 219.577 47.0931 236.801Z" fill="#F4EDDE"/>
<path d="M64.7329 253.652C65.396 254.178 66.0754 254.708 66.7654 255.233C78.2687 240.705 90.6359 226.867 103.81 213.826C101.19 210 98.2348 206.36 95.2113 202.896C95.1436 202.823 95.0782 202.743 95.0105 202.67C81.5057 216.899 69.1171 232.172 57.9801 248.325C60.2228 250.098 62.4738 251.874 64.7329 253.652Z" fill="#F4EDDE"/>
</g>
</svg>
