<svg width="241" height="256" viewBox="0 0 241 256" fill="none" xmlns="http://www.w3.org/2000/svg">
<path d="M131.006 72.5132C123.215 62.2528 111.087 56.3649 101.338 47.9379C91.5967 39.504 83.9238 25.7011 89.3827 14.0293C93.437 5.36009 103.497 1.01512 113.038 0.191807C133.372 -1.57247 152.675 9.08929 169.107 21.1901C189.718 36.3629 208.392 54.6214 221.558 76.5746C234.717 98.5208 242.12 124.383 239.678 149.858C237.865 168.767 230.732 186.921 220.707 203.049C209.146 221.646 192.997 238.237 172.477 245.896C140.823 257.707 105.406 246.457 74.8949 231.955C59.8813 224.822 45.2551 216.893 31.0094 208.321C21.2955 202.475 11.4294 195.999 5.49314 186.34C-0.443124 176.682 -1.27335 162.955 6.54481 154.735C16.7153 144.046 34.6764 147.907 47.5729 155.074C60.4694 162.242 73.1375 172.247 87.8744 171.728C93.4924 171.527 99.5601 169.285 102.127 164.283C105.206 158.271 102.058 150.868 97.6851 145.727C90.9186 137.771 81.523 132.644 72.757 126.971C63.9909 121.297 55.3011 114.455 51.3574 104.789C47.4137 95.1236 50.0567 82.0818 59.4661 77.557C67.5057 73.6894 76.9843 77.0588 85.2384 80.4421C93.2295 83.7146 101.228 86.9941 109.219 90.2667C116.456 93.2348 124.606 96.2168 131.864 93.3109C139.135 90.4051 138.665 82.6007 131.006 72.5132Z" fill="#ED5E32"/>
<path d="M73.1719 76.4568C71.8504 76.187 70.5289 75.9864 69.2143 75.8964C63.9215 86.2053 58.1443 96.2651 51.9175 106.034C53.1975 108.809 54.8649 111.341 56.816 113.68C63.5825 101.897 69.0829 89.4018 73.1719 76.4568Z" fill="#F4EDDE"/>
<path d="M44.6247 188.402C40.342 195.189 36.0593 201.983 31.7766 208.771C33.866 210.023 35.9832 211.248 38.0865 212.472C41.7949 203.201 45.5103 193.923 49.2188 184.652C47.1639 184.707 45.7317 186.658 44.6247 188.402Z" fill="#F4EDDE"/>
<path d="M57.7039 223.307C61.2117 225.147 64.7402 226.946 68.2895 228.703C72.759 216.935 77.0417 205.09 81.0684 193.155C72.9665 202.966 65.2522 213.074 57.7039 223.307Z" fill="#F4EDDE"/>
<path d="M203.121 51.7295C200.278 48.5468 197.323 45.4472 194.265 42.4514L187.679 98.5485C191.539 82.5593 196.721 66.8884 203.121 51.7295Z" fill="#F4EDDE"/>
<path d="M46.5701 217.294C48.3551 218.291 50.1402 219.301 51.939 220.276C55.9519 211.199 59.9578 202.122 63.9707 193.037C58.6779 201.471 52.8523 209.566 46.5701 217.294Z" fill="#F4EDDE"/>
<path d="M102.819 89.6717C102.999 89.0698 103.172 88.4609 103.352 87.8521C102.051 87.3193 100.75 86.7866 99.4494 86.2538C93.8314 101.759 87.6045 117.042 80.7758 132.056C83.4741 133.779 86.1377 135.55 88.6769 137.452C93.3955 121.525 98.1072 105.599 102.819 89.6717Z" fill="#F4EDDE"/>
<path d="M184.771 33.6993C181.755 31.0771 178.669 28.5379 175.528 26.0679C173.044 39.767 170.809 53.5145 168.928 67.3104C172.94 55.5763 178.275 44.2849 184.771 33.6993Z" fill="#F4EDDE"/>
<path d="M210.157 60.1011C204.815 89.6856 199.266 119.229 193.496 148.73C204.269 123.961 212.633 98.7699 219.518 73.2813C216.619 68.7288 213.491 64.3354 210.157 60.1011Z" fill="#F4EDDE"/>
<path d="M85.2448 80.4353C84.6083 80.1723 83.958 79.9094 83.3007 79.6534C77.5512 93.5947 70.9715 107.19 63.5823 120.342C66.4882 122.75 69.6154 124.936 72.7565 126.971C72.8256 127.012 72.8949 127.061 72.964 127.102C80.3463 112.946 86.6216 98.2233 91.7207 83.092C89.569 82.2064 87.4104 81.3208 85.2448 80.4353Z" fill="#F4EDDE"/>
<path d="M128.841 195.286C128.163 187.682 126.413 179.49 120.566 174.578C119.923 174.039 119.21 173.533 118.38 173.374C116.553 173.035 114.796 174.599 114.277 176.391C113.758 178.176 114.166 180.092 114.623 181.891C116.062 187.537 117.909 193.978 114.637 198.794C111.71 203.104 105.836 204.225 101.948 207.691C97.5477 211.621 96.2815 218.118 97.0288 223.964C97.5408 227.998 98.7653 232.516 96.3853 235.809C95.2437 237.386 93.4726 238.348 91.8467 239.407C89.1483 241.164 86.706 243.323 84.6373 245.793C82.3126 248.567 80.756 253.376 83.8209 255.306C84.9625 256.025 86.4085 256.032 87.7577 255.929C97.4992 255.209 107.677 248.816 109.012 239.137C109.904 232.709 106.853 225.839 109.351 219.847C111.503 214.679 117.031 211.96 121.383 208.432C125.741 204.91 129.125 198.455 128.841 195.286Z" fill="#F4EDDE"/>
</svg>
