<svg width="310" height="296" viewBox="0 0 310 296" fill="none" xmlns="http://www.w3.org/2000/svg">
<path d="M104.321 58.4358C110.677 60.8489 118.032 57.5657 122.546 52.481C127.06 47.3964 129.425 40.8163 132.022 34.5353C138.514 18.8327 149.478 2.26688 166.343 0.200395C183.65 -1.91367 199.074 13.0275 204.763 29.505C206.959 35.8676 208.346 42.91 213.084 47.6955C221.227 55.9071 234.687 53.6163 246.154 52.1276C257.234 50.6865 268.688 50.6049 279.381 53.861C290.074 57.1171 299.964 64.0371 305.09 73.9684C308.298 80.1815 309.515 87.2714 309.583 94.2662C309.699 107.256 305.688 120.587 296.899 130.158C290.509 137.118 281.482 142.502 278.892 151.591C276.288 160.727 281.182 170.08 284.921 178.815C291.059 193.165 294.268 209.853 288.279 224.264C283.045 236.86 270.741 246.227 257.207 247.92C244.992 249.45 232.919 245.16 220.894 242.53C218.134 241.925 215.259 241.408 212.513 242.067C205.246 243.814 202.432 252.339 199.516 259.225C190.42 280.698 168.009 296.075 144.686 296C121.363 295.925 98.7202 279.896 91.6642 257.668C90.2299 253.147 89.2714 248.212 86.0222 244.759C78.504 236.765 65.5001 241.795 54.6986 243.692C37.2287 246.758 18.3109 238.879 8.18238 224.319C-1.9461 209.758 -2.74823 189.277 6.20427 173.968C12.9543 162.426 24.2044 154.391 34.5572 145.928C37.8881 143.202 41.3685 140.048 42.1026 135.807C42.7348 132.156 41.1781 128.526 39.7506 125.1C33.4152 109.88 29.0579 92.7911 33.8163 77.0069C37.6773 64.2002 47.6427 53.3783 60.096 48.4976C72.5492 43.5965 83.8469 50.6525 104.321 58.4358Z" fill="#7848F2"/>
<path d="M258.027 109.568C275.375 103.477 292.491 96.7202 309.343 89.3652C309.037 86.0615 308.418 82.7919 307.412 79.6514C290.316 88.5223 273.777 98.4808 258.027 109.568Z" fill="#D38CFF"/>
<path d="M8.19267 224.312C11.0545 228.425 14.6368 231.98 18.6678 234.937C56.0345 210.73 92.4562 185.056 127.736 157.899C87.0657 179.196 47.4083 201.506 8.07031 224.122C8.1111 224.183 8.15188 224.251 8.19267 224.312Z" fill="#D38CFF"/>
<path d="M292.79 60.3528C289.955 58.3883 286.903 56.7161 283.694 55.4042C265.674 67.6807 247.925 80.3379 230.469 93.403C251.242 82.384 272.016 71.3718 292.79 60.3528Z" fill="#D38CFF"/>
<path d="M60.4336 242.516C64.7637 241.564 69.2161 240.565 73.3763 240.409C88.8477 225.787 103.796 210.621 118.166 194.919C99.4317 210.982 80.14 226.895 60.4336 242.516Z" fill="#D38CFF"/>
<path d="M59.1493 48.9258C58.0889 49.3744 57.0353 49.8435 56.0156 50.3737C89.6164 73.3769 186.707 145.479 247.057 247.974C248.239 248.083 249.429 248.137 250.618 248.171C190.901 145.751 94.4495 73.2613 59.1493 48.9258Z" fill="#D38CFF"/>
<path d="M202.412 211.478C160.79 146.921 90.9237 102.634 34.4489 75.2734C34.2449 75.8512 33.9934 76.4086 33.8167 76.9932C33.7011 77.3671 33.6195 77.7478 33.5176 78.1217C148.377 133.74 195.886 199.371 215.429 241.788C216.666 241.802 217.904 241.938 219.134 242.169C215.015 232.958 209.61 222.646 202.412 211.478Z" fill="#D38CFF"/>
<path d="M46.0043 57.5656C45.2634 58.2657 44.5088 58.9455 43.8223 59.6864C82.8951 84.7425 169.653 147.41 234.938 245.894C236.318 246.214 237.698 246.52 239.078 246.791C173.644 146.92 85.9269 83.2402 46.0043 57.5656Z" fill="#D38CFF"/>
</svg>
