<svg width="447" height="420" viewBox="0 0 447 420" fill="none" xmlns="http://www.w3.org/2000/svg">
<path d="M284.313 262.177C317.845 271.282 351.923 274.119 384.56 270.517C394.223 269.453 404.057 267.7 411.681 261.98C426.636 250.759 429.407 226.098 422.491 205.002C415.582 183.902 400.859 165.925 385.235 150.506C347.443 113.228 301.555 86.4768 254.456 74.2682C241.698 70.9573 228.565 68.6919 216.417 71.0912C190.141 76.2839 173.438 102.487 166.916 130.752C164.781 139.995 163.167 150.225 156.663 156.018C150.229 161.74 140.574 161.641 131.613 160.253C113.686 157.469 95.8487 150.499 77.9323 148.149C60.0083 145.803 40.8679 149.014 30.6097 163.336C16.6944 182.776 24.2658 214.4 36.7487 239.273C65.1851 295.965 117.508 340.194 172.811 354.278C188.619 358.305 205.03 359.967 219.445 355.18C233.867 350.389 246.021 338.278 248.497 321.617C250.536 307.936 246.136 292.219 250.764 279.718C257.949 260.349 281.793 258.868 284.313 262.177Z" fill="#F7AE30"/>
<path d="M241.411 339.081C169.266 284.513 97.1171 229.937 24.9798 175.365C23.3072 181.394 22.8743 187.996 23.379 194.856C94.5551 244.131 165.218 294.471 235.332 345.887C237.582 343.849 239.627 341.579 241.411 339.081Z" fill="#7848F2"/>
<path d="M164.803 139.912C163.211 146.185 161.059 152.111 156.678 156.009C156.02 156.599 155.301 157.084 154.578 157.561C158.961 164.339 163.351 171.113 167.785 177.842C193.039 216.116 220.161 253.042 248.922 288.413C249.229 285.399 249.767 282.472 250.783 279.717C251.557 277.633 252.551 275.79 253.659 274.112C244.267 259.469 233.898 245.42 223.862 231.22C202.962 201.628 183.467 171.045 164.803 139.912Z" fill="#7848F2"/>
<path d="M39.2164 155.01C108.957 210.656 178.694 266.295 248.428 321.946C248.444 321.837 248.492 321.729 248.505 321.612C249.188 317.053 249.129 312.263 248.956 307.448C207.718 258.338 166.783 208.922 126.127 159.245C110.048 156.064 94.0278 150.251 77.9395 148.144C64.2376 146.347 49.8368 147.82 39.2164 155.01Z" fill="#7848F2"/>
</svg>
