<svg width="20" height="20" viewBox="0 0 20 20" fill="none" xmlns="http://www.w3.org/2000/svg">
<path d="M-0.00012207 1.43266C-0.00012207 0.641875 0.661909 0 1.478 0H18.5218C19.3382 0 19.9999 0.641875 19.9999 1.43266V18.5676C19.9999 19.3586 19.3382 20 18.5218 20H1.478C0.661987 20 -0.00012207 19.3587 -0.00012207 18.5678V1.43242V1.43266Z" fill="#323539"/>
<path d="M6.07767 16.7374V7.73338H3.08485V16.7374H6.07798H6.07767ZM4.58188 6.50424C5.62532 6.50424 6.27493 5.81284 6.27493 4.94877C6.2554 4.06502 5.62532 3.39291 4.60173 3.39291C3.57743 3.39291 2.90845 4.06502 2.90845 4.94869C2.90845 5.81276 3.55782 6.50416 4.56228 6.50416H4.58165L4.58188 6.50424ZM7.73423 16.7374H10.7268V11.7097C10.7268 11.441 10.7463 11.1715 10.8254 10.9796C11.0416 10.4417 11.5341 9.88487 12.361 9.88487C13.4437 9.88487 13.877 10.7105 13.877 11.921V16.7374H16.8695V11.5748C16.8695 8.80924 15.3933 7.52229 13.4243 7.52229C11.81 7.52229 11.101 8.42455 10.7071 9.03909H10.727V7.7337H7.73438C7.77345 8.57838 7.73415 16.7378 7.73415 16.7378L7.73423 16.7374Z" fill="white"/>
</svg>
