<svg width="20" height="20" viewBox="0 0 20 20" fill="none" xmlns="http://www.w3.org/2000/svg">
<path d="M6.2896 18.1255C13.8368 18.1255 17.9648 11.8727 17.9648 6.45032C17.9648 6.27272 17.9648 6.09592 17.9528 5.91992C18.7559 5.33905 19.4491 4.61983 20 3.79592C19.2512 4.12792 18.4567 4.34555 17.6432 4.44152C18.4998 3.92876 19.141 3.12217 19.4472 2.17192C18.6417 2.64993 17.7605 2.98678 16.8416 3.16792C16.2229 2.51007 15.4047 2.07446 14.5135 1.92849C13.6223 1.78253 12.7078 1.93435 11.9116 2.36047C11.1154 2.78658 10.4819 3.46323 10.109 4.28571C9.73605 5.10819 9.64462 6.03064 9.8488 6.91032C8.21741 6.82849 6.62146 6.40451 5.16455 5.66593C3.70763 4.92734 2.4223 3.89064 1.392 2.62312C0.867274 3.52645 0.70656 4.59581 0.942583 5.61347C1.17861 6.63114 1.79362 7.52058 2.6624 8.10072C2.00936 8.08159 1.37054 7.90542 0.8 7.58712V7.63912C0.800259 8.5865 1.12821 9.50462 1.72823 10.2378C2.32824 10.9709 3.16338 11.4739 4.092 11.6615C3.4879 11.8263 2.85406 11.8504 2.2392 11.7319C2.50151 12.5472 3.01202 13.2601 3.69937 13.771C4.38671 14.282 5.21652 14.5653 6.0728 14.5815C5.22203 15.2503 4.24776 15.7447 3.20573 16.0365C2.16369 16.3284 1.07435 16.4119 0 16.2823C1.87653 17.4865 4.05994 18.1253 6.2896 18.1223" fill="#323539"/>
</svg>
