<svg width="20" height="20" viewBox="0 0 20 20" fill="none" xmlns="http://www.w3.org/2000/svg">
<g clip-path="url(#clip0_6869_13096)">
<path d="M10 20C15.5228 20 20 15.5228 20 10C20 4.47715 15.5228 0 10 0C4.47715 0 0 4.47715 0 10C0 15.5228 4.47715 20 10 20Z" fill="#323539"/>
<path fill-rule="evenodd" clip-rule="evenodd" d="M4.52672 9.89443C7.44192 8.62432 9.38585 7.78699 10.3585 7.38243C13.1356 6.22734 13.7127 6.02669 14.0888 6.02006C14.1715 6.0186 14.3565 6.0391 14.4763 6.13632C14.5774 6.21841 14.6053 6.3293 14.6186 6.40713C14.6319 6.48497 14.6485 6.66226 14.6353 6.8008C14.4848 8.38204 13.8337 12.2193 13.5024 13.9903C13.3622 14.7397 13.0862 14.9909 12.819 15.0155C12.2382 15.069 11.7973 14.6317 11.2348 14.263C10.3547 13.6861 9.85747 13.327 9.00315 12.764C8.01584 12.1134 8.65587 11.7558 9.21854 11.1714C9.36579 11.0184 11.9245 8.69112 11.974 8.47999C11.9802 8.45359 11.9859 8.35517 11.9274 8.30319C11.869 8.25122 11.7827 8.269 11.7204 8.28313C11.6321 8.30316 10.2261 9.23249 7.50234 11.0711C7.10325 11.3452 6.74176 11.4787 6.41788 11.4717C6.06083 11.464 5.37401 11.2698 4.86342 11.1038C4.23717 10.9003 3.73944 10.7926 3.78278 10.4469C3.80536 10.2668 4.05334 10.0827 4.52672 9.89443Z" fill="white"/>
</g>
<defs>
<clipPath id="clip0_6869_13096">
<rect width="20" height="20" fill="white"/>
</clipPath>
</defs>
</svg>
