<svg width="16" height="14" viewBox="0 0 16 14" fill="none" xmlns="http://www.w3.org/2000/svg">
<path d="M15.6436 2.36632C15.0705 2.62683 14.4527 2.79803 13.8126 2.8799C14.4676 2.48541 14.9738 1.86019 15.2119 1.10842C14.5942 1.48058 13.9094 1.74109 13.1874 1.88996C12.5994 1.24984 11.7732 0.877686 10.8354 0.877686C9.0862 0.877686 7.65711 2.30678 7.65711 4.07081C7.65711 4.32388 7.68688 4.5695 7.73899 4.80024C5.08921 4.66627 2.72973 3.39348 1.15921 1.4657C0.883817 1.93462 0.72751 2.48541 0.72751 3.06598C0.72751 4.17502 1.28575 5.15752 2.14916 5.71575C1.62069 5.71575 1.12944 5.56689 0.697737 5.3436V5.36592C0.697737 6.91411 1.79933 8.20922 3.25819 8.4995C2.78981 8.62768 2.29809 8.64552 1.82166 8.55161C2.02382 9.18612 2.41974 9.74133 2.95378 10.1392C3.48781 10.537 4.1331 10.7575 4.79893 10.7697C3.67027 11.6632 2.27122 12.1462 0.831714 12.1392C0.578646 12.1392 0.325578 12.1243 0.0725098 12.0946C1.48671 13.0026 3.16887 13.5311 4.97012 13.5311C10.8354 13.5311 14.0582 8.66325 14.0582 4.44297C14.0582 4.30155 14.0582 4.16757 14.0508 4.02615C14.676 3.57956 15.2119 3.01388 15.6436 2.36632Z" fill="#F5EEDF"/>
</svg>
