<svg width="21" height="17" viewBox="0 0 21 17" fill="none" xmlns="http://www.w3.org/2000/svg">
<path d="M20.848 2.10526C20.113 2.43935 19.3207 2.65889 18.4998 2.76389C19.3398 2.25799 19.9889 1.45617 20.2944 0.492076C19.5021 0.969349 18.6239 1.30344 17.698 1.49435C16.9439 0.67344 15.8844 0.196167 14.6816 0.196167C12.4385 0.196167 10.6057 2.02889 10.6057 4.29117C10.6057 4.61571 10.6439 4.93071 10.7107 5.22662C7.31254 5.0548 4.28663 3.42253 2.27254 0.950258C1.91936 1.55162 1.71891 2.25799 1.71891 3.00253C1.71891 4.4248 2.43482 5.6848 3.54209 6.40071C2.86436 6.40071 2.23436 6.2098 1.68072 5.92344V5.95208C1.68072 7.93753 3.09345 9.59844 4.96436 9.97071C4.36369 10.1351 3.73309 10.158 3.12209 10.0375C3.38135 10.8513 3.8891 11.5633 4.57397 12.0735C5.25883 12.5837 6.08638 12.8665 6.94027 12.8821C5.49283 14.028 3.69863 14.6473 1.85254 14.6384C1.528 14.6384 1.20345 14.6193 0.878906 14.5812C2.69254 15.7457 4.84982 16.4234 7.15982 16.4234C14.6816 16.4234 18.8148 10.1807 18.8148 4.76844C18.8148 4.58708 18.8148 4.41526 18.8053 4.23389C19.6071 3.66117 20.2944 2.93571 20.848 2.10526Z" fill="#217951"/>
</svg>
