<svg width="16" height="12" viewBox="0 0 16 12" fill="none" xmlns="http://www.w3.org/2000/svg">
<path d="M6.65352 8.06525L10.5165 5.8323L6.65352 3.59934V8.06525ZM15.2578 2.23724C15.3546 2.58707 15.4216 3.05599 15.4662 3.65144C15.5183 4.2469 15.5407 4.76048 15.5407 5.20707L15.5853 5.8323C15.5853 7.46235 15.4662 8.66071 15.2578 9.42735C15.0718 10.0972 14.6401 10.5289 13.9702 10.715C13.6203 10.8118 12.9802 10.8788 11.9977 10.9234C11.0301 10.9755 10.1444 10.9979 9.32562 10.9979L8.14216 11.0425C5.02346 11.0425 3.08079 10.9234 2.31415 10.715C1.64426 10.5289 1.21255 10.0972 1.02647 9.42735C0.929713 9.07752 0.862725 8.6086 0.818066 8.01315C0.765963 7.4177 0.743634 6.90412 0.743634 6.45752L0.698975 5.8323C0.698975 4.20224 0.818066 3.00389 1.02647 2.23724C1.21255 1.56735 1.64426 1.13565 2.31415 0.94957C2.66397 0.852809 3.30409 0.78582 4.28659 0.741161C5.2542 0.689059 6.13994 0.666729 6.95869 0.666729L8.14216 0.62207C11.2608 0.62207 13.2035 0.741161 13.9702 0.94957C14.6401 1.13565 15.0718 1.56735 15.2578 2.23724Z" fill="#F5EEDF"/>
</svg>
