<svg width="20" height="14" viewBox="0 0 20 14" fill="none" xmlns="http://www.w3.org/2000/svg">
<path d="M8.22743 9.69609L13.1815 6.83245L8.22743 3.96882V9.69609ZM19.262 2.222C19.3861 2.67063 19.472 3.272 19.5292 4.03563C19.5961 4.79927 19.6247 5.45791 19.6247 6.03063L19.682 6.83245C19.682 8.92291 19.5292 10.4597 19.262 11.4429C19.0233 12.302 18.4697 12.8556 17.6106 13.0943C17.162 13.2184 16.3411 13.3043 15.0811 13.3615C13.8402 13.4284 12.7042 13.457 11.6542 13.457L10.1365 13.5143C6.13697 13.5143 3.64561 13.3615 2.66243 13.0943C1.80334 12.8556 1.2497 12.302 1.01106 11.4429C0.886974 10.9943 0.801065 10.3929 0.743792 9.62927C0.676974 8.86563 0.648337 8.207 0.648337 7.63427L0.591064 6.83245C0.591064 4.742 0.743792 3.20518 1.01106 2.222C1.2497 1.36291 1.80334 0.809271 2.66243 0.570635C3.11106 0.446544 3.93197 0.360635 5.19197 0.303362C6.43288 0.236544 7.56879 0.207907 8.61879 0.207907L10.1365 0.150635C14.1361 0.150635 16.6274 0.303362 17.6106 0.570635C18.4697 0.809271 19.0233 1.36291 19.262 2.222Z" fill="#217951"/>
</svg>
